<svg width="1440" height="900" viewBox="0 0 1440 900" fill="none" xmlns="http://www.w3.org/2000/svg">
<path d="M1439.99 -69H0.921875V1063.98H1439.99V-69Z" fill="#BBF2FF"/>
<path d="M1440 951.147V220H1429.61V269.425H1410.24V220H1378.93V252.386H1328.26V301.811H1283.55V220H1247.78V267.725H1198.6V220H1164.31V264.318H1122.58V220H1073.4V240.455H1004.84V220H963.106V279.648H922.859V220H891.562V252.386H833.43V291.579H778.288V237.047H741.03V266.017H708.234V231.931H662.034V272.833H593.47V220H538.328V245.571H492.119V220H450.39V243.863H387.788V286.472H347.549V220H311.781V255.794H261.101V220H235.766V242.154H158.26V296.695H122.492V220H68.8407V250.678H0.921875V951.147H1440Z" fill="#DBF8FF"/>
</svg>
