<svg width="57" height="61" viewBox="0 0 57 61" fill="none" xmlns="http://www.w3.org/2000/svg">
<g filter="url(#filter0_d_610_96874)">
<mask id="path-1-inside-1_610_96874" fill="white">
<path fill-rule="evenodd" clip-rule="evenodd" d="M52.6204 8.77053V17.5411H4.38477V8.77053H8.77228V4.38301H17.5428V0H39.4669V4.38301H48.2329V8.77053H52.6204ZM52.6187 30.6969V21.9219H57.0017V39.4674H52.6187V48.2335H48.2312V52.621H39.4652V57.004H17.5411V52.621H8.77056V48.2335H4.38304V39.4674H0V21.9219H4.38304V30.6969H8.77056V35.0799H21.9196V30.6969H26.3071V26.3094H30.6946V30.6969H35.0776V35.0799H48.2312V30.6969H52.6187Z"/>
</mask>
<path fill-rule="evenodd" clip-rule="evenodd" d="M52.6204 8.77053V17.5411H4.38477V8.77053H8.77228V4.38301H17.5428V0H39.4669V4.38301H48.2329V8.77053H52.6204ZM52.6187 30.6969V21.9219H57.0017V39.4674H52.6187V48.2335H48.2312V52.621H39.4652V57.004H17.5411V52.621H8.77056V48.2335H4.38304V39.4674H0V21.9219H4.38304V30.6969H8.77056V35.0799H21.9196V30.6969H26.3071V26.3094H30.6946V30.6969H35.0776V35.0799H48.2312V30.6969H52.6187Z" fill="#FFDB4B"/>
<path d="M52.6204 17.5411V19.5411H54.6204V17.5411H52.6204ZM52.6204 8.77053H54.6204V6.77053H52.6204V8.77053ZM4.38477 17.5411H2.38477V19.5411H4.38477V17.5411ZM4.38477 8.77053V6.77053H2.38477V8.77053H4.38477ZM8.77228 8.77053V10.7705H10.7723V8.77053H8.77228ZM8.77228 4.38301V2.38301H6.77228V4.38301H8.77228ZM17.5428 4.38301V6.38301H19.5428V4.38301H17.5428ZM17.5428 0V-2H15.5428V0H17.5428ZM39.4669 0H41.4669V-2H39.4669V0ZM39.4669 4.38301H37.4669V6.38301H39.4669V4.38301ZM48.2329 4.38301H50.2329V2.38301H48.2329V4.38301ZM48.2329 8.77053H46.2329V10.7705H48.2329V8.77053ZM52.6187 21.9219V19.9219H50.6187V21.9219H52.6187ZM52.6187 30.6969V32.6969H54.6187V30.6969H52.6187ZM57.0017 21.9219H59.0017V19.9219H57.0017V21.9219ZM57.0017 39.4674V41.4674H59.0017V39.4674H57.0017ZM52.6187 39.4674V37.4674H50.6187V39.4674H52.6187ZM52.6187 48.2335V50.2335H54.6187V48.2335H52.6187ZM48.2312 48.2335V46.2335H46.2312V48.2335H48.2312ZM48.2312 52.621V54.621H50.2312V52.621H48.2312ZM39.4652 52.621V50.621H37.4652V52.621H39.4652ZM39.4652 57.004V59.004H41.4652V57.004H39.4652ZM17.5411 57.004H15.5411V59.004H17.5411V57.004ZM17.5411 52.621H19.5411V50.621H17.5411V52.621ZM8.77056 52.621H6.77056V54.621H8.77056V52.621ZM8.77056 48.2335H10.7706V46.2335H8.77056V48.2335ZM4.38304 48.2335H2.38304V50.2335H4.38304V48.2335ZM4.38304 39.4674H6.38304V37.4674H4.38304V39.4674ZM0 39.4674H-2V41.4674H0V39.4674ZM0 21.9219V19.9219H-2V21.9219H0ZM4.38304 21.9219H6.38304V19.9219H4.38304V21.9219ZM4.38304 30.6969H2.38304V32.6969H4.38304V30.6969ZM8.77056 30.6969H10.7706V28.6969H8.77056V30.6969ZM8.77056 35.0799H6.77056V37.0799H8.77056V35.0799ZM21.9196 35.0799V37.0799H23.9196V35.0799H21.9196ZM21.9196 30.6969V28.6969H19.9196V30.6969H21.9196ZM26.3071 30.6969V32.6969H28.3071V30.6969H26.3071ZM26.3071 26.3094V24.3094H24.3071V26.3094H26.3071ZM30.6946 26.3094H32.6946V24.3094H30.6946V26.3094ZM30.6946 30.6969H28.6946V32.6969H30.6946V30.6969ZM35.0776 30.6969H37.0776V28.6969H35.0776V30.6969ZM35.0776 35.0799H33.0776V37.0799H35.0776V35.0799ZM48.2312 35.0799V37.0799H50.2312V35.0799H48.2312ZM48.2312 30.6969V28.6969H46.2312V30.6969H48.2312ZM54.6204 17.5411V8.77053H50.6204V17.5411H54.6204ZM4.38477 19.5411H52.6204V15.5411H4.38477V19.5411ZM2.38477 8.77053V17.5411H6.38477V8.77053H2.38477ZM8.77228 6.77053H4.38477V10.7705H8.77228V6.77053ZM6.77228 4.38301V8.77053H10.7723V4.38301H6.77228ZM17.5428 2.38301H8.77228V6.38301H17.5428V2.38301ZM15.5428 0V4.38301H19.5428V0H15.5428ZM39.4669 -2H17.5428V2H39.4669V-2ZM41.4669 4.38301V0H37.4669V4.38301H41.4669ZM48.2329 2.38301H39.4669V6.38301H48.2329V2.38301ZM50.2329 8.77053V4.38301H46.2329V8.77053H50.2329ZM52.6204 6.77053H48.2329V10.7705H52.6204V6.77053ZM50.6187 21.9219V30.6969H54.6187V21.9219H50.6187ZM57.0017 19.9219H52.6187V23.9219H57.0017V19.9219ZM59.0017 39.4674V21.9219H55.0017V39.4674H59.0017ZM52.6187 41.4674H57.0017V37.4674H52.6187V41.4674ZM54.6187 48.2335V39.4674H50.6187V48.2335H54.6187ZM48.2312 50.2335H52.6187V46.2335H48.2312V50.2335ZM50.2312 52.621V48.2335H46.2312V52.621H50.2312ZM39.4652 54.621H48.2312V50.621H39.4652V54.621ZM41.4652 57.004V52.621H37.4652V57.004H41.4652ZM17.5411 59.004H39.4652V55.004H17.5411V59.004ZM15.5411 52.621V57.004H19.5411V52.621H15.5411ZM8.77056 54.621H17.5411V50.621H8.77056V54.621ZM6.77056 48.2335V52.621H10.7706V48.2335H6.77056ZM4.38304 50.2335H8.77056V46.2335H4.38304V50.2335ZM2.38304 39.4674V48.2335H6.38304V39.4674H2.38304ZM0 41.4674H4.38304V37.4674H0V41.4674ZM-2 21.9219V39.4674H2V21.9219H-2ZM4.38304 19.9219H0V23.9219H4.38304V19.9219ZM6.38304 30.6969V21.9219H2.38304V30.6969H6.38304ZM8.77056 28.6969H4.38304V32.6969H8.77056V28.6969ZM10.7706 35.0799V30.6969H6.77056V35.0799H10.7706ZM21.9196 33.0799H8.77056V37.0799H21.9196V33.0799ZM19.9196 30.6969V35.0799H23.9196V30.6969H19.9196ZM26.3071 28.6969H21.9196V32.6969H26.3071V28.6969ZM24.3071 26.3094V30.6969H28.3071V26.3094H24.3071ZM30.6946 24.3094H26.3071V28.3094H30.6946V24.3094ZM32.6946 30.6969V26.3094H28.6946V30.6969H32.6946ZM35.0776 28.6969H30.6946V32.6969H35.0776V28.6969ZM37.0776 35.0799V30.6969H33.0776V35.0799H37.0776ZM48.2312 33.0799H35.0776V37.0799H48.2312V33.0799ZM46.2312 30.6969V35.0799H50.2312V30.6969H46.2312ZM52.6187 28.6969H48.2312V32.6969H52.6187V28.6969Z" fill="#242A53" mask="url(#path-1-inside-1_610_96874)"/>
</g>
<path d="M43.8518 39.4688H39.4688V43.8518H43.8518V39.4688Z" fill="#502A1B"/>
<path d="M39.4631 43.8438H17.5391V48.2313H39.4631V43.8438Z" fill="#502A1B"/>
<path d="M17.5438 39.4688H13.1562V43.8518H17.5438V39.4688Z" fill="#502A1B"/>
<path d="M0 17.5391V21.9176H4.38304V30.6926H8.77056V21.9176H17.5411V26.3051H13.1536V30.6926H8.77056V35.0756H21.9196V30.6926H26.3071V26.3051H30.6946V30.6926H35.0776V21.9176H43.8437V26.3051H39.4652V30.6926H35.0776V35.0756H48.2312V30.6926H52.6187V21.9176H57.0017V17.5391H0Z" fill="#242A53"/>
<path d="M35.0781 21.9297V30.7047H39.4656V26.3172H43.8442V21.9297H35.0781Z" fill="#0091EA"/>
<path d="M8.77344 21.9297V30.7047H13.1565V26.3172H17.544V21.9297H8.77344Z" fill="#0091EA"/>
<defs>
<filter id="filter0_d_610_96874" x="0" y="0" width="57" height="60.0078" filterUnits="userSpaceOnUse" color-interpolation-filters="sRGB">
<feFlood flood-opacity="0" result="BackgroundImageFix"/>
<feColorMatrix in="SourceAlpha" type="matrix" values="0 0 0 0 0 0 0 0 0 0 0 0 0 0 0 0 0 0 127 0" result="hardAlpha"/>
<feOffset dy="3"/>
<feComposite in2="hardAlpha" operator="out"/>
<feColorMatrix type="matrix" values="0 0 0 0 0.141176 0 0 0 0 0.164706 0 0 0 0 0.32549 0 0 0 1 0"/>
<feBlend mode="normal" in2="BackgroundImageFix" result="effect1_dropShadow_610_96874"/>
<feBlend mode="normal" in="SourceGraphic" in2="effect1_dropShadow_610_96874" result="shape"/>
</filter>
</defs>
</svg>
