<svg width="34" height="34" viewBox="0 0 34 34" fill="none" xmlns="http://www.w3.org/2000/svg">
<path d="M18.8607 24.24H15.1547V18.188H9.0007V15.094H15.1547V9.28H18.8607V15.094H24.9807V18.188H18.8607V24.24Z" fill="#16114F"/>
<rect width="4.12121" height="25.7576" transform="matrix(-1.19249e-08 1 1 1.19249e-08 4.12109 0)" fill="#16114F"/>
<rect width="4.12121" height="25.7576" transform="matrix(-1.19249e-08 1 1 1.19249e-08 4.12109 29.875)" fill="#16114F"/>
<rect width="4.12121" height="4.12121" transform="matrix(-1.19249e-08 1 1 1.19249e-08 2.05859 2.0625)" fill="#16114F"/>
<rect width="4.12121" height="4.12121" transform="matrix(-1.19249e-08 1 1 1.19249e-08 2.05859 27.8203)" fill="#16114F"/>
<rect width="4.12121" height="4.12121" transform="matrix(-1.19249e-08 1 1 1.19249e-08 27.8164 27.8203)" fill="#16114F"/>
<rect width="4.12121" height="4.12121" transform="matrix(-1.19249e-08 1 1 1.19249e-08 27.8164 2.0625)" fill="#16114F"/>
<rect width="4.12121" height="25.7576" transform="matrix(1 -3.17865e-08 -3.17865e-08 -1 29.8789 29.875)" fill="#16114F"/>
<rect width="4.12121" height="25.7576" transform="matrix(1 -3.17865e-08 -3.17865e-08 -1 0 29.875)" fill="#16114F"/>
</svg>
