<svg width="1440" height="1072" viewBox="0 0 1440 1072" fill="none" xmlns="http://www.w3.org/2000/svg">
<path d="M1439.99 -61H0.921875V1071.98H1439.99V-61Z" fill="#BBF2FF"/>
<path d="M1440 811.053V199.906H1429.61V249.331H1410.24V199.906H1378.93V232.293H1328.26V281.717H1283.55V199.906H1247.78V247.632H1198.6V199.906H1164.31V244.224H1122.58V199.906H1073.4V220.361H1004.84V199.906H963.106V259.554H922.859V199.906H891.562V232.293H833.43V271.485H778.288V216.953H741.03V245.923H708.234V211.838H662.034V252.739H593.47V199.906H538.328V225.477H492.119V199.906H450.39V223.769H387.788V266.378H347.549V199.906H311.781V235.7H261.101V199.906H235.766V222.061H158.26V276.601H122.492V199.906H68.8407V230.584H0.921875V811.053H1440Z" fill="#D1F6FF"/>
<path d="M1440 1071.98V460.828H1429.61V510.253H1410.24V460.828H1378.93V493.206H1328.26V542.63H1283.55V460.828H1247.78V508.553H1198.6V460.828H1164.31V505.137H1122.58V460.828H1073.4V481.283H1004.84V460.828H963.106V520.476H922.859V460.828H891.562V493.206H833.43V532.407H778.288V477.875H741.03V506.845H708.234V472.759H662.034V513.661H593.47V460.828H538.328V486.39H492.119V460.828H450.39V484.682H387.788V527.291H347.549V460.828H311.781V496.613H261.101V460.828H235.766V482.983H158.26V537.523H122.492V460.828H68.8407V491.506H0.921875V1071.98H1440Z" fill="url(#paint0_linear_862_47320)"/>
<defs>
<linearGradient id="paint0_linear_862_47320" x1="720.462" y1="460.828" x2="720.462" y2="1071.98" gradientUnits="userSpaceOnUse">
<stop stop-color="#E4FAFF"/>
<stop offset="1" stop-color="#C7DFE9"/>
</linearGradient>
</defs>
</svg>
