<svg width="63" height="32" viewBox="0 0 63 32" fill="none" xmlns="http://www.w3.org/2000/svg">
<path d="M57.6144 29.8672V28.8004H56.3617V27.7343H55.1096V26.6675V25.6H53.8569V24.5339V23.4671V22.4003V21.3341V20.2673V19.1999V18.1344H52.6042V19.1999H51.3522V20.2673H50.0995H48.8468H47.5941H46.3427H45.09H43.8373V19.1999H42.5846V18.1344H41.3325V17.0669H40.0798V18.1344H38.8271V19.1999V20.2673H37.5744V21.3341H36.3224V22.4003H35.0697V23.4671H33.817H32.565V24.5339H31.3129H30.0602H28.8075H27.5555H26.3028H25.0501H23.7974H22.5453V23.4671H21.2926H20.0399V22.4003H18.7872V21.3341H17.5352V20.2673H16.2825H15.0298V21.3341H13.7777V22.4003H12.525H11.2723H10.0196H8.76759H7.51489H6.26219V21.3341H5.00949V20.2673H3.75744V19.1999V18.1344H2.50474V17.0669V16.0001V14.934V13.8672H1.25204V14.934V16.0001V17.0669H0V18.1344V19.1999V20.2673V21.3341V22.4003V23.4671H1.25204V24.5339V25.6V26.6675H2.50474V27.7343V28.8004H3.75744V29.8672H5.00949V30.934H6.26219H7.51489V32.0001H8.76759H10.0196H11.2723H12.525H13.7777H15.0298H16.2825H17.5352H18.7872H20.0399H21.2926H22.5453H23.7974H25.0501H26.3028H27.5555H28.8075H30.0602H31.3129H32.565H33.817H35.0697H36.3224H37.5744H38.8271H40.0798H41.3325H42.5846H43.8373H45.09H46.3427H47.5941H48.8468H50.0995H51.3522H52.6042H53.8569H55.1096H56.3617H57.6144V30.934H58.8671V29.8672H57.6144Z" fill="#A3CEE0"/>
<path d="M61.371 20.2672V19.1998V18.1343H60.1189V17.0668H58.8662V16H57.6135V14.9339H56.3608H55.1088H53.8561V13.8671V12.8003V11.7341H52.6034V10.6673V9.59988V8.53308H51.3513V7.46694H50.0986V6.40014H48.8459V5.33268H47.5932V4.2672H46.3419H45.0892H43.8365H42.5838H41.3317H40.079H38.8263H37.5736V5.33268H36.3216V4.2672V3.19974H35.0689V2.13294H33.8162H32.5641V1.0668H31.3121V0H30.0594H28.8067H27.5546H26.3019H25.0492H23.7965V1.0668H22.5445H21.2918V2.13294H20.0391V3.19974H18.7864V4.2672H17.5343V5.33268H16.2816V6.40014V7.46694V8.53308H15.0289H13.7769H12.5242H11.2715H10.0188H8.76675H7.51405V9.59988H6.26135H5.00865V10.6673H3.75661V11.7341H2.50391V12.8003V13.8671V14.9339V16V17.0668V18.1343H3.75661V19.1998V20.2672H5.00865V21.334H6.26135V22.4002H7.51405H8.76675H10.0188H11.2715H12.5242H13.7769V21.334H15.0289V20.2672H16.2816H17.5343V21.334H18.7864V22.4002H20.0391V23.4669H21.2918H22.5445V24.5337H23.7965H25.0492H26.3019H27.5546H28.8067H30.0594H31.3121H32.5641V23.4669H33.8162H35.0689V22.4002H36.3216V21.334H37.5736V20.2672H38.8263V19.1998V18.1343H40.079V17.0668H41.3317V18.1343H42.5838V19.1998H43.8365V20.2672H45.0892H46.3419H47.5932H48.8459H50.0986H51.3513V19.1998H52.6034V18.1343H53.8561V19.1998V20.2672V21.334V22.4002V23.4669V24.5337V25.5999H55.1088V26.6673V27.7341H56.3608V28.8003H57.6135V29.8671H58.8662V30.9339H60.1189V29.8671V28.8003H61.371V27.7341H62.6237V26.6673V25.5999V24.5337V23.4669V22.4002V21.334V20.2672H61.371Z" fill="white"/>
</svg>
