<svg width="99" height="25" viewBox="0 0 99 25" fill="none" xmlns="http://www.w3.org/2000/svg">
<g filter="url(#filter0_d_862_64810)">
<rect width="96.8061" height="22.3399" rx="11.1699" fill="#4DD86C" shape-rendering="crispEdges"/>
<path d="M23.115 18.2578V16.303H21.1602V14.3395H25.0785V16.303H28.9968V12.3846H25.0785V10.4212H28.9968V6.50285H25.0785V8.46632H21.1602V6.50285H23.115V4.548H30.9517V6.50285H32.9151V10.4212H30.9517V12.3846H32.9151V16.303H30.9517V18.2578H23.115Z" fill="#16114F"/>
<path d="M12.0235 15.7486V12.5688H8.84375V9.37506H12.0235V6.19531H15.2172V9.37506H18.397V12.5688H15.2172V15.7486H12.0235Z" fill="#16114F"/>
<path d="M45.0487 12.2168V9.0557H46.2383V8.2403H42.9041V9.0557H44.0937V12.2168H45.0487ZM49.4885 12.3173C49.8068 12.3173 50.1029 12.1889 50.2983 11.9934L50.0973 11.541C50.0247 11.636 49.9185 11.703 49.818 11.703C49.7007 11.703 49.6281 11.608 49.5946 11.4908L49.4662 11.0216C49.3991 10.7926 49.2874 10.6363 49.0808 10.5525V10.5469C49.6728 10.4017 50.0247 9.99398 50.0247 9.46899C50.0247 8.70944 49.4382 8.2403 48.4944 8.2403H46.5173V12.2168H47.4723V10.7144H48.0811C48.3101 10.7144 48.472 10.8932 48.5391 11.1277L48.7122 11.7086C48.8239 12.0828 49.092 12.3173 49.4885 12.3173ZM47.4723 8.944H48.3715C48.796 8.944 49.0696 9.1674 49.0696 9.5025C49.0696 9.84318 48.796 10.061 48.3715 10.061H47.4723V8.944ZM53.3773 12.2168V11.4517H51.4449V10.519H53.0981V9.84318H51.4449V8.99985H53.3215V8.2403H50.5234V12.2168H53.3773ZM56.549 12.2168V11.4517H54.6166V10.519H56.2697V9.84318H54.6166V8.99985H56.4931V8.2403H53.6951V12.2168H56.549ZM58.492 12.3564C59.514 12.3564 60.2289 11.8538 60.2289 11.0216C60.2289 10.3738 59.8156 10.0051 58.9108 9.85435L58.3467 9.74824C57.9335 9.67005 57.7547 9.53601 57.7547 9.29586C57.7547 9.01102 58.0005 8.80438 58.3914 8.80438C58.7768 8.80438 59.0728 9.05012 59.1231 9.43548L59.9776 9.24559C59.877 8.55306 59.2348 8.10067 58.4026 8.10067C57.4811 8.10067 56.8165 8.60332 56.8165 9.38522C56.8165 10.0107 57.2074 10.3626 58.0843 10.5301L58.6372 10.6363C59.1063 10.7312 59.3018 10.8764 59.3018 11.1221C59.3018 11.4293 59.0058 11.6471 58.5311 11.6471C58.0005 11.6471 57.6095 11.3344 57.5537 10.8596L56.6824 11.0216C56.7718 11.8817 57.5034 12.3564 58.492 12.3564ZM62.5778 12.2168V10.882H63.4937C64.4264 10.882 65.0464 10.3514 65.0464 9.55835C65.0464 8.77087 64.432 8.2403 63.5049 8.2403H61.6284V12.2168H62.5778ZM62.5778 8.944H63.3541C63.8065 8.944 64.0913 9.18974 64.0913 9.55835C64.0913 9.92696 63.8009 10.1727 63.3541 10.1727H62.5778V8.944ZM67.959 12.2168V11.3958H66.3059V8.2403H65.3509V12.2168H67.959ZM68.9594 12.2168L69.2163 11.4349H70.7466L71.0035 12.2168H72.0032L70.5678 8.2403H69.4006L67.9597 12.2168H68.9594ZM69.9758 8.99427H69.987L70.5734 10.7591H69.3894L69.9758 8.99427ZM73.1279 12.2168V9.3908H73.139L74.7587 12.2168H75.8812V8.2403H74.9765V11.0719H74.9653L73.3457 8.2403H72.2287V12.2168H73.1279ZM78.3033 12.2168V9.0557H79.4929V8.2403H76.1587V9.0557H77.3483V12.2168H78.3033ZM82.6258 12.2168V11.4517H80.6934V10.519H82.3465V9.84318H80.6934V8.99985H82.5699V8.2403H79.7719V12.2168H82.6258ZM84.5799 12.2168C85.9594 12.2168 86.7301 11.5075 86.7301 10.2285C86.7301 8.94959 85.9594 8.2403 84.5799 8.2403H82.9435V12.2168H84.5799ZM83.8706 8.99985H84.5799C85.3451 8.99985 85.7751 9.43548 85.7751 10.2285C85.7751 11.016 85.3451 11.4517 84.5799 11.4517H83.8706V8.99985ZM87.7616 10.9881L87.9795 9.32378V8.2403H87.1026V9.32378L87.3204 10.9881H87.7616ZM87.5382 12.2782C87.8343 12.2782 88.0465 12.0772 88.0465 11.7868C88.0465 11.5019 87.8343 11.3009 87.5382 11.3009C87.2478 11.3009 87.0356 11.5019 87.0356 11.7868C87.0356 12.0772 87.2478 12.2782 87.5382 12.2782Z" fill="#16114F"/>
<rect x="0.5" y="0.5" width="95.8061" height="21.3399" rx="10.6699" stroke="black" shape-rendering="crispEdges"/>
</g>
<defs>
<filter id="filter0_d_862_64810" x="0" y="0" width="98.6663" height="24.2015" filterUnits="userSpaceOnUse" color-interpolation-filters="sRGB">
<feFlood flood-opacity="0" result="BackgroundImageFix"/>
<feColorMatrix in="SourceAlpha" type="matrix" values="0 0 0 0 0 0 0 0 0 0 0 0 0 0 0 0 0 0 127 0" result="hardAlpha"/>
<feOffset dx="1.86166" dy="1.86166"/>
<feComposite in2="hardAlpha" operator="out"/>
<feColorMatrix type="matrix" values="0 0 0 0 0 0 0 0 0 0 0 0 0 0 0 0 0 0 1 0"/>
<feBlend mode="normal" in2="BackgroundImageFix" result="effect1_dropShadow_862_64810"/>
<feBlend mode="normal" in="SourceGraphic" in2="effect1_dropShadow_862_64810" result="shape"/>
</filter>
</defs>
</svg>
