<svg width="196" height="25" viewBox="0 0 196 25" fill="none" xmlns="http://www.w3.org/2000/svg">
<g filter="url(#filter0_d_862_64806)">
<rect width="193.612" height="22.3399" rx="11.1699" fill="#FEFB34" shape-rendering="crispEdges"/>
<path d="M21.1562 18.2598V16.3049H23.1111V8.46827H21.1562V6.5048H23.1111V4.54995H27.0294V16.3049H28.9929V18.2598H21.1562ZM38.0875 10.4231V6.5048H34.1692V10.4231H38.0875ZM32.2057 18.2598V16.3049H30.2509V14.3414H34.1692V16.3049H38.0875V12.3866H32.2057V10.4231H30.2509V6.5048H32.2057V4.54995H40.0424V6.5048H42.0058V16.3049H40.0424V18.2598H32.2057ZM50.3778 18.2598V16.3049H48.4229V14.3414H52.3413V16.3049H56.2596V12.3866H50.3778V10.4231H48.4229V6.5048H50.3778V4.54995H58.2144V6.5048H60.1779V8.46827H56.2596V6.5048H52.3413V10.4231H58.2144V12.3866H60.1779V16.3049H58.2144V18.2598H50.3778ZM71.2188 18.2598V16.3049H73.1822V18.2598H71.2188ZM63.3821 18.2598V16.3049H61.4273V6.5048H63.3821V4.54995H71.2188V6.5048H73.1822V14.3414H71.2188V16.3049H69.2639V14.3414H67.3005V12.3866H69.2639V6.5048H65.3456V16.3049H69.2639V18.2598H63.3821ZM79.5993 18.2598V4.54995H91.3543V6.5048H83.5177V10.4231H91.3543V12.3866H83.5177V18.2598H79.5993ZM96.522 18.2598V6.5048H92.6037V4.54995H104.359V6.5048H100.44V18.2598H96.522Z" fill="#16114F"/>
<path d="M12.0235 15.7486V12.5688H8.84375V9.37506H12.0235V6.19531H15.2172V9.37506H18.397V12.5688H15.2172V15.7486H12.0235Z" fill="#16114F"/>
<path d="M117.302 12.3173C117.62 12.3173 117.916 12.1889 118.112 11.9934L117.911 11.541C117.838 11.636 117.732 11.703 117.631 11.703C117.514 11.703 117.441 11.608 117.408 11.4908L117.279 11.0216C117.212 10.7926 117.101 10.6363 116.894 10.5525V10.5469C117.486 10.4017 117.838 9.99398 117.838 9.46899C117.838 8.70944 117.252 8.2403 116.308 8.2403H114.331V12.2168H115.286V10.7144H115.894C116.123 10.7144 116.285 10.8932 116.352 11.1277L116.526 11.7086C116.637 12.0828 116.905 12.3173 117.302 12.3173ZM115.286 8.944H116.185C116.609 8.944 116.883 9.1674 116.883 9.5025C116.883 9.84318 116.609 10.061 116.185 10.061H115.286V8.944ZM119.112 12.2168L119.369 11.4349H120.899L121.156 12.2168H122.156L120.72 8.2403H119.553L118.112 12.2168H119.112ZM120.128 8.99427H120.139L120.726 10.7591H119.542L120.128 8.99427ZM123.336 12.2168V8.2403H122.381V12.2168H123.336ZM124.739 12.2168V9.3908H124.75L126.37 12.2168H127.493V8.2403H126.588V11.0719H126.577L124.957 8.2403H123.84V12.2168H124.739ZM128.949 12.2168V10.72H130.384V9.99398H128.949V9.0557H130.713V8.2403H127.993V12.2168H128.949ZM133.013 12.3564C134.348 12.3564 135.219 11.5131 135.219 10.2285C135.219 8.944 134.348 8.10067 133.013 8.10067C131.684 8.10067 130.813 8.944 130.813 10.2285C130.813 11.5131 131.684 12.3564 133.013 12.3564ZM133.013 11.5354C132.259 11.5354 131.768 11.016 131.768 10.2285C131.768 9.43548 132.259 8.91608 133.013 8.91608C133.773 8.91608 134.264 9.43548 134.264 10.2285C134.264 11.016 133.773 11.5354 133.013 11.5354ZM138.552 12.3173C138.87 12.3173 139.166 12.1889 139.361 11.9934L139.16 11.541C139.088 11.636 138.982 11.703 138.881 11.703C138.764 11.703 138.691 11.608 138.658 11.4908L138.529 11.0216C138.462 10.7926 138.35 10.6363 138.144 10.5525V10.5469C138.736 10.4017 139.088 9.99398 139.088 9.46899C139.088 8.70944 138.501 8.2403 137.557 8.2403H135.58V12.2168H136.535V10.7144H137.144C137.373 10.7144 137.535 10.8932 137.602 11.1277L137.775 11.7086C137.887 12.0828 138.155 12.3173 138.552 12.3173ZM136.535 8.944H137.435C137.859 8.944 138.133 9.1674 138.133 9.5025C138.133 9.84318 137.859 10.061 137.435 10.061H136.535V8.944ZM142.44 12.2168V11.4517H140.508V10.519H142.161V9.84318H140.508V8.99985H142.385V8.2403H139.586V12.2168H142.44ZM144.383 12.3564C145.405 12.3564 146.12 11.8538 146.12 11.0216C146.12 10.3738 145.707 10.0051 144.802 9.85435L144.238 9.74824C143.825 9.67005 143.646 9.53601 143.646 9.29586C143.646 9.01102 143.892 8.80438 144.283 8.80438C144.668 8.80438 144.964 9.05012 145.014 9.43548L145.869 9.24559C145.768 8.55306 145.126 8.10067 144.294 8.10067C143.372 8.10067 142.708 8.60332 142.708 9.38522C142.708 10.0107 143.099 10.3626 143.976 10.5301L144.529 10.6363C144.998 10.7312 145.193 10.8764 145.193 11.1221C145.193 11.4293 144.897 11.6471 144.422 11.6471C143.892 11.6471 143.501 11.3344 143.445 10.8596L142.574 11.0216C142.663 11.8817 143.395 12.3564 144.383 12.3564ZM148.118 12.2168V9.0557H149.308V8.2403H145.974V9.0557H147.163V12.2168H148.118ZM151.657 12.2168V10.882H152.573C153.506 10.882 154.126 10.3514 154.126 9.55835C154.126 8.77087 153.511 8.2403 152.584 8.2403H150.708V12.2168H151.657ZM151.657 8.944H152.434C152.886 8.944 153.171 9.18974 153.171 9.55835C153.171 9.92696 152.88 10.1727 152.434 10.1727H151.657V8.944ZM157.401 12.3173C157.72 12.3173 158.016 12.1889 158.211 11.9934L158.01 11.541C157.938 11.636 157.832 11.703 157.731 11.703C157.614 11.703 157.541 11.608 157.508 11.4908L157.379 11.0216C157.312 10.7926 157.2 10.6363 156.994 10.5525V10.5469C157.586 10.4017 157.938 9.99398 157.938 9.46899C157.938 8.70944 157.351 8.2403 156.407 8.2403H154.43V12.2168H155.385V10.7144H155.994C156.223 10.7144 156.385 10.8932 156.452 11.1277L156.625 11.7086C156.737 12.0828 157.005 12.3173 157.401 12.3173ZM155.385 8.944H156.284C156.709 8.944 156.983 9.1674 156.983 9.5025C156.983 9.84318 156.709 10.061 156.284 10.061H155.385V8.944ZM160.415 12.3564C161.75 12.3564 162.621 11.5131 162.621 10.2285C162.621 8.944 161.75 8.10067 160.415 8.10067C159.086 8.10067 158.215 8.944 158.215 10.2285C158.215 11.5131 159.086 12.3564 160.415 12.3564ZM160.415 11.5354C159.661 11.5354 159.17 11.016 159.17 10.2285C159.17 9.43548 159.661 8.91608 160.415 8.91608C161.175 8.91608 161.666 9.43548 161.666 10.2285C161.666 11.016 161.175 11.5354 160.415 11.5354ZM164.735 12.2168V9.0557H165.924V8.2403H162.59V9.0557H163.78V12.2168H164.735ZM169.057 12.2168V11.4517H167.125V10.519H168.778V9.84318H167.125V8.99985H169.001V8.2403H166.203V12.2168H169.057ZM171.336 12.3564C172.476 12.3564 173.274 11.6862 173.397 10.6307L172.504 10.5078C172.409 11.1333 171.956 11.5354 171.348 11.5354C170.61 11.5354 170.141 11.0272 170.136 10.2285C170.136 9.42431 170.56 8.91608 171.23 8.91608C171.75 8.91608 172.096 9.25118 172.197 9.78733L173.068 9.56952C172.928 8.67034 172.208 8.10067 171.23 8.10067C169.974 8.10067 169.181 8.92725 169.181 10.2285C169.181 11.5298 170.018 12.3564 171.336 12.3564ZM175.439 12.2168V9.0557H176.628V8.2403H173.294V9.0557H174.484V12.2168H175.439ZM179.761 12.2168V11.4517H177.829V10.519H179.482V9.84318H177.829V8.99985H179.705V8.2403H176.907V12.2168H179.761ZM181.715 12.2168C183.095 12.2168 183.865 11.5075 183.865 10.2285C183.865 8.94959 183.095 8.2403 181.715 8.2403H180.079V12.2168H181.715ZM181.006 8.99985H181.715C182.48 8.99985 182.91 9.43548 182.91 10.2285C182.91 11.016 182.48 11.4517 181.715 11.4517H181.006V8.99985Z" fill="#16114F"/>
<rect x="0.5" y="0.5" width="192.612" height="21.3399" rx="10.6699" stroke="black" shape-rendering="crispEdges"/>
</g>
<defs>
<filter id="filter0_d_862_64806" x="0" y="0" width="195.475" height="24.2015" filterUnits="userSpaceOnUse" color-interpolation-filters="sRGB">
<feFlood flood-opacity="0" result="BackgroundImageFix"/>
<feColorMatrix in="SourceAlpha" type="matrix" values="0 0 0 0 0 0 0 0 0 0 0 0 0 0 0 0 0 0 127 0" result="hardAlpha"/>
<feOffset dx="1.86166" dy="1.86166"/>
<feComposite in2="hardAlpha" operator="out"/>
<feColorMatrix type="matrix" values="0 0 0 0 0 0 0 0 0 0 0 0 0 0 0 0 0 0 1 0"/>
<feBlend mode="normal" in2="BackgroundImageFix" result="effect1_dropShadow_862_64806"/>
<feBlend mode="normal" in="SourceGraphic" in2="effect1_dropShadow_862_64806" result="shape"/>
</filter>
</defs>
</svg>
