<svg width="175" height="25" viewBox="0 0 175 25" fill="none" xmlns="http://www.w3.org/2000/svg">
<g filter="url(#filter0_d_862_64814)">
<rect width="173.134" height="22.3399" rx="11.1699" fill="#87BDEE" shape-rendering="crispEdges"/>
<path d="M21.1562 18.2578V12.3846H23.1111V10.4212H28.9929V6.50285H25.0746V8.46632H21.1562V6.50285H23.1111V4.548H30.9477V6.50285H32.9112V10.4212H30.9477V12.3846H25.0746V16.303H32.9112V18.2578H21.1562ZM34.1606 18.2578V4.548H38.0789V16.303H45.9156V18.2578H34.1606ZM55.0016 16.303V12.3846H51.0833V16.303H55.0016ZM55.0016 10.4212V6.50285H51.0833V10.4212H55.0016ZM47.1649 18.2578V4.548H56.9564V6.50285H58.9199V10.4212H56.9564V12.3846H58.9199V16.303H56.9564V18.2578H47.1649ZM62.1241 18.2578V16.303H60.1693V14.3395H64.0876V16.303H68.0059V12.3846H62.1241V10.4212H60.1693V6.50285H62.1241V4.548H69.9608V6.50285H71.9242V8.46632H68.0059V6.50285H64.0876V10.4212H69.9608V12.3846H71.9242V16.303H69.9608V18.2578H62.1241Z" fill="#16114F"/>
<path d="M12.0235 15.7486V12.5688H8.84375V9.37506H12.0235V6.19531H15.2172V9.37506H18.397V12.5688H15.2172V15.7486H12.0235Z" fill="#16114F"/>
<path d="M84.2821 12.3564C85.6169 12.3564 86.4882 11.5131 86.4882 10.2285C86.4882 8.944 85.6169 8.10067 84.2821 8.10067C82.9529 8.10067 82.0816 8.944 82.0816 10.2285C82.0816 11.5131 82.9529 12.3564 84.2821 12.3564ZM84.2821 11.5354C83.5281 11.5354 83.0366 11.016 83.0366 10.2285C83.0366 9.43548 83.5281 8.91608 84.2821 8.91608C85.0416 8.91608 85.5331 9.43548 85.5331 10.2285C85.5331 11.016 85.0416 11.5354 84.2821 11.5354ZM88.8653 12.3564C90.0046 12.3564 90.8033 11.6862 90.9262 10.6307L90.0326 10.5078C89.9376 11.1333 89.4852 11.5354 88.8765 11.5354C88.1393 11.5354 87.6701 11.0272 87.6645 10.2285C87.6645 9.42431 88.089 8.91608 88.7592 8.91608C89.2786 8.91608 89.6249 9.25118 89.7254 9.78733L90.5966 9.56952C90.457 8.67034 89.7366 8.10067 88.7592 8.10067C87.5026 8.10067 86.7095 8.92725 86.7095 10.2285C86.7095 11.5298 87.5472 12.3564 88.8653 12.3564ZM94.0691 12.2168V11.4517H92.1367V10.519H93.7899V9.84318H92.1367V8.99985H94.0133V8.2403H91.2152V12.2168H94.0691ZM95.1073 12.2168L95.3642 11.4349H96.8945L97.1514 12.2168H98.1511L96.7158 8.2403H95.5485L94.1076 12.2168H95.1073ZM96.1238 8.99427H96.135L96.7214 10.7591H95.5374L96.1238 8.99427ZM99.2758 12.2168V9.3908H99.287L100.907 12.2168H102.029V8.2403H101.124V11.0719H101.113L99.4936 8.2403H98.3766V12.2168H99.2758ZM104.6 12.2168V10.882H105.516C106.449 10.882 107.069 10.3514 107.069 9.55835C107.069 8.77087 106.455 8.2403 105.527 8.2403H103.651V12.2168H104.6ZM104.6 8.944H105.377C105.829 8.944 106.114 9.18974 106.114 9.55835C106.114 9.92696 105.823 10.1727 105.377 10.1727H104.6V8.944ZM109.982 12.2168V11.3958H108.328V8.2403H107.373V12.2168H109.982ZM110.982 12.2168L111.239 11.4349H112.769L113.026 12.2168H114.026L112.59 8.2403H111.423L109.982 12.2168H110.982ZM111.998 8.99427H112.01L112.596 10.7591H111.412L111.998 8.99427ZM115.735 12.3564C116.757 12.3564 117.472 11.8538 117.472 11.0216C117.472 10.3738 117.058 10.0051 116.154 9.85435L115.589 9.74824C115.176 9.67005 114.997 9.53601 114.997 9.29586C114.997 9.01102 115.243 8.80438 115.634 8.80438C116.02 8.80438 116.316 9.05012 116.366 9.43548L117.22 9.24559C117.12 8.55306 116.477 8.10067 115.645 8.10067C114.724 8.10067 114.059 8.60332 114.059 9.38522C114.059 10.0107 114.45 10.3626 115.327 10.5301L115.88 10.6363C116.349 10.7312 116.544 10.8764 116.544 11.1221C116.544 11.4293 116.248 11.6471 115.774 11.6471C115.243 11.6471 114.852 11.3344 114.796 10.8596L113.925 11.0216C114.015 11.8817 114.746 12.3564 115.735 12.3564ZM119.47 12.2168V9.0557H120.659V8.2403H117.325V9.0557H118.515V12.2168H119.47ZM121.893 12.2168V8.2403H120.938V12.2168H121.893ZM124.413 12.3564C125.553 12.3564 126.351 11.6862 126.474 10.6307L125.581 10.5078C125.486 11.1333 125.033 11.5354 124.425 11.5354C123.687 11.5354 123.218 11.0272 123.213 10.2285C123.213 9.42431 123.637 8.91608 124.307 8.91608C124.827 8.91608 125.173 9.25118 125.274 9.78733L126.145 9.56952C126.005 8.67034 125.285 8.10067 124.307 8.10067C123.051 8.10067 122.258 8.92725 122.258 10.2285C122.258 11.5298 123.095 12.3564 124.413 12.3564ZM130.855 12.3173C131.174 12.3173 131.47 12.1889 131.665 11.9934L131.464 11.541C131.392 11.636 131.286 11.703 131.185 11.703C131.068 11.703 130.995 11.608 130.962 11.4908L130.833 11.0216C130.766 10.7926 130.654 10.6363 130.448 10.5525V10.5469C131.04 10.4017 131.392 9.99398 131.392 9.46899C131.392 8.70944 130.805 8.2403 129.861 8.2403H127.884V12.2168H128.839V10.7144H129.448C129.677 10.7144 129.839 10.8932 129.906 11.1277L130.079 11.7086C130.191 12.0828 130.459 12.3173 130.855 12.3173ZM128.839 8.944H129.738C130.163 8.944 130.437 9.1674 130.437 9.5025C130.437 9.84318 130.163 10.061 129.738 10.061H128.839V8.944ZM134.744 12.2168V11.4517H132.812V10.519H134.465V9.84318H132.812V8.99985H134.688V8.2403H131.89V12.2168H134.744ZM139.154 12.3173C139.473 12.3173 139.769 12.1889 139.964 11.9934L139.763 11.541C139.69 11.636 139.584 11.703 139.484 11.703C139.366 11.703 139.294 11.608 139.26 11.4908L139.132 11.0216C139.065 10.7926 138.953 10.6363 138.746 10.5525V10.5469C139.338 10.4017 139.69 9.99398 139.69 9.46899C139.69 8.70944 139.104 8.2403 138.16 8.2403H136.183V12.2168H137.138V10.7144H137.747C137.976 10.7144 138.138 10.8932 138.205 11.1277L138.378 11.7086C138.49 12.0828 138.758 12.3173 139.154 12.3173ZM137.138 8.944H138.037C138.462 8.944 138.735 9.1674 138.735 9.5025C138.735 9.84318 138.462 10.061 138.037 10.061H137.138V8.944ZM143.043 12.2168V11.4517H141.111V10.519H142.764V9.84318H141.111V8.99985H142.987V8.2403H140.189V12.2168H143.043ZM144.232 12.2168V9.4299H144.243L145.382 12.2168H146.159L147.293 9.42431H147.304V12.2168H148.181V8.2403H146.946L145.779 11.1501H145.768L144.606 8.2403H143.361V12.2168H144.232ZM150.742 12.3564C152.077 12.3564 152.948 11.5131 152.948 10.2285C152.948 8.944 152.077 8.10067 150.742 8.10067C149.413 8.10067 148.542 8.944 148.542 10.2285C148.542 11.5131 149.413 12.3564 150.742 12.3564ZM150.742 11.5354C149.988 11.5354 149.497 11.016 149.497 10.2285C149.497 9.43548 149.988 8.91608 150.742 8.91608C151.502 8.91608 151.993 9.43548 151.993 10.2285C151.993 11.016 151.502 11.5354 150.742 11.5354ZM155.337 12.2168L156.789 8.2403H155.795L154.795 11.3735H154.784L153.779 8.2403H152.784L154.237 12.2168H155.337ZM159.864 12.2168V11.4517H157.931V10.519H159.585V9.84318H157.931V8.99985H159.808V8.2403H157.01V12.2168H159.864ZM161.818 12.2168C163.197 12.2168 163.968 11.5075 163.968 10.2285C163.968 8.94959 163.197 8.2403 161.818 8.2403H160.182V12.2168H161.818ZM161.109 8.99985H161.818C162.583 8.99985 163.013 9.43548 163.013 10.2285C163.013 11.016 162.583 11.4517 161.818 11.4517H161.109V8.99985Z" fill="#16114F"/>
<rect x="0.5" y="0.5" width="172.134" height="21.3399" rx="10.6699" stroke="black" shape-rendering="crispEdges"/>
</g>
<defs>
<filter id="filter0_d_862_64814" x="0" y="0" width="174.994" height="24.2015" filterUnits="userSpaceOnUse" color-interpolation-filters="sRGB">
<feFlood flood-opacity="0" result="BackgroundImageFix"/>
<feColorMatrix in="SourceAlpha" type="matrix" values="0 0 0 0 0 0 0 0 0 0 0 0 0 0 0 0 0 0 127 0" result="hardAlpha"/>
<feOffset dx="1.86166" dy="1.86166"/>
<feComposite in2="hardAlpha" operator="out"/>
<feColorMatrix type="matrix" values="0 0 0 0 0 0 0 0 0 0 0 0 0 0 0 0 0 0 1 0"/>
<feBlend mode="normal" in2="BackgroundImageFix" result="effect1_dropShadow_862_64814"/>
<feBlend mode="normal" in="SourceGraphic" in2="effect1_dropShadow_862_64814" result="shape"/>
</filter>
</defs>
</svg>
