<svg width="44" height="36" viewBox="0 0 44 36" fill="none" xmlns="http://www.w3.org/2000/svg">
<rect x="12.0391" y="2.91602" width="2.32728" height="2.32728" fill="#16114F"/>
<rect x="14.3711" y="2.91602" width="2.32728" height="2.32728" fill="#EA9E0A"/>
<rect x="9.71875" y="5.23828" width="2.32728" height="2.32728" fill="#16114F"/>
<rect x="12.0391" y="5.23828" width="2.32728" height="2.32728" fill="#EA9E0A"/>
<rect x="7.39062" y="7.57227" width="2.32728" height="2.32728" fill="#16114F"/>
<rect x="9.71875" y="7.57227" width="2.32728" height="2.32728" fill="#EA9E0A"/>
<rect x="5.05859" y="9.89453" width="2.32728" height="2.32728" fill="#16114F"/>
<rect x="7.39062" y="9.89453" width="2.32728" height="2.32728" fill="#EA9E0A"/>
<rect x="2.73438" y="12.2227" width="2.32728" height="2.32728" fill="#16114F"/>
<rect x="5.05859" y="12.2227" width="2.32728" height="2.32728" fill="#EA9E0A"/>
<rect x="0.40625" y="14.5488" width="2.32728" height="2.32728" fill="#16114F"/>
<rect x="2.73438" y="14.5488" width="2.32728" height="2.32728" fill="#EA9E0A"/>
<rect x="0.40625" y="16.877" width="2.32728" height="2.32728" fill="#16114F"/>
<rect x="2.73438" y="16.877" width="2.32728" height="2.32728" fill="#16114F"/>
<rect x="5.05859" y="16.877" width="2.32728" height="2.32728" fill="#16114F"/>
<rect x="5.05859" y="19.207" width="2.32728" height="2.32728" fill="#16114F"/>
<rect x="5.05859" y="21.5352" width="2.32728" height="2.32728" fill="#16114F"/>
<rect x="5.05859" y="23.8613" width="2.32728" height="2.32728" fill="#16114F"/>
<rect x="5.05859" y="26.1953" width="2.32728" height="2.32728" fill="#16114F"/>
<rect x="5.05859" y="28.5156" width="2.32728" height="2.32728" fill="#16114F"/>
<rect x="5.05859" y="30.8398" width="2.32728" height="2.32728" fill="#16114F"/>
<rect x="5.05859" y="33.1719" width="2.32728" height="2.32728" fill="#16114F"/>
<rect x="7.39062" y="33.1719" width="2.32728" height="2.32728" fill="#16114F"/>
<rect x="7.39062" y="30.8398" width="2.32728" height="2.32728" fill="white"/>
<rect x="7.39062" y="28.5156" width="2.32728" height="2.32728" fill="#FFDD1A"/>
<rect x="7.39062" y="26.1953" width="2.32728" height="2.32728" fill="#FFDD1A"/>
<rect x="7.39062" y="23.8613" width="2.32728" height="2.32728" fill="#FFDD1A"/>
<rect x="7.39062" y="21.5352" width="2.32728" height="2.32728" fill="#FFDD1A"/>
<rect x="7.39062" y="19.207" width="2.32728" height="2.32728" fill="#FFDD1A"/>
<rect x="7.39062" y="16.877" width="2.32728" height="2.32728" fill="#FFDD1A"/>
<rect x="7.39062" y="14.5488" width="2.32728" height="2.32728" fill="#FFDD1A"/>
<rect x="7.39062" y="12.2227" width="2.32728" height="2.32728" fill="#FFDD1A"/>
<rect x="5.05859" y="14.5488" width="2.32728" height="2.32728" fill="#FFDD1A"/>
<rect x="9.71875" y="33.1719" width="2.32728" height="2.32728" fill="#16114F"/>
<rect x="9.71875" y="30.8398" width="2.32728" height="2.32728" fill="white"/>
<rect x="9.71875" y="28.5156" width="2.32728" height="2.32728" fill="#FFDD1A"/>
<rect x="9.71875" y="26.1953" width="2.32728" height="2.32728" fill="#FFDD1A"/>
<rect x="9.71875" y="23.8613" width="2.32728" height="2.32728" fill="#FFDD1A"/>
<rect x="9.71875" y="21.5352" width="2.32728" height="2.32728" fill="#FFDD1A"/>
<rect x="9.71875" y="19.207" width="2.32728" height="2.32728" fill="#FFDD1A"/>
<rect x="9.71875" y="16.877" width="2.32728" height="2.32728" fill="#FFDD1A"/>
<rect x="9.71875" y="14.5488" width="2.32728" height="2.32728" fill="#FFDD1A"/>
<rect x="9.71875" y="12.2227" width="2.32728" height="2.32728" fill="#FFDD1A"/>
<rect x="9.71875" y="12.2227" width="2.32728" height="2.32728" fill="#FFDD1A"/>
<rect x="9.71875" y="9.89453" width="2.32728" height="2.32728" fill="#FFDD1A"/>
<rect x="12.0391" y="33.1719" width="2.32728" height="2.32728" fill="#16114F"/>
<rect x="12.0391" y="30.8398" width="2.32728" height="2.32728" fill="white"/>
<rect x="12.0391" y="28.5156" width="2.32728" height="2.32728" fill="#FFDD1A"/>
<rect x="12.0391" y="26.1953" width="2.32728" height="2.32728" fill="#FFDD1A"/>
<rect x="12.0391" y="23.8613" width="2.32728" height="2.32728" fill="#FFDD1A"/>
<rect x="12.0391" y="21.5352" width="2.32728" height="2.32728" fill="#FFDD1A"/>
<rect x="12.0391" y="19.207" width="2.32728" height="2.32728" fill="#FFDD1A"/>
<rect x="12.0391" y="16.877" width="2.32728" height="2.32728" fill="#FFDD1A"/>
<rect x="12.0391" y="14.5488" width="2.32728" height="2.32728" fill="#FFDD1A"/>
<rect x="12.0391" y="12.2227" width="2.32728" height="2.32728" fill="#FFDD1A"/>
<rect x="12.0391" y="12.2227" width="2.32728" height="2.32728" fill="#FFDD1A"/>
<rect x="12.0391" y="9.89453" width="2.32728" height="2.32728" fill="#FFDD1A"/>
<rect x="12.0391" y="7.57227" width="2.32728" height="2.32728" fill="#FFDD1A"/>
<rect x="14.3711" y="33.1719" width="2.32728" height="2.32728" fill="#16114F"/>
<rect x="14.3711" y="30.8398" width="2.32728" height="2.32728" fill="white"/>
<rect x="14.3711" y="28.5156" width="2.32728" height="2.32728" fill="#FFDD1A"/>
<rect x="14.3711" y="26.1953" width="2.32728" height="2.32728" fill="#FFDD1A"/>
<rect x="14.3711" y="23.8613" width="2.32728" height="2.32728" fill="#FFDD1A"/>
<rect x="14.3711" y="21.5352" width="2.32728" height="2.32728" fill="#FFDD1A"/>
<rect x="14.3711" y="19.207" width="2.32728" height="2.32728" fill="#FFDD1A"/>
<rect x="14.3711" y="16.877" width="2.32728" height="2.32728" fill="#FFDD1A"/>
<rect x="14.3711" y="14.5488" width="2.32728" height="2.32728" fill="#FFDD1A"/>
<rect x="14.3711" y="12.2227" width="2.32728" height="2.32728" fill="#FFDD1A"/>
<rect x="14.3711" y="12.2227" width="2.32728" height="2.32728" fill="#FFDD1A"/>
<rect x="14.3711" y="9.89453" width="2.32728" height="2.32728" fill="#FFDD1A"/>
<rect x="14.3711" y="7.57227" width="2.32728" height="2.32728" fill="#FFDD1A"/>
<rect x="14.3711" y="5.23828" width="2.32728" height="2.32728" fill="#FFDD1A"/>
<rect x="16.7109" y="33.1719" width="2.32728" height="2.32728" fill="#16114F"/>
<rect x="16.7109" y="30.8398" width="2.32728" height="2.32728" fill="white"/>
<rect x="16.7109" y="28.5156" width="2.32728" height="2.32728" fill="#FFDD1A"/>
<rect x="16.7109" y="26.1934" width="2.32728" height="2.32728" fill="#FFDD1A"/>
<rect x="16.7109" y="23.8613" width="2.32728" height="2.32728" fill="#FFDD1A"/>
<rect x="16.7109" y="21.5352" width="2.32728" height="2.32728" fill="#FFDD1A"/>
<rect x="16.7109" y="19.207" width="2.32728" height="2.32728" fill="#FFDD1A"/>
<rect x="16.7109" y="16.877" width="2.32728" height="2.32728" fill="#FFDD1A"/>
<rect x="16.7109" y="14.5488" width="2.32728" height="2.32728" fill="#FFDD1A"/>
<rect x="16.7109" y="12.2227" width="2.32728" height="2.32728" fill="#FFDD1A"/>
<rect x="16.7109" y="12.2227" width="2.32728" height="2.32728" fill="#FFDD1A"/>
<rect x="16.7109" y="9.89453" width="2.32728" height="2.32728" fill="#FFDD1A"/>
<rect x="16.7109" y="7.57227" width="2.32728" height="2.32728" fill="#FFDD1A"/>
<rect x="16.7109" y="5.23828" width="2.32728" height="2.32728" fill="#FFDD1A"/>
<rect x="19.0078" y="33.1719" width="2.32728" height="2.32728" fill="#16114F"/>
<rect x="19.0078" y="30.8398" width="2.32728" height="2.32728" fill="white"/>
<rect x="19.0078" y="28.5156" width="2.32728" height="2.32728" fill="#FFDD1A"/>
<rect x="19.0078" y="26.1953" width="2.32728" height="2.32728" fill="#FFDD1A"/>
<rect x="19.0078" y="23.8613" width="2.32728" height="2.32728" fill="#FFDD1A"/>
<rect x="19.0078" y="21.5352" width="2.32728" height="2.32728" fill="#FFDD1A"/>
<rect x="19.0078" y="19.207" width="2.32728" height="2.32728" fill="#FFDD1A"/>
<rect x="19.0078" y="16.877" width="2.32728" height="2.32728" fill="#FFDD1A"/>
<rect x="19.0078" y="14.5488" width="2.32728" height="2.32728" fill="#FFDD1A"/>
<rect x="19.0078" y="12.2227" width="2.32728" height="2.32728" fill="#FFDD1A"/>
<rect x="19.0078" y="12.2227" width="2.32728" height="2.32728" fill="#FFDD1A"/>
<rect x="19.0078" y="9.89453" width="2.32728" height="2.32728" fill="#FFDD1A"/>
<rect x="19.0078" y="7.57227" width="2.32728" height="2.32728" fill="#FFDD1A"/>
<rect x="21.3516" y="33.1719" width="2.32728" height="2.32728" fill="#16114F"/>
<rect x="21.3516" y="30.8398" width="2.32728" height="2.32728" fill="white"/>
<rect x="21.3516" y="28.5156" width="2.32728" height="2.32728" fill="#FFDD1A"/>
<rect x="21.3516" y="26.1953" width="2.32728" height="2.32728" fill="#FFDD1A"/>
<rect x="21.3516" y="23.8613" width="2.32728" height="2.32728" fill="#FFDD1A"/>
<rect x="21.3516" y="21.5352" width="2.32728" height="2.32728" fill="#FFDD1A"/>
<rect x="21.3516" y="19.207" width="2.32728" height="2.32728" fill="#FFDD1A"/>
<rect x="21.3516" y="16.877" width="2.32728" height="2.32728" fill="#FFDD1A"/>
<rect x="21.3516" y="14.5488" width="2.32728" height="2.32728" fill="#FFDD1A"/>
<rect x="21.3516" y="12.2227" width="2.32728" height="2.32728" fill="#FFDD1A"/>
<rect x="21.3516" y="12.2227" width="2.32728" height="2.32728" fill="#FFDD1A"/>
<rect x="21.3516" y="9.89453" width="2.32728" height="2.32728" fill="#FFDD1A"/>
<rect x="23.6797" y="33.1719" width="2.32728" height="2.32728" fill="#16114F"/>
<rect x="23.6797" y="30.8398" width="2.32728" height="2.32728" fill="white"/>
<rect x="23.6797" y="28.5156" width="2.32728" height="2.32728" fill="#FFDD1A"/>
<rect x="23.6797" y="26.1953" width="2.32728" height="2.32728" fill="#FFDD1A"/>
<rect x="23.6797" y="23.8613" width="2.32728" height="2.32728" fill="#FFDD1A"/>
<rect x="23.6797" y="21.5352" width="2.32728" height="2.32728" fill="#FFDD1A"/>
<rect x="23.6797" y="19.207" width="2.32728" height="2.32728" fill="#FFDD1A"/>
<rect x="23.6797" y="16.877" width="2.32728" height="2.32728" fill="#FFDD1A"/>
<rect x="23.6797" y="14.5488" width="2.32728" height="2.32728" fill="#FFDD1A"/>
<rect x="23.6797" y="12.2227" width="2.32728" height="2.32728" fill="#FFDD1A"/>
<rect x="26" y="14.5488" width="2.32728" height="2.32728" fill="#FFDD1A"/>
<rect x="26" y="9.89453" width="2.32728" height="2.32728" fill="#16114F"/>
<rect x="23.6797" y="9.89453" width="2.32728" height="2.32728" fill="#EA9E0A"/>
<rect x="28.3359" y="12.2227" width="2.32728" height="2.32728" fill="#16114F"/>
<rect x="26" y="12.2227" width="2.32728" height="2.32728" fill="#EA9E0A"/>
<rect x="30.6641" y="14.5488" width="2.32728" height="2.32728" fill="#16114F"/>
<rect x="28.3359" y="14.5488" width="2.32728" height="2.32728" fill="#EA9E0A"/>
<rect x="30.6641" y="16.877" width="2.32728" height="2.32728" fill="#16114F"/>
<rect x="28.3359" y="16.877" width="2.32728" height="2.32728" fill="#16114F"/>
<rect x="26" y="16.877" width="2.32728" height="2.32728" fill="#16114F"/>
<rect x="26" y="19.207" width="2.32728" height="2.32728" fill="#16114F"/>
<rect x="26" y="21.5352" width="2.32728" height="2.32728" fill="#16114F"/>
<rect x="26" y="23.8613" width="2.32728" height="2.32728" fill="#16114F"/>
<rect x="26" y="26.1953" width="2.32728" height="2.32728" fill="#16114F"/>
<rect x="26" y="28.5156" width="2.32728" height="2.32728" fill="#16114F"/>
<rect x="26" y="30.8398" width="2.32728" height="2.32728" fill="#16114F"/>
<rect x="26" y="33.1719" width="2.32728" height="2.32728" fill="#16114F"/>
<rect x="21.3516" y="5.23828" width="2.32728" height="2.32728" fill="#16114F"/>
<rect x="19.0078" y="5.23828" width="2.32728" height="2.32728" fill="#EA9E0A"/>
<rect x="23.6797" y="7.57227" width="2.32728" height="2.32728" fill="#16114F"/>
<rect x="21.3516" y="7.57227" width="2.32728" height="2.32728" fill="#EA9E0A"/>
<rect x="19.0078" y="2.91602" width="2.32728" height="2.32728" fill="#16114F"/>
<rect x="16.7109" y="2.91602" width="2.32728" height="2.32728" fill="#EA9E0A"/>
<rect x="14.3711" y="0.587891" width="2.32728" height="2.32728" fill="#16114F"/>
<rect x="16.7109" y="0.587891" width="2.32728" height="2.32728" fill="#16114F"/>
<rect x="22.3359" y="2.91602" width="2.32728" height="2.32728" fill="#16114F"/>
<rect x="24.668" y="2.91602" width="2.32728" height="2.32728" fill="#EA9E0A"/>
<rect x="20.0156" y="5.23828" width="2.32728" height="2.32728" fill="#16114F"/>
<rect x="22.3359" y="5.23828" width="2.32728" height="2.32728" fill="#EA9E0A"/>
<rect x="17.6875" y="7.57227" width="2.32728" height="2.32728" fill="#16114F"/>
<rect x="20.0156" y="7.57227" width="2.32728" height="2.32728" fill="#EA9E0A"/>
<rect x="15.3555" y="9.89453" width="2.32728" height="2.32728" fill="#16114F"/>
<rect x="17.6875" y="9.89453" width="2.32728" height="2.32728" fill="#EA9E0A"/>
<rect x="13.0312" y="12.2227" width="2.32728" height="2.32728" fill="#16114F"/>
<rect x="15.3555" y="12.2227" width="2.32728" height="2.32728" fill="#EA9E0A"/>
<rect x="10.7031" y="14.5488" width="2.32728" height="2.32728" fill="#16114F"/>
<rect x="13.0312" y="14.5488" width="2.32728" height="2.32728" fill="#EA9E0A"/>
<rect x="10.7031" y="16.877" width="2.32728" height="2.32728" fill="#16114F"/>
<rect x="13.0312" y="16.877" width="2.32728" height="2.32728" fill="#16114F"/>
<rect x="15.3555" y="16.877" width="2.32728" height="2.32728" fill="#16114F"/>
<rect x="15.3555" y="19.207" width="2.32728" height="2.32728" fill="#16114F"/>
<rect x="15.3555" y="21.5352" width="2.32728" height="2.32728" fill="#16114F"/>
<rect x="15.3555" y="23.8613" width="2.32728" height="2.32728" fill="#16114F"/>
<rect x="15.3555" y="26.1953" width="2.32728" height="2.32728" fill="#16114F"/>
<rect x="15.3555" y="28.5156" width="2.32728" height="2.32728" fill="#16114F"/>
<rect x="15.3555" y="30.8398" width="2.32728" height="2.32728" fill="#16114F"/>
<rect x="15.3555" y="33.1719" width="2.32728" height="2.32728" fill="#16114F"/>
<rect x="17.6875" y="33.1719" width="2.32728" height="2.32728" fill="#16114F"/>
<rect x="17.6875" y="30.8398" width="2.32728" height="2.32728" fill="white"/>
<rect x="17.6875" y="28.5156" width="2.32728" height="2.32728" fill="#FFDD1A"/>
<rect x="17.6875" y="26.1953" width="2.32728" height="2.32728" fill="#FFDD1A"/>
<rect x="17.6875" y="23.8613" width="2.32728" height="2.32728" fill="#FFDD1A"/>
<rect x="17.6875" y="21.5352" width="2.32728" height="2.32728" fill="#FFDD1A"/>
<rect x="17.6875" y="19.207" width="2.32728" height="2.32728" fill="#FFDD1A"/>
<rect x="17.6875" y="16.877" width="2.32728" height="2.32728" fill="#FFDD1A"/>
<rect x="17.6875" y="14.5488" width="2.32728" height="2.32728" fill="#FFDD1A"/>
<rect x="17.6875" y="12.2227" width="2.32728" height="2.32728" fill="#FFDD1A"/>
<rect x="15.3555" y="14.5488" width="2.32728" height="2.32728" fill="#FFDD1A"/>
<rect x="20.0156" y="33.1719" width="2.32728" height="2.32728" fill="#16114F"/>
<rect x="20.0156" y="30.8398" width="2.32728" height="2.32728" fill="white"/>
<rect x="20.0156" y="28.5156" width="2.32728" height="2.32728" fill="#FFDD1A"/>
<rect x="20.0156" y="26.1953" width="2.32728" height="2.32728" fill="#FFDD1A"/>
<rect x="20.0156" y="23.8613" width="2.32728" height="2.32728" fill="#FFDD1A"/>
<rect x="20.0156" y="21.5352" width="2.32728" height="2.32728" fill="#FFDD1A"/>
<rect x="20.0156" y="19.207" width="2.32728" height="2.32728" fill="#FFDD1A"/>
<rect x="20.0156" y="16.877" width="2.32728" height="2.32728" fill="#FFDD1A"/>
<rect x="20.0156" y="14.5488" width="2.32728" height="2.32728" fill="#FFDD1A"/>
<rect x="20.0156" y="12.2227" width="2.32728" height="2.32728" fill="#FFDD1A"/>
<rect x="20.0156" y="12.2227" width="2.32728" height="2.32728" fill="#FFDD1A"/>
<rect x="20.0156" y="9.89453" width="2.32728" height="2.32728" fill="#FFDD1A"/>
<rect x="22.3359" y="33.1719" width="2.32728" height="2.32728" fill="#16114F"/>
<rect x="22.3359" y="30.8398" width="2.32728" height="2.32728" fill="white"/>
<rect x="22.3359" y="28.5156" width="2.32728" height="2.32728" fill="#FFDD1A"/>
<rect x="22.3359" y="26.1953" width="2.32728" height="2.32728" fill="#FFDD1A"/>
<rect x="22.3359" y="23.8613" width="2.32728" height="2.32728" fill="#FFDD1A"/>
<rect x="22.3359" y="21.5352" width="2.32728" height="2.32728" fill="#FFDD1A"/>
<rect x="22.3359" y="19.207" width="2.32728" height="2.32728" fill="#FFDD1A"/>
<rect x="22.3359" y="16.877" width="2.32728" height="2.32728" fill="#FFDD1A"/>
<rect x="22.3359" y="14.5488" width="2.32728" height="2.32728" fill="#FFDD1A"/>
<rect x="22.3359" y="12.2227" width="2.32728" height="2.32728" fill="#FFDD1A"/>
<rect x="22.3359" y="12.2227" width="2.32728" height="2.32728" fill="#FFDD1A"/>
<rect x="22.3359" y="9.89453" width="2.32728" height="2.32728" fill="#FFDD1A"/>
<rect x="22.3359" y="7.57227" width="2.32728" height="2.32728" fill="#FFDD1A"/>
<rect x="24.668" y="33.1719" width="2.32728" height="2.32728" fill="#16114F"/>
<rect x="24.668" y="30.8398" width="2.32728" height="2.32728" fill="white"/>
<rect x="24.668" y="28.5156" width="2.32728" height="2.32728" fill="#FFDD1A"/>
<rect x="24.668" y="26.1953" width="2.32728" height="2.32728" fill="#FFDD1A"/>
<rect x="24.668" y="23.8613" width="2.32728" height="2.32728" fill="#FFDD1A"/>
<rect x="24.668" y="21.5352" width="2.32728" height="2.32728" fill="#FFDD1A"/>
<rect x="24.668" y="19.207" width="2.32728" height="2.32728" fill="#FFDD1A"/>
<rect x="24.668" y="16.877" width="2.32728" height="2.32728" fill="#FFDD1A"/>
<rect x="24.668" y="14.5488" width="2.32728" height="2.32728" fill="#FFDD1A"/>
<rect x="24.668" y="12.2227" width="2.32728" height="2.32728" fill="#FFDD1A"/>
<rect x="24.668" y="12.2227" width="2.32728" height="2.32728" fill="#FFDD1A"/>
<rect x="24.668" y="9.89453" width="2.32728" height="2.32728" fill="#FFDD1A"/>
<rect x="24.668" y="7.57227" width="2.32728" height="2.32728" fill="#FFDD1A"/>
<rect x="24.668" y="5.23828" width="2.32728" height="2.32728" fill="#FFDD1A"/>
<rect x="27.0078" y="33.1719" width="2.32728" height="2.32728" fill="#16114F"/>
<rect x="27.0078" y="30.8398" width="2.32728" height="2.32728" fill="white"/>
<rect x="27.0078" y="28.5156" width="2.32728" height="2.32728" fill="#FFDD1A"/>
<rect x="27.0078" y="26.1934" width="2.32728" height="2.32728" fill="#FFDD1A"/>
<rect x="27.0078" y="23.8613" width="2.32728" height="2.32728" fill="#FFDD1A"/>
<rect x="27.0078" y="21.5352" width="2.32728" height="2.32728" fill="#FFDD1A"/>
<rect x="27.0078" y="19.207" width="2.32728" height="2.32728" fill="#FFDD1A"/>
<rect x="27.0078" y="16.877" width="2.32728" height="2.32728" fill="#FFDD1A"/>
<rect x="27.0078" y="14.5488" width="2.32728" height="2.32728" fill="#FFDD1A"/>
<rect x="27.0078" y="12.2227" width="2.32728" height="2.32728" fill="#FFDD1A"/>
<rect x="27.0078" y="12.2227" width="2.32728" height="2.32728" fill="#FFDD1A"/>
<rect x="27.0078" y="9.89453" width="2.32728" height="2.32728" fill="#FFDD1A"/>
<rect x="27.0078" y="7.57227" width="2.32728" height="2.32728" fill="#FFDD1A"/>
<rect x="27.0078" y="5.23828" width="2.32728" height="2.32728" fill="#FFDD1A"/>
<rect x="29.3047" y="33.1719" width="2.32728" height="2.32728" fill="#16114F"/>
<rect x="29.3047" y="30.8398" width="2.32728" height="2.32728" fill="white"/>
<rect x="29.3047" y="28.5156" width="2.32728" height="2.32728" fill="#FFDD1A"/>
<rect x="29.3047" y="26.1953" width="2.32728" height="2.32728" fill="#FFDD1A"/>
<rect x="29.3047" y="23.8613" width="2.32728" height="2.32728" fill="#FFDD1A"/>
<rect x="29.3047" y="21.5352" width="2.32728" height="2.32728" fill="#FFDD1A"/>
<rect x="29.3047" y="19.207" width="2.32728" height="2.32728" fill="#FFDD1A"/>
<rect x="29.3047" y="16.877" width="2.32728" height="2.32728" fill="#FFDD1A"/>
<rect x="29.3047" y="14.5488" width="2.32728" height="2.32728" fill="#FFDD1A"/>
<rect x="29.3047" y="12.2227" width="2.32728" height="2.32728" fill="#FFDD1A"/>
<rect x="29.3047" y="12.2227" width="2.32728" height="2.32728" fill="#FFDD1A"/>
<rect x="29.3047" y="9.89453" width="2.32728" height="2.32728" fill="#FFDD1A"/>
<rect x="29.3047" y="7.57227" width="2.32728" height="2.32728" fill="#FFDD1A"/>
<rect x="31.6484" y="33.1719" width="2.32728" height="2.32728" fill="#16114F"/>
<rect x="31.6484" y="30.8398" width="2.32728" height="2.32728" fill="white"/>
<rect x="31.6484" y="28.5156" width="2.32728" height="2.32728" fill="#FFDD1A"/>
<rect x="31.6484" y="26.1953" width="2.32728" height="2.32728" fill="#FFDD1A"/>
<rect x="31.6484" y="23.8613" width="2.32728" height="2.32728" fill="#FFDD1A"/>
<rect x="31.6484" y="21.5352" width="2.32728" height="2.32728" fill="#FFDD1A"/>
<rect x="31.6484" y="19.207" width="2.32728" height="2.32728" fill="#FFDD1A"/>
<rect x="31.6484" y="16.877" width="2.32728" height="2.32728" fill="#FFDD1A"/>
<rect x="31.6484" y="14.5488" width="2.32728" height="2.32728" fill="#FFDD1A"/>
<rect x="31.6484" y="12.2227" width="2.32728" height="2.32728" fill="#FFDD1A"/>
<rect x="31.6484" y="12.2227" width="2.32728" height="2.32728" fill="#FFDD1A"/>
<rect x="31.6484" y="9.89453" width="2.32728" height="2.32728" fill="#FFDD1A"/>
<rect x="33.9766" y="33.1719" width="2.32728" height="2.32728" fill="#16114F"/>
<rect x="33.9766" y="30.8398" width="2.32728" height="2.32728" fill="white"/>
<rect x="33.9766" y="28.5156" width="2.32728" height="2.32728" fill="#FFDD1A"/>
<rect x="33.9766" y="26.1953" width="2.32728" height="2.32728" fill="#FFDD1A"/>
<rect x="33.9766" y="23.8613" width="2.32728" height="2.32728" fill="#FFDD1A"/>
<rect x="33.9766" y="21.5352" width="2.32728" height="2.32728" fill="#FFDD1A"/>
<rect x="33.9766" y="19.207" width="2.32728" height="2.32728" fill="#FFDD1A"/>
<rect x="33.9766" y="16.877" width="2.32728" height="2.32728" fill="#FFDD1A"/>
<rect x="33.9766" y="14.5488" width="2.32728" height="2.32728" fill="#FFDD1A"/>
<rect x="33.9766" y="12.2227" width="2.32728" height="2.32728" fill="#FFDD1A"/>
<rect x="36.2969" y="14.5488" width="2.32728" height="2.32728" fill="#FFDD1A"/>
<rect x="36.2969" y="9.89453" width="2.32728" height="2.32728" fill="#16114F"/>
<rect x="33.9766" y="9.89453" width="2.32728" height="2.32728" fill="#EA9E0A"/>
<rect x="38.6328" y="12.2227" width="2.32728" height="2.32728" fill="#16114F"/>
<rect x="36.2969" y="12.2227" width="2.32728" height="2.32728" fill="#EA9E0A"/>
<rect x="40.9609" y="14.5488" width="2.32728" height="2.32728" fill="#16114F"/>
<rect x="38.6328" y="14.5488" width="2.32728" height="2.32728" fill="#EA9E0A"/>
<rect x="40.9609" y="16.877" width="2.32728" height="2.32728" fill="#16114F"/>
<rect x="38.6328" y="16.877" width="2.32728" height="2.32728" fill="#16114F"/>
<rect x="36.2969" y="16.877" width="2.32728" height="2.32728" fill="#16114F"/>
<rect x="36.2969" y="19.207" width="2.32728" height="2.32728" fill="#16114F"/>
<rect x="36.2969" y="21.5352" width="2.32728" height="2.32728" fill="#16114F"/>
<rect x="36.2969" y="23.8613" width="2.32728" height="2.32728" fill="#16114F"/>
<rect x="36.2969" y="26.1953" width="2.32728" height="2.32728" fill="#16114F"/>
<rect x="36.2969" y="28.5156" width="2.32728" height="2.32728" fill="#16114F"/>
<rect x="36.2969" y="30.8398" width="2.32728" height="2.32728" fill="#16114F"/>
<rect x="36.2969" y="33.1719" width="2.32728" height="2.32728" fill="#16114F"/>
<rect x="31.6484" y="5.23828" width="2.32728" height="2.32728" fill="#16114F"/>
<rect x="29.3047" y="5.23828" width="2.32728" height="2.32728" fill="#EA9E0A"/>
<rect x="33.9766" y="7.57227" width="2.32728" height="2.32728" fill="#16114F"/>
<rect x="31.6484" y="7.57227" width="2.32728" height="2.32728" fill="#EA9E0A"/>
<rect x="29.3047" y="2.91602" width="2.32728" height="2.32728" fill="#16114F"/>
<rect x="27.0078" y="2.91602" width="2.32728" height="2.32728" fill="#EA9E0A"/>
<rect x="24.668" y="0.587891" width="2.32728" height="2.32728" fill="#16114F"/>
<rect x="27.0078" y="0.587891" width="2.32728" height="2.32728" fill="#16114F"/>
</svg>
