<svg width="1380" height="860" viewBox="0 0 1380 860" fill="none" xmlns="http://www.w3.org/2000/svg">
<path d="M1439.07 -231.632H0V901.347H1439.07V-231.632Z" fill="#BBF2FF"/>
<path d="M1439.08 640.422V29.2744H1428.69V78.6992H1409.32V29.2744H1378.01V61.6607H1327.34V111.085H1282.63V29.2744H1246.85V76.9997H1197.67V29.2744H1163.39V73.592H1121.66V29.2744H1072.48V49.7294H1003.91V29.2744H962.184V88.9223H921.937V29.2744H890.64V61.6607H832.509V100.854H777.366V46.3217H740.108V75.2915H707.312V41.2057H661.112V82.1069H592.549V29.2744H537.406V54.8453H491.198V29.2744H449.468V53.1371H386.866V95.7465H346.627V29.2744H310.859V65.0684H260.18V29.2744H234.844V51.4289H157.338V105.97H121.571V29.2744H67.9188V59.9525H0V640.422H1439.08Z" fill="#D1F6FF"/>
<path d="M1439.08 901.343V290.196H1428.69V339.621H1409.32V290.196H1378.01V322.574H1327.34V371.999H1282.63V290.196H1246.85V337.922H1197.67V290.196H1163.39V334.505H1121.66V290.196H1072.48V310.651H1003.91V290.196H962.184V349.844H921.937V290.196H890.64V322.574H832.509V361.776H777.366V307.244H740.108V336.213H707.312V302.128H661.112V343.029H592.549V290.196H537.406V315.758H491.198V290.196H449.468V314.05H386.866V356.66H346.627V290.196H310.859V325.982H260.18V290.196H234.844V312.351H157.338V366.891H121.571V290.196H67.9188V320.874H0V901.343H1439.08Z" fill="url(#paint0_linear_802_191995)"/>
<g opacity="0.5">
<path d="M304.852 649.144V665.335H321.043V681.539H304.852V697.73H321.043H337.234H353.425V713.921H369.616V730.112H385.807V713.921V697.73H369.616V681.539H353.425H337.234V665.335V649.144H323.683H321.043V639.8V632.953H304.852H288.648V649.144H304.852Z" fill="#4CA056"/>
<path d="M207.691 600.558H223.882V616.743H240.073V632.94V649.131H223.882V665.322H207.691V681.526H223.882H240.073V697.717H256.264V713.908H272.455V730.099H256.264V746.29H240.073V762.481H256.264H272.455V778.678V794.863V811.06H256.264V827.264H240.073H223.882H207.691V843.448H223.882H240.073V859.646H256.264V875.837H272.455H288.646V859.646H304.85V843.448H321.041H337.232H353.423V827.264H369.614V811.06V794.863V778.678V762.481H353.423V746.29H337.232H321.041H304.85V762.481H321.041V778.678H337.232V794.863V811.06H321.041V827.264H304.85H288.646V811.06V794.863V778.678V762.481V746.29V730.099V713.908V697.717H272.455V681.526H256.264V665.322V649.131H272.455V632.94H256.264V616.743V600.558H240.073V584.367H223.882H207.691H191.5V600.558H207.691Z" fill="#4CA056"/>
<path d="M110.526 632.91V649.101V665.292V681.496H94.3346V697.687H78.1436H61.9527V713.878H78.1436H94.3346H110.526H126.717V730.069H142.92V746.26H159.111V762.451V778.648V794.833H142.92H126.717V811.03H110.526V794.833H94.3346H78.1436V778.648H61.9527V794.833H45.7617V811.03V827.234H61.9527H78.1436V843.419H94.3346H110.526H126.717H142.92H159.111V827.234V811.03H175.309H191.5H207.691V794.833V778.648V762.451V746.26V730.069V713.878H191.5V697.687H175.309H159.111V681.496H142.92H126.717V665.292V649.101V632.91V616.713H110.526H94.3346V632.91H110.526Z" fill="#4CA056"/>
<path d="M369.616 713.929H353.425V697.738H337.234H321.043H304.852H288.648V713.929V730.12V746.311V762.502V778.7V794.884V811.081V827.285H304.852H321.043V811.081H337.234V794.884V778.7H321.043V762.502H304.852V746.311H321.043H337.234H353.425V762.502H369.616V778.7H385.807V762.502V746.311V730.12H369.616V713.929Z" fill="#95C35B"/>
<path d="M321.043 665.339H304.852V649.148H288.648V665.339V681.543H304.852H321.043V665.339Z" fill="#95C35B"/>
<path d="M304.852 859.648H288.648V875.839H304.852V859.648Z" fill="#95C35B"/>
<path d="M223.882 730.114H240.073V746.305H256.264V730.114H272.455V713.923H256.264V697.732H240.073V681.541H223.882H207.691V697.732H191.5V713.923H207.691H223.882V730.114Z" fill="#95C35B"/>
<path d="M175.312 827.256V843.44V859.638H191.503V875.829H207.694H223.885V892.02H240.076V875.829H256.267V859.638H240.076V843.44H223.885H207.694V827.256H191.503H175.312Z" fill="#95C35B"/>
<path d="M223.886 811.05V827.253H240.077H256.268V811.05H272.459V794.852V778.668V762.47H256.268H240.077V746.279H223.886H207.695V762.47V778.668V794.852H223.886V811.05Z" fill="#95C35B"/>
<path d="M159.113 600.558V616.743H142.922V632.94H159.113H175.31V649.131V665.322V681.526H191.501H207.692V665.322H223.883V649.131H240.074V632.94V616.743H223.883V600.558H207.692H191.501V584.367H175.31V600.558H159.113Z" fill="#95C35B"/>
<path d="M159.111 843.44H142.92H126.717H110.526H94.3346H78.1436V827.256H61.9527H45.7617V843.44H61.9527V859.638H78.1436H94.3346H110.526H126.717H142.92V875.829H159.111V859.638V843.44Z" fill="#95C35B"/>
<path d="M94.3316 730.078H78.1406V746.269V762.46H94.3316V778.657H110.523H126.714V794.842H142.917H159.108V778.657V762.46V746.269H142.917V730.078H126.714V713.887H110.523V730.078H94.3316Z" fill="#95C35B"/>
<path d="M61.9518 794.876V778.691V762.494V746.303V730.112V713.921V697.73H78.1427H94.3337V681.539H110.525V665.335V649.144V632.953H94.3337V649.144H78.1427H61.9518V665.335V681.539H45.7608V697.73H29.5699V713.921H13.3789V730.112V746.303V762.494H29.5699V778.691V794.876V811.073H45.7608V794.876H61.9518Z" fill="#95C35B"/>
<path d="M369.616 794.854V811.052V827.256H353.425V843.44H337.234H321.043H304.852V859.638V875.829H288.648V892.02H304.852H321.043V875.829H337.234V859.638H353.425H369.616V843.44H385.807V827.256H401.998V811.052V794.854V778.67H385.807H369.616V794.854Z" fill="#B8C64F"/>
<path d="M256.27 649.144V665.335V681.539H272.461V697.73H288.651H304.855V681.539H288.651V665.335V649.144V632.953H272.461V649.144H256.27Z" fill="#B8C64F"/>
<path d="M191.506 875.839V859.648H175.315V843.451V827.267H191.506H207.697H223.887V811.063V794.865H207.697V811.063H191.506H175.315H159.117V827.267V843.451V859.648V875.839H175.315H191.506Z" fill="#B8C64F"/>
<path d="M240.077 746.269V730.078H223.886V713.887H207.695V730.078V746.269H223.886H240.077Z" fill="#B8C64F"/>
<path d="M126.715 649.131V665.322V681.526H142.919H159.11V697.717H175.307H191.498H207.689V681.526H191.498H175.307V665.322V649.131V632.94H159.11H142.919V616.743H159.11V600.558H175.307V584.367H159.11H142.919V600.558H126.715V616.743V632.94V649.131Z" fill="#B8C64F"/>
<path d="M-2.80904 794.833H13.3819V811.03V827.234V843.419H29.5729V859.616H45.7639V875.807H61.9548V891.998H78.1458H94.3367V875.807H110.528V891.998H126.719H142.923H159.114V875.807H142.923V859.616H126.719H110.528H94.3367H78.1458H61.9548V843.419H45.7639V827.234V811.03H29.5729V794.833V778.648V762.451H13.3819V746.26V730.069V713.878H29.5729V697.687H45.7639V681.496H61.9548V665.292V649.101H78.1458H94.3367V632.91V616.713H78.1458V632.91H61.9548H45.7639V649.101V665.292H29.5729V681.496H13.3819V697.687H-2.80904V713.878H-19V730.069V746.26V762.451V778.648H-2.80904V794.833Z" fill="#B8C64F"/>
<path d="M61.957 746.269V762.46V778.657H78.148V794.842H94.339H110.53V811.039H126.721V794.842V778.657H110.53H94.339V762.46H78.148V746.269V730.078H94.339H110.53V713.887H94.339H78.148H61.957V730.078V746.269Z" fill="#B8C64F"/>
</g>
<g opacity="0.5">
<path d="M698.397 683.652V698.72H713.465V713.8H698.397V728.869H713.465H728.533H743.601V743.937H758.669V759.005H773.737V743.937V728.869H758.669V713.8H743.601H728.533V698.72V683.652H715.921H713.465V674.956V668.584H698.397H683.316V683.652H698.397Z" fill="#4CA056"/>
<path d="M607.97 638.435H623.039V653.497H638.107V668.572V683.64H623.039V698.708H607.97V713.788H623.039H638.107V728.856H653.175V743.924H668.243V758.992H653.175V774.061H638.107V789.129H653.175H668.243V804.203V819.265V834.339H653.175V849.419H638.107H623.039H607.97V864.481H623.039H638.107V879.556H653.175V894.624H668.243H683.311V879.556H698.391V864.481H713.459H728.528H743.596V849.419H758.664V834.339V819.265V804.203V789.129H743.596V774.061H728.528H713.459H698.391V789.129H713.459V804.203H728.528V819.265V834.339H713.459V849.419H698.391H683.311V834.339V819.265V804.203V789.129V774.061V758.992V743.924V728.856H668.243V713.788H653.175V698.708V683.64H668.243V668.572H653.175V653.497V638.435H638.107V623.367H623.039H607.97H592.902V638.435H607.97Z" fill="#4CA056"/>
<path d="M517.542 668.543V683.611V698.679V713.759H502.474V728.827H487.406H472.338V743.896H487.406H502.474H517.542H532.61V758.964H547.69V774.032H562.758V789.1V804.174V819.236H547.69H532.61V834.31H517.542V819.236H502.474H487.406V804.174H472.338V819.236H457.27V834.31V849.391H472.338H487.406V864.453H502.474H517.542H532.61H547.69H562.758V849.391V834.31H577.833H592.901H607.969V819.236V804.174V789.1V774.032V758.964V743.896H592.901V728.827H577.833H562.758V713.759H547.69H532.61V698.679V683.611V668.543V653.469H517.542H502.474V668.543H517.542Z" fill="#4CA056"/>
<path d="M758.669 743.943H743.601V728.875H728.533H713.465H698.397H683.316V743.943V759.011V774.079V789.148V804.222V819.284V834.358V849.438H698.397H713.465V834.358H728.533V819.284V804.222H713.465V789.148H698.397V774.079H713.465H728.533H743.601V789.148H758.669V804.222H773.737V789.148V774.079V759.011H758.669V743.943Z" fill="#95C35B"/>
<path d="M713.465 698.724H698.397V683.656H683.316V698.724V713.805H698.397H713.465V698.724Z" fill="#95C35B"/>
<path d="M623.039 759.007H638.107V774.075H653.175V759.007H668.243V743.939H653.175V728.871H638.107V713.803H623.039H607.97V728.871H592.902V743.939H607.97H623.039V759.007Z" fill="#95C35B"/>
<path d="M577.84 849.412V864.474V879.548H592.908V894.617H607.976H623.044V909.685H638.112V894.617H653.181V879.548H638.112V864.474H623.044H607.976V849.412H592.908H577.84Z" fill="#95C35B"/>
<path d="M623.041 834.329V849.409H638.109H653.177V834.329H668.245V819.255V804.193V789.119H653.177H638.109V774.051H623.041H607.973V789.119V804.193V819.255H623.041V834.329Z" fill="#95C35B"/>
<path d="M562.763 638.435V653.497H547.695V668.572H562.763H577.838V683.64V698.708V713.788H592.906H607.974V698.708H623.042V683.64H638.11V668.572V653.497H623.042V638.435H607.974H592.906V623.367H577.838V638.435H562.763Z" fill="#95C35B"/>
<path d="M562.759 864.474H547.69H532.61H517.542H502.474H487.406V849.412H472.338H457.27V864.474H472.338V879.548H487.406H502.474H517.542H532.61H547.69V894.617H562.759V879.548V864.474Z" fill="#95C35B"/>
<path d="M502.47 758.972H487.402V774.041V789.109H502.47V804.183H517.539H532.607V819.245H547.687H562.755V804.183V789.109V774.041H547.687V758.972H532.607V743.904H517.539V758.972H502.47Z" fill="#95C35B"/>
<path d="M472.341 819.277V804.215V789.141V774.073V759.005V743.937V728.869H487.409H502.477V713.8H517.546V698.72V683.652V668.584H502.477V683.652H487.409H472.341V698.72V713.8H457.273V728.869H442.205V743.937H427.137V759.005V774.073V789.141H442.205V804.215V819.277V834.352H457.273V819.277H472.341Z" fill="#95C35B"/>
<path d="M758.669 819.257V834.332V849.412H743.601V864.474H728.533H713.465H698.397V879.548V894.616H683.316V909.684H698.397H713.465V894.616H728.533V879.548H743.601H758.669V864.474H773.737V849.412H788.805V834.332V819.257V804.195H773.737H758.669V819.257Z" fill="#B8C64F"/>
<path d="M653.18 683.652V698.72V713.8H668.248V728.869H683.316H698.396V713.8H683.316V698.72V683.652V668.584H668.248V683.652H653.18Z" fill="#B8C64F"/>
<path d="M592.908 894.626V879.558H577.84V864.484V849.422H592.908H607.976H623.044V834.342V819.268H607.976V834.342H592.908H577.84H562.766V849.422V864.484V879.558V894.626H577.84H592.908Z" fill="#B8C64F"/>
<path d="M638.109 774.041V758.972H623.041V743.904H607.973V758.972V774.041H623.041H638.109Z" fill="#B8C64F"/>
<path d="M532.609 683.64V698.708V713.788H547.69H562.758V728.856H577.832H592.9H607.968V713.788H592.9H577.832V698.708V683.64V668.572H562.758H547.69V653.497H562.758V638.435H577.832V623.367H562.758H547.69V638.435H532.609V653.497V668.572V683.64Z" fill="#B8C64F"/>
<path d="M412.068 819.236H427.136V834.31V849.391V864.453H442.204V879.527H457.273V894.595H472.341V909.663H487.409H502.477V894.595H517.545V909.663H532.613H547.693H562.762V894.595H547.693V879.527H532.613H517.545H502.477H487.409H472.341V864.453H457.273V849.391V834.31H442.204V819.236V804.174V789.1H427.136V774.032V758.964V743.896H442.204V728.827H457.273V713.759H472.341V698.679V683.611H487.409H502.477V668.543V653.469H487.409V668.543H472.341H457.273V683.611V698.679H442.204V713.759H427.136V728.827H412.068V743.896H397V758.964V774.032V789.1V804.174H412.068V819.236Z" fill="#B8C64F"/>
<path d="M472.34 774.041V789.109V804.183H487.408V819.245H502.476H517.544V834.319H532.612V819.245V804.183H517.544H502.476V789.109H487.408V774.041V758.972H502.476H517.544V743.904H502.476H487.408H472.34V758.972V774.041Z" fill="#B8C64F"/>
</g>
<path d="M94.2768 707.029V723.441H110.689V739.867H94.2768V756.279H110.689H127.101H143.513V772.691H159.925V789.103H176.338V772.691V756.279H159.925V739.867H143.513H127.101V723.441V707.029H113.364H110.689V697.558V690.617H94.2768H77.8516V707.029H94.2768Z" fill="#4CA056"/>
<path d="M-4.21284 657.779H12.1993V674.185H28.6114V690.604V707.016H12.1993V723.428H-4.21284V739.853H12.1993H28.6114V756.265H45.0236V772.677H61.4357V789.09H45.0236V805.502H28.6114V821.914H45.0236H61.4357V838.333V854.738V871.157H45.0236V887.582H28.6114H12.1993H-4.21284V903.988H12.1993H28.6114V920.406H45.0236V936.818H61.4357H77.8478V920.406H94.2731V903.988H110.685H127.097H143.51V887.582H159.922V871.157V854.738V838.333V821.914H143.51V805.502H127.097H110.685H94.2731V821.914H110.685V838.333H127.097V854.738V871.157H110.685V887.582H94.2731H77.8478V871.157V854.738V838.333V821.914V805.502V789.09V772.677V756.265H61.4357V739.853H45.0236V723.428V707.016H61.4357V690.604H45.0236V674.185V657.779H28.6114V641.367H12.1993H-4.21284H-20.625V657.779H-4.21284Z" fill="#4CA056"/>
<path d="M159.925 772.697H143.513V756.285H127.101H110.689H94.2768H77.8516V772.697V789.109V805.522V821.934V838.352V854.758V871.177V887.602H94.2768H110.689V871.177H127.101V854.758V838.352H110.689V821.934H94.2768V805.522H110.689H127.101H143.513V821.934H159.925V838.352H176.338V821.934V805.522V789.109H159.925V772.697Z" fill="#95C35B"/>
<path d="M110.689 723.445H94.2768V707.033H77.8516V723.445V739.871H94.2768H110.689V723.445Z" fill="#95C35B"/>
<path d="M12.1993 789.106H28.6115V805.518H45.0236V789.106H61.4357V772.693H45.0236V756.281H28.6115V739.869H12.1993H-4.21284V756.281H-20.625V772.693H-4.21284H12.1993V789.106Z" fill="#95C35B"/>
<path d="M12.2012 871.147V887.573H28.6133H45.0255V871.147H61.4376V854.729V838.323V821.904H45.0255H28.6133V805.492H12.2012H-4.21094V821.904V838.323V854.729H12.2012V871.147Z" fill="#95C35B"/>
<path d="M-53.4511 657.779V674.185H-69.8633V690.604H-53.4511H-37.0325V707.016V723.428V739.853H-20.6203H-4.20815V723.428H12.204V707.016H28.6161V690.604V674.185H12.204V657.779H-4.20815H-20.6203V641.367H-37.0325V657.779H-53.4511Z" fill="#95C35B"/>
<path d="M159.925 854.73V871.149V887.574H143.513V903.979H127.101H110.689H94.2768V920.398V936.81H77.8516V953.222H94.2768H110.689V936.81H127.101V920.398H143.513H159.925V903.979H176.337V887.574H192.75V871.149V854.73V838.324H176.337H159.925V854.73Z" fill="#B8C64F"/>
<path d="M45.0312 707.029V723.441V739.867H61.4434V756.279H77.8555H94.2808V739.867H77.8555V723.441V707.029V690.617H61.4434V707.029H45.0312Z" fill="#B8C64F"/>
<path d="M-20.6184 936.823V920.41H-37.0305V903.992V887.586H-20.6184H-4.20623H12.2059V871.161V854.742H-4.20623V871.161H-20.6184H-37.0305H-53.4492V887.586V903.992V920.41V936.823H-37.0305H-20.6184Z" fill="#B8C64F"/>
<path d="M28.6133 805.481V789.068H12.2012V772.656H-4.21094V789.068V805.481H12.2012H28.6133Z" fill="#B8C64F"/>
<g opacity="0.5">
<path d="M1210.51 684.693H1208.3V692.506H1210.51V684.693Z" fill="#232144"/>
<path d="M1194.77 692.527V706.064H1208.31V719.612H1194.77V733.149H1208.31H1221.84H1235.38V746.686H1248.92V760.223H1262.46V746.686V733.149H1248.92V719.612H1235.38H1221.84V706.064V692.527H1210.51H1208.31V684.715V678.99H1194.77H1181.22V692.527H1194.77Z" fill="#4CA056"/>
<path d="M1113.53 651.904H1127.07V665.436H1140.61V678.978V692.515H1127.07V706.052H1113.53V719.6H1127.07H1140.61V733.137H1154.14V746.674H1167.68V760.212H1154.14V773.749H1140.61V787.286H1154.14H1167.68V800.828V814.36V827.902H1154.14V841.45H1140.61H1127.07H1113.53V854.982H1127.07H1140.61V868.524H1154.14V882.061H1167.68H1181.22V868.524H1194.77V854.982H1208.3H1221.84H1235.38V841.45H1248.91V827.902V814.36V800.828V787.286H1235.38V773.749H1221.84H1208.3H1194.77V787.286H1208.3V800.828H1221.84V814.36V827.902H1208.3V841.45H1194.77H1181.22V827.902V814.36V800.828V787.286V773.749V760.212V746.674V733.137H1167.68V719.6H1154.14V706.052V692.515H1167.68V678.978H1154.14V665.436V651.904H1140.61V638.367H1127.07H1113.53H1100V651.904H1113.53Z" fill="#4CA056"/>
<path d="M1032.29 678.953V692.49V706.027V719.575H1018.76V733.112H1005.22H991.682V746.649H1005.22H1018.76H1032.29H1045.83V760.186H1059.38V773.723H1072.91V787.26V800.802V814.334H1059.38H1045.83V827.876H1032.29V814.334H1018.76H1005.22V800.802H991.682V814.334H978.145V827.876V841.424H991.682H1005.22V854.956H1018.76H1032.29H1045.83H1059.38H1072.91V841.424V827.876H1086.46H1099.99H1113.53V814.334V800.802V787.26V773.723V760.186V746.649H1099.99V733.112H1086.46H1072.91V719.575H1059.38H1045.83V706.027V692.49V678.953V665.41H1032.29H1018.76V678.953H1032.29Z" fill="#4CA056"/>
<path d="M1248.92 746.691H1235.38V733.154H1221.84H1208.31H1194.77H1181.22V746.691V760.228V773.765V787.303V800.845V814.377V827.919V841.467H1194.77H1208.31V827.919H1221.84V814.377V800.845H1208.31V787.303H1194.77V773.765H1208.31H1221.84H1235.38V787.303H1248.92V800.845H1262.46V787.303V773.765V760.228H1248.92V746.691Z" fill="#95C35B"/>
<path d="M1208.31 706.067H1194.77V692.529H1181.22V706.067V719.615H1194.77H1208.31V706.067Z" fill="#95C35B"/>
<path d="M1127.07 760.224H1140.61V773.762H1154.14V760.224H1167.68V746.687H1154.14V733.15H1140.61V719.613H1127.07H1113.53V733.15H1100V746.687H1113.53H1127.07V760.224Z" fill="#95C35B"/>
<path d="M1086.46 841.443V854.975V868.517H1100V882.055H1113.54H1127.08V895.592H1140.61V882.055H1154.15V868.517H1140.61V854.975H1127.08H1113.54V841.443H1100H1086.46Z" fill="#95C35B"/>
<path d="M1127.07 827.894V841.442H1140.61H1154.15V827.894H1167.68V814.351V800.82V787.277H1154.15H1140.61V773.74H1127.07H1113.54V787.277V800.82V814.351H1127.07V827.894Z" fill="#95C35B"/>
<path d="M1072.92 651.904V665.436H1059.38V678.978H1072.92H1086.46V692.515V706.052V719.6H1100H1113.54V706.052H1127.07V692.515H1140.61V678.978V665.436H1127.07V651.904H1113.54H1100V638.367H1086.46V651.904H1072.92Z" fill="#95C35B"/>
<path d="M1072.91 854.975H1059.38H1045.83H1032.29H1018.76H1005.22V841.443H991.682H978.145V854.975H991.682V868.517H1005.22H1018.76H1032.29H1045.83H1059.38V882.055H1072.91V868.517V854.975Z" fill="#95C35B"/>
<path d="M1018.76 760.193H1005.22V773.73V787.267H1018.76V800.81H1032.29H1045.83V814.342H1059.38H1072.91V800.81V787.267V773.73H1059.38V760.193H1045.83V746.656H1032.29V760.193H1018.76Z" fill="#95C35B"/>
<path d="M991.685 814.372V800.84V787.297V773.76V760.223V746.686V733.149H1005.22H1018.76V719.612H1032.3V706.064V692.527V678.99H1018.76V692.527H1005.22H991.685V706.064V719.612H978.148V733.149H964.611V746.686H951.074V760.223V773.76V787.297H964.611V800.84V814.372V827.914H978.148V814.372H991.685Z" fill="#95C35B"/>
<path d="M1248.92 814.354V827.896V841.444H1235.38V854.976H1221.84H1208.31H1194.77V868.518V882.055H1181.22V895.592H1194.77H1208.31V882.055H1221.84V868.518H1235.38H1248.92V854.976H1262.46V841.444H1275.99V827.896V814.354V800.822H1262.46H1248.92V814.354Z" fill="#B8C64F"/>
<path d="M1154.15 692.527V706.064V719.612H1167.69V733.149H1181.22H1194.77V719.612H1181.22V706.064V692.527V678.99H1167.69V692.527H1154.15Z" fill="#B8C64F"/>
<path d="M1100 882.065V868.528H1086.46V854.985V841.454H1100H1113.54H1127.08V827.906V814.363H1113.54V827.906H1100H1086.46H1072.92V841.454V854.985V868.528V882.065H1086.46H1100Z" fill="#B8C64F"/>
<path d="M1140.61 773.731V760.194H1127.07V746.656H1113.54V760.194V773.731H1127.07H1140.61Z" fill="#B8C64F"/>
<path d="M1045.83 692.515V706.052V719.6H1059.38H1072.92V733.137H1086.46H1100H1113.53V719.6H1100H1086.46V706.052V692.515V678.978H1072.92H1059.38V665.436H1072.92V651.904H1086.46V638.367H1072.92H1059.38V651.904H1045.83V665.436V678.978V692.515Z" fill="#B8C64F"/>
<path d="M937.537 814.334H951.074V827.876V841.424V854.956H964.611V868.498H978.148V882.035H991.685V895.573H1005.22H1018.76V882.035H1032.3V895.573H1045.83H1059.38H1072.92V882.035H1059.38V868.498H1045.83H1032.3H1018.76H1005.22H991.685V854.956H978.148V841.424V827.876H964.611V814.334V800.802V787.26H951.074V773.723V760.186V746.649H964.611V733.112H978.148V719.575H991.685V706.027V692.49H1005.22H1018.76V678.953V665.41H1005.22V678.953H991.685H978.148V692.49V706.027H964.611V719.575H951.074V733.112H937.537V746.649H924V760.186V773.723V787.26V800.802H937.537V814.334Z" fill="#B8C64F"/>
<path d="M991.688 773.73V787.267V800.81H1005.22V814.342H1018.76H1032.3V827.884H1045.84V814.342V800.81H1032.3H1018.76V787.267H1005.22V773.73V760.193H1018.76H1032.3V746.656H1018.76H1005.22H991.688V760.193V773.73Z" fill="#B8C64F"/>
</g>
<path d="M1378.92 612.289H1395.84V629.204H1412.77V646.132V663.054H1395.84V679.976H1378.92V696.911H1395.84H1412.77V713.832H1429.69V730.754H1446.61V747.676H1429.69V764.597H1412.77V781.519H1429.69H1446.61V798.447V815.362V832.291H1429.69V849.226H1412.77H1395.84H1378.92V866.141H1395.84H1412.77V883.069H1429.69V899.991H1446.61H1463.53V883.069H1480.47V866.141H1497.39H1514.31H1531.23V849.226H1548.15V832.291V815.362V798.447V781.519H1531.23V764.597H1514.31H1497.39H1480.47V781.519H1497.39V798.447H1514.31V815.362V832.291H1497.39V849.226H1480.47H1463.53V832.291V815.362V798.447V781.519V764.597V747.676V730.754V713.832H1446.61V696.911H1429.69V679.976V663.054H1446.61V646.132H1429.69V629.204V612.289H1412.77V595.367H1395.84H1378.92H1362V612.289H1378.92Z" fill="#4CA056"/>
<path d="M1277.37 646.1V663.022V679.944V696.879H1260.45V713.8H1243.53H1226.61V730.722H1243.53H1260.45H1277.37H1294.29V747.644H1311.23V764.565H1328.15V781.487V798.416V815.33H1311.23H1294.29V832.259H1277.37V815.33H1260.45H1243.53V798.416H1226.61V815.33H1209.68V832.259V849.194H1226.61H1243.53V866.109H1260.45H1277.37H1294.29H1311.23H1328.15V849.194V832.259H1345.08H1362H1378.92V815.33V798.416V781.487V764.565V747.644V730.722H1362V713.8H1345.08H1328.15V696.879H1311.23H1294.29V679.944V663.022V646.1V629.172H1277.37H1260.45V646.1H1277.37Z" fill="#4CA056"/>
<path d="M1395.84 747.693H1412.77V764.614H1429.69V747.693H1446.61V730.771H1429.69V713.849H1412.77V696.928H1395.84H1378.92V713.849H1362V730.771H1378.92H1395.84V747.693Z" fill="#95C35B"/>
<path d="M1345.08 849.219V866.134V883.062H1362V899.984H1378.93H1395.85V916.905H1412.77V899.984H1429.69V883.062H1412.77V866.134H1395.85H1378.93V849.219H1362H1345.08Z" fill="#95C35B"/>
<path d="M1395.85 832.279V849.215H1412.77H1429.69V832.279H1446.61V815.351V798.436V781.508H1429.69H1412.77V764.586H1395.85H1378.93V781.508V798.436V815.351H1395.85V832.279Z" fill="#95C35B"/>
<path d="M1328.15 612.289V629.204H1311.23V646.132H1328.15H1345.08V663.054V679.976V696.911H1362H1378.92V679.976H1395.85V663.054H1412.77V646.132V629.204H1395.85V612.289H1378.92H1362V595.367H1345.08V612.289H1328.15Z" fill="#95C35B"/>
<path d="M1328.15 866.134H1311.23H1294.29H1277.37H1260.45H1243.53V849.219H1226.61H1209.68V866.134H1226.61V883.062H1243.53H1260.45H1277.37H1294.29H1311.23V899.984H1328.15V883.062V866.134Z" fill="#95C35B"/>
<path d="M1260.45 747.654H1243.52V764.576V781.497H1260.45V798.426H1277.37H1294.29V815.341H1311.22H1328.15V798.426V781.497V764.576H1311.22V747.654H1294.29V730.732H1277.37V747.654H1260.45Z" fill="#95C35B"/>
<path d="M1226.6 815.377V798.462V781.533V764.612V747.69V730.768V713.847H1243.53H1260.45V696.925H1277.37V679.99V663.068V646.146H1260.45V663.068H1243.53H1226.6V679.99V696.925H1209.68V713.847H1192.76V730.768H1175.84V747.69V764.612V781.533H1192.76V798.462V815.377V832.305H1209.68V815.377H1226.6Z" fill="#95C35B"/>
<path d="M1362.01 899.994V883.072H1345.08V866.144V849.229H1362.01H1378.93H1395.85V832.294V815.365H1378.93V832.294H1362.01H1345.08H1328.16V849.229V866.144V883.072V899.994H1345.08H1362.01Z" fill="#B8C64F"/>
<path d="M1412.77 764.576V747.654H1395.85V730.732H1378.93V747.654V764.576H1395.85H1412.77Z" fill="#B8C64F"/>
<path d="M1294.29 663.054V679.976V696.911H1311.23H1328.15V713.832H1345.08H1362H1378.92V696.911H1362H1345.08V679.976V663.054V646.132H1328.15H1311.23V629.204H1328.15V612.289H1345.08V595.367H1328.15H1311.23V612.289H1294.29V629.204V646.132V663.054Z" fill="#B8C64F"/>
<path d="M1158.92 815.33H1175.84V832.259V849.194V866.109H1192.77V883.037H1209.69V899.959H1226.61V916.881H1243.53H1260.45V899.959H1277.37V916.881H1294.3H1311.23H1328.15V899.959H1311.23V883.037H1294.3H1277.37H1260.45H1243.53H1226.61V866.109H1209.69V849.194V832.259H1192.77V815.33V798.416V781.487H1175.84V764.565V747.644V730.722H1192.77V713.8H1209.69V696.879H1226.61V679.944V663.022H1243.53H1260.45V646.1V629.172H1243.53V646.1H1226.61H1209.69V663.022V679.944H1192.77V696.879H1175.84V713.8H1158.92V730.722H1142V747.644V764.565V781.487V798.416H1158.92V815.33Z" fill="#B8C64F"/>
<path d="M1226.61 764.576V781.497V798.426H1243.53V815.341H1260.45H1277.37V832.269H1294.3V815.341V798.426H1277.37H1260.45V781.497H1243.53V764.576V747.654H1260.45H1277.37V730.732H1260.45H1243.53H1226.61V747.654V764.576Z" fill="#B8C64F"/>
<path d="M912.345 756.44V767.206H923.111V777.981H912.345V788.747H923.111H933.877H944.643V799.513H955.409V810.279H966.175V799.513V788.747H955.409V777.981H944.643H933.877V767.206V756.44H924.866H923.111V750.227V745.674H912.345H901.57V756.44H912.345Z" fill="#4CA056"/>
<path d="M847.735 724.133H858.501V734.895H869.267V745.665V756.432H858.501V767.198H847.735V777.972H858.501H869.267V788.738H880.033V799.505H890.799V810.271H880.033V821.037H869.267V831.803H880.033H890.799V842.573V853.335V864.105H880.033V874.88H869.267H858.501H847.735V885.642H858.501H869.267V896.412H880.033V907.178H890.799H901.565V896.412H912.34V885.642H923.106H933.872H944.638V874.88H955.404V864.105V853.335V842.573V831.803H944.638V821.037H933.872H923.106H912.34V831.803H923.106V842.573H933.872V853.335V864.105H923.106V874.88H912.34H901.565V864.105V853.335V842.573V831.803V821.037V810.271V799.505V788.738H890.799V777.972H880.033V767.198V756.432H890.799V745.665H880.033V734.895V724.133H869.267V713.367H858.501H847.735H836.969V724.133H847.735Z" fill="#4CA056"/>
<path d="M783.127 745.645V756.411V767.178V777.952H772.361V788.718H761.595H750.829V799.484H761.595H772.361H783.127H793.893V810.251H804.668V821.017H815.434V831.783V842.553V853.315H804.668H793.893V864.085H783.127V853.315H772.361H761.595V842.553H750.829V853.315H740.062V864.085V874.86H750.829H761.595V885.622H772.361H783.127H793.893H804.668H815.434V874.86V864.085H826.204H836.97H847.736V853.315V842.553V831.783V821.017V810.251V799.484H836.97V788.718H826.204H815.434V777.952H804.668H793.893V767.178V756.411V745.645V734.875H783.127H772.361V745.645H783.127Z" fill="#4CA056"/>
<path d="M955.409 799.518H944.643V788.752H933.877H923.111H912.345H901.57V799.518V810.284V821.05V831.816V842.587V853.349V864.119V874.894H912.345H923.111V864.119H933.877V853.349V842.587H923.111V831.816H912.345V821.05H923.111H933.877H944.643V831.816H955.409V842.587H966.175V831.816V821.05V810.284H955.409V799.518Z" fill="#95C35B"/>
<path d="M923.111 767.209H912.345V756.443H901.57V767.209V777.984H912.345H923.111V767.209Z" fill="#95C35B"/>
<path d="M858.501 810.281H869.267V821.047H880.033V810.281H890.799V799.515H880.033V788.749H869.267V777.982H858.501H847.735V788.749H836.969V799.515H847.735H858.501V810.281Z" fill="#95C35B"/>
<path d="M858.504 864.098V874.873H869.27H880.037V864.098H890.803V853.328V842.566V831.795H880.037H869.27V821.029H858.504H847.738V831.795V842.566V853.328H858.504V864.098Z" fill="#95C35B"/>
<path d="M815.434 724.133V734.895H804.668V745.665H815.434H826.204V756.432V767.198V777.972H836.971H847.737V767.198H858.503V756.432H869.269V745.665V734.895H858.503V724.133H847.737H836.971V713.367H826.204V724.133H815.434Z" fill="#95C35B"/>
<path d="M772.36 810.256H761.594V821.022V831.789H772.36V842.559H783.126H793.892V853.321H804.667H815.433V842.559V831.789V821.022H804.667V810.256H793.892V799.49H783.126V810.256H772.36Z" fill="#95C35B"/>
<path d="M750.83 853.343V842.582V831.811V821.045V810.279V799.513V788.747H761.596H772.362V777.981H783.128V767.206V756.44V745.674H772.362V756.44H761.596H750.83V767.206V777.981H740.063V788.747H729.297V799.513H718.531V810.279V821.045V831.811H729.297V842.582V853.343V864.114H740.063V853.343H750.83Z" fill="#95C35B"/>
<path d="M955.409 853.33V864.101V874.875H944.643V885.637H933.877H923.111H912.345V896.407V907.174H901.57V917.94H912.345H923.111V907.174H933.877V896.407H944.643H955.409V885.637H966.175V874.875H976.942V864.101V853.33V842.568H966.175H955.409V853.33Z" fill="#B8C64F"/>
<path d="M880.039 756.44V767.206V777.981H890.805V788.747H901.571H912.346V777.981H901.571V767.206V756.44V745.674H890.805V756.44H880.039Z" fill="#B8C64F"/>
<path d="M836.974 907.181V896.415H826.208V885.645V874.883H836.974H847.74H858.506V864.108V853.338H847.74V864.108H836.974H826.208H815.438V874.883V885.645V896.415V907.181H826.208H836.974Z" fill="#B8C64F"/>
<path d="M869.27 821.022V810.256H858.504V799.49H847.738V810.256V821.022H858.504H869.27Z" fill="#B8C64F"/>
<path d="M793.895 756.432V767.198V777.972H804.669H815.435V788.738H826.206H836.972H847.738V777.972H836.972H826.206V767.198V756.432V745.665H815.435H804.669V734.895H815.435V724.133H826.206V713.367H815.435H804.669V724.133H793.895V734.895V745.665V756.432Z" fill="#B8C64F"/>
<path d="M707.766 853.315H718.532V864.085V874.86V885.622H729.298V896.392H740.064V907.158H750.831V917.924H761.597H772.363V907.158H783.129V917.924H793.895H804.67H815.436V907.158H804.67V896.392H793.895H783.129H772.363H761.597H750.831V885.622H740.064V874.86V864.085H729.298V853.315V842.553V831.783H718.532V821.017V810.251V799.484H729.298V788.718H740.064V777.952H750.831V767.178V756.411H761.597H772.363V745.645V734.875H761.597V745.645H750.831H740.064V756.411V767.178H729.298V777.952H718.532V788.718H707.766V799.484H697V810.251V821.017V831.783V842.553H707.766V853.315Z" fill="#B8C64F"/>
<path d="M750.832 821.022V831.789V842.559H761.598V853.321H772.364H783.13V864.091H793.896V853.321V842.559H783.13H772.364V831.789H761.598V821.022V810.256H772.364H783.13V799.49H772.364H761.598H750.832V810.256V821.022Z" fill="#B8C64F"/>
<path d="M568.595 762.69V773.768H579.674V784.856H568.595V795.934H579.674H590.752H601.831V807.013H612.909V818.092H623.988V807.013V795.934H612.909V784.856H601.831H590.752V773.768V762.69H581.48H579.674V756.296V751.611H568.595H557.508V762.69H568.595Z" fill="#4CA056"/>
<path d="M502.11 729.446H513.188V740.52H524.267V751.603V762.681H513.188V773.76H502.11V784.847H513.188H524.267V795.926H535.346V807.005H546.424V818.083H535.346V829.162H524.267V840.24H535.346H546.424V851.323V862.397V873.48H535.346V884.568H524.267H513.188H502.11V895.642H513.188H524.267V906.725H535.346V917.803H546.424H557.503V906.725H568.59V895.642H579.669H590.747H601.826V884.568H612.904V873.48V862.397V851.323V840.24H601.826V829.162H590.747H579.669H568.59V840.24H579.669V851.323H590.747V862.397V873.48H579.669V884.568H568.59H557.503V873.48V862.397V851.323V840.24V829.162V818.083V807.005V795.926H546.424V784.847H535.346V773.76V762.681H546.424V751.603H535.346V740.52V729.446H524.267V718.367H513.188H502.11H491.031V729.446H502.11Z" fill="#4CA056"/>
<path d="M435.627 751.583V762.662V773.74V784.828H424.548V795.906H413.47H402.391V806.985H413.47H424.548H435.627H446.705V818.063H457.793V829.142H468.871V840.22V851.303V862.377H457.793H446.705V873.46H435.627V862.377H424.548H413.47V851.303H402.391V862.377H391.312V873.46V884.548H402.391H413.47V895.622H424.548H435.627H446.705H457.793H468.871V884.548V873.46H479.954H491.033H502.111V862.377V851.303V840.22V829.142V818.063V806.985H491.033V795.906H479.954H468.871V784.828H457.793H446.705V773.74V762.662V751.583V740.5H435.627H424.548V751.583H435.627Z" fill="#4CA056"/>
<path d="M612.909 807.018H601.831V795.939H590.752H579.674H568.595H557.508V807.018V818.097V829.175V840.254V851.337V862.411V873.494V884.581H568.595H579.674V873.494H590.752V862.411V851.337H579.674V840.254H568.595V829.175H579.674H590.752H601.831V840.254H612.909V851.337H623.988V840.254V829.175V818.097H612.909V807.018Z" fill="#95C35B"/>
<path d="M579.674 773.772H568.595V762.693H557.508V773.772V784.859H568.595H579.674V773.772Z" fill="#95C35B"/>
<path d="M513.188 818.093H524.267V829.172H535.346V818.093H546.424V807.015H535.346V795.936H524.267V784.857H513.188H502.11V795.936H491.031V807.015H502.11H513.188V818.093Z" fill="#95C35B"/>
<path d="M513.192 873.473V884.56H524.27H535.349V873.473H546.428V862.39V851.316V840.233H535.349H524.27V829.154H513.192H502.113V840.233V851.316V862.39H513.192V873.473Z" fill="#95C35B"/>
<path d="M468.872 729.446V740.52H457.793V751.603H468.872H479.955V762.681V773.76V784.847H491.033H502.112V773.76H513.19V762.681H524.269V751.603V740.52H513.19V729.446H502.112H491.033V718.367H479.955V729.446H468.872Z" fill="#95C35B"/>
<path d="M424.547 818.069H413.469V829.147V840.226H424.547V851.309H435.626H446.704V862.383H457.792H468.87V851.309V840.226V829.147H457.792V818.069H446.704V806.99H435.626V818.069H424.547Z" fill="#95C35B"/>
<path d="M402.392 862.406V851.332V840.249V829.17V818.092V807.013V795.934H413.471H424.549V784.856H435.628V773.768V762.69V751.611H424.549V762.69H413.471H402.392V773.768V784.856H391.313V795.934H380.235V807.013H369.156V818.092V829.17V840.249H380.235V851.332V862.406V873.489H391.313V862.406H402.392Z" fill="#95C35B"/>
<path d="M612.909 862.393V873.475V884.563H601.831V895.637H590.752H579.674H568.595V906.72V917.799H557.508V928.877H568.595H579.674V917.799H590.752V906.72H601.831H612.909V895.637H623.988V884.563H635.067V873.475V862.393V851.318H623.988H612.909V862.393Z" fill="#B8C64F"/>
<path d="M535.352 762.69V773.768V784.856H546.43V795.934H557.509H568.596V784.856H557.509V773.768V762.69V751.611H546.43V762.69H535.352Z" fill="#B8C64F"/>
<path d="M524.27 829.147V818.069H513.192V806.99H502.113V818.069V829.147H513.192H524.27Z" fill="#B8C64F"/>
<path d="M446.703 762.681V773.76V784.847H457.791H468.869V795.926H479.952H491.031H502.109V784.847H491.031H479.952V773.76V762.681V751.603H468.869H457.791V740.52H468.869V729.446H479.952V718.367H468.869H457.791V729.446H446.703V740.52V751.603V762.681Z" fill="#B8C64F"/>
<path d="M358.079 862.377H369.157V873.46V884.548V895.622H380.236V906.705H391.314V917.784H402.393V928.862H413.471H424.55V917.784H435.629V928.862H446.707H457.795H468.873V917.784H457.795V906.705H446.707H435.629H424.55H413.471H402.393V895.622H391.314V884.548V873.46H380.236V862.377V851.303V840.22H369.157V829.142V818.063V806.985H380.236V795.906H391.314V784.828H402.393V773.74V762.662H413.471H424.55V751.583V740.5H413.471V751.583H402.393H391.314V762.662V773.74H380.236V784.828H369.157V795.906H358.079V806.985H347V818.063V829.142V840.22V851.303H358.079V862.377Z" fill="#B8C64F"/>
<path d="M402.395 829.147V840.226V851.309H413.473V862.383H424.552H435.63V873.466H446.709V862.383V851.309H435.63H424.552V840.226H413.473V829.147V818.069H424.552H435.63V806.99H424.552H413.473H402.395V818.069V829.147Z" fill="#B8C64F"/>
<path d="M784.595 741.69V752.768H795.674V763.856H784.595V774.934H795.674H806.752H817.831V786.013H828.909V797.092H839.988V786.013V774.934H828.909V763.856H817.831H806.752V752.768V741.69H797.48H795.674V735.296V730.611H784.595H773.508V741.69H784.595Z" fill="#4CA056"/>
<path d="M718.11 708.446H729.188V719.52H740.267V730.603V741.681H729.188V752.76H718.11V763.847H729.188H740.267V774.926H751.346V786.005H762.424V797.083H751.346V808.162H740.267V819.24H751.346H762.424V830.323V841.397V852.48H751.346V863.568H740.267H729.188H718.11V874.642H729.188H740.267V885.725H751.346V896.803H762.424H773.503V885.725H784.59V874.642H795.669H806.747H817.826V863.568H828.904V852.48V841.397V830.323V819.24H817.826V808.162H806.747H795.669H784.59V819.24H795.669V830.323H806.747V841.397V852.48H795.669V863.568H784.59H773.503V852.48V841.397V830.323V819.24V808.162V797.083V786.005V774.926H762.424V763.847H751.346V752.76V741.681H762.424V730.603H751.346V719.52V708.446H740.267V697.367H729.188H718.11H707.031V708.446H718.11Z" fill="#4CA056"/>
<path d="M651.627 730.583V741.662V752.74V763.828H640.548V774.906H629.47H618.391V785.985H629.47H640.548H651.627H662.705V797.063H673.793V808.142H684.871V819.22V830.303V841.377H673.793H662.705V852.46H651.627V841.377H640.548H629.47V830.303H618.391V841.377H607.312V852.46V863.548H618.391H629.47V874.622H640.548H651.627H662.705H673.793H684.871V863.548V852.46H695.954H707.033H718.111V841.377V830.303V819.22V808.142V797.063V785.985H707.033V774.906H695.954H684.871V763.828H673.793H662.705V752.74V741.662V730.583V719.5H651.627H640.548V730.583H651.627Z" fill="#4CA056"/>
<path d="M828.909 786.018H817.831V774.939H806.752H795.674H784.595H773.508V786.018V797.097V808.175V819.254V830.337V841.411V852.494V863.581H784.595H795.674V852.494H806.752V841.411V830.337H795.674V819.254H784.595V808.175H795.674H806.752H817.831V819.254H828.909V830.337H839.988V819.254V808.175V797.097H828.909V786.018Z" fill="#95C35B"/>
<path d="M795.674 752.772H784.595V741.693H773.508V752.772V763.859H784.595H795.674V752.772Z" fill="#95C35B"/>
<path d="M729.188 797.093H740.267V808.172H751.346V797.093H762.424V786.015H751.346V774.936H740.267V763.857H729.188H718.11V774.936H707.031V786.015H718.11H729.188V797.093Z" fill="#95C35B"/>
<path d="M729.192 852.473V863.56H740.27H751.349V852.473H762.428V841.39V830.316V819.233H751.349H740.27V808.154H729.192H718.113V819.233V830.316V841.39H729.192V852.473Z" fill="#95C35B"/>
<path d="M684.872 708.446V719.52H673.793V730.603H684.872H695.955V741.681V752.76V763.847H707.033H718.112V752.76H729.19V741.681H740.269V730.603V719.52H729.19V708.446H718.112H707.033V697.367H695.955V708.446H684.872Z" fill="#95C35B"/>
<path d="M640.547 797.069H629.469V808.147V819.226H640.547V830.309H651.626H662.704V841.383H673.792H684.87V830.309V819.226V808.147H673.792V797.069H662.704V785.99H651.626V797.069H640.547Z" fill="#95C35B"/>
<path d="M618.392 841.406V830.332V819.249V808.17V797.092V786.013V774.934H629.471H640.549V763.856H651.628V752.768V741.69V730.611H640.549V741.69H629.471H618.392V752.768V763.856H607.313V774.934H596.235V786.013H585.156V797.092V808.17V819.249H596.235V830.332V841.406V852.489H607.313V841.406H618.392Z" fill="#95C35B"/>
<path d="M828.909 841.393V852.475V863.563H817.831V874.637H806.752H795.674H784.595V885.72V896.799H773.508V907.877H784.595H795.674V896.799H806.752V885.72H817.831H828.909V874.637H839.988V863.563H851.067V852.475V841.393V830.318H839.988H828.909V841.393Z" fill="#B8C64F"/>
<path d="M751.352 741.69V752.768V763.856H762.43V774.934H773.509H784.596V763.856H773.509V752.768V741.69V730.611H762.43V741.69H751.352Z" fill="#B8C64F"/>
<path d="M707.037 896.806V885.728H695.958V874.645V863.571H707.037H718.115H729.194V852.483V841.4H718.115V852.483H707.037H695.958H684.875V863.571V874.645V885.728V896.806H695.958H707.037Z" fill="#B8C64F"/>
<path d="M740.27 808.147V797.069H729.192V785.99H718.113V797.069V808.147H729.192H740.27Z" fill="#B8C64F"/>
<path d="M662.703 741.681V752.76V763.847H673.791H684.869V774.926H695.952H707.031H718.109V763.847H707.031H695.952V752.76V741.681V730.603H684.869H673.791V719.52H684.869V708.446H695.952V697.367H684.869H673.791V708.446H662.703V719.52V730.603V741.681Z" fill="#B8C64F"/>
<path d="M574.079 841.377H585.157V852.46V863.548V874.622H596.236V885.705H607.314V896.784H618.393V907.862H629.471H640.55V896.784H651.629V907.862H662.707H673.795H684.873V896.784H673.795V885.705H662.707H651.629H640.55H629.471H618.393V874.622H607.314V863.548V852.46H596.236V841.377V830.303V819.22H585.157V808.142V797.063V785.985H596.236V774.906H607.314V763.828H618.393V752.74V741.662H629.471H640.55V730.583V719.5H629.471V730.583H618.393H607.314V741.662V752.74H596.236V763.828H585.157V774.906H574.079V785.985H563V797.063V808.142V819.22V830.303H574.079V841.377Z" fill="#B8C64F"/>
<path d="M618.395 808.147V819.226V830.309H629.473V841.383H640.552H651.63V852.466H662.709V841.383V830.309H651.63H640.552V819.226H629.473V808.147V797.069H640.552H651.63V785.99H640.552H629.473H618.395V797.069V808.147Z" fill="#B8C64F"/>
<path d="M1147.6 772.69V783.768H1158.67V794.856H1147.6V805.934H1158.67H1169.75H1180.83V817.013H1191.91V828.092H1202.99V817.013V805.934H1191.91V794.856H1180.83H1169.75V783.768V772.69H1160.48H1158.67V766.296V761.611H1147.6H1136.51V772.69H1147.6Z" fill="#4CA056"/>
<path d="M1081.11 739.446H1092.19V750.52H1103.27V761.603V772.681H1092.19V783.76H1081.11V794.847H1092.19H1103.27V805.926H1114.35V817.005H1125.42V828.083H1114.35V839.162H1103.27V850.24H1114.35H1125.42V861.323V872.397V883.48H1114.35V894.568H1103.27H1092.19H1081.11V905.642H1092.19H1103.27V916.725H1114.35V927.803H1125.42H1136.5V916.725H1147.59V905.642H1158.67H1169.75H1180.83V894.568H1191.9V883.48V872.397V861.323V850.24H1180.83V839.162H1169.75H1158.67H1147.59V850.24H1158.67V861.323H1169.75V872.397V883.48H1158.67V894.568H1147.59H1136.5V883.48V872.397V861.323V850.24V839.162V828.083V817.005V805.926H1125.42V794.847H1114.35V783.76V772.681H1125.42V761.603H1114.35V750.52V739.446H1103.27V728.367H1092.19H1081.11H1070.03V739.446H1081.11Z" fill="#4CA056"/>
<path d="M1014.63 761.583V772.662V783.74V794.828H1003.55V805.906H992.47H981.391V816.985H992.47H1003.55H1014.63H1025.71V828.063H1036.79V839.142H1047.87V850.22V861.303V872.377H1036.79H1025.71V883.46H1014.63V872.377H1003.55H992.47V861.303H981.391V872.377H970.312V883.46V894.548H981.391H992.47V905.622H1003.55H1014.63H1025.71H1036.79H1047.87V894.548V883.46H1058.95H1070.03H1081.11V872.377V861.303V850.22V839.142V828.063V816.985H1070.03V805.906H1058.95H1047.87V794.828H1036.79H1025.71V783.74V772.662V761.583V750.5H1014.63H1003.55V761.583H1014.63Z" fill="#4CA056"/>
<path d="M1191.91 817.018H1180.83V805.939H1169.75H1158.67H1147.6H1136.51V817.018V828.097V839.175V850.254V861.337V872.411V883.494V894.581H1147.6H1158.67V883.494H1169.75V872.411V861.337H1158.67V850.254H1147.6V839.175H1158.67H1169.75H1180.83V850.254H1191.91V861.337H1202.99V850.254V839.175V828.097H1191.91V817.018Z" fill="#95C35B"/>
<path d="M1158.67 783.772H1147.6V772.693H1136.51V783.772V794.859H1147.6H1158.67V783.772Z" fill="#95C35B"/>
<path d="M1092.19 828.093H1103.27V839.172H1114.35V828.093H1125.42V817.015H1114.35V805.936H1103.27V794.857H1092.19H1081.11V805.936H1070.03V817.015H1081.11H1092.19V828.093Z" fill="#95C35B"/>
<path d="M1092.19 883.473V894.56H1103.27H1114.35V883.473H1125.43V872.39V861.316V850.233H1114.35H1103.27V839.154H1092.19H1081.11V850.233V861.316V872.39H1092.19V883.473Z" fill="#95C35B"/>
<path d="M1047.87 739.446V750.52H1036.79V761.603H1047.87H1058.95V772.681V783.76V794.847H1070.03H1081.11V783.76H1092.19V772.681H1103.27V761.603V750.52H1092.19V739.446H1081.11H1070.03V728.367H1058.95V739.446H1047.87Z" fill="#95C35B"/>
<path d="M1003.55 828.069H992.469V839.147V850.226H1003.55V861.309H1014.63H1025.7V872.383H1036.79H1047.87V861.309V850.226V839.147H1036.79V828.069H1025.7V816.99H1014.63V828.069H1003.55Z" fill="#95C35B"/>
<path d="M981.392 872.406V861.332V850.249V839.17V828.092V817.013V805.934H992.471H1003.55V794.856H1014.63V783.768V772.69V761.611H1003.55V772.69H992.471H981.392V783.768V794.856H970.313V805.934H959.235V817.013H948.156V828.092V839.17V850.249H959.235V861.332V872.406V883.489H970.313V872.406H981.392Z" fill="#95C35B"/>
<path d="M1114.35 772.69V783.768V794.856H1125.43V805.934H1136.51H1147.6V794.856H1136.51V783.768V772.69V761.611H1125.43V772.69H1114.35Z" fill="#B8C64F"/>
<path d="M1103.27 839.147V828.069H1092.19V816.99H1081.11V828.069V839.147H1092.19H1103.27Z" fill="#B8C64F"/>
<path d="M1025.7 772.681V783.76V794.847H1036.79H1047.87V805.926H1058.95H1070.03H1081.11V794.847H1070.03H1058.95V783.76V772.681V761.603H1047.87H1036.79V750.52H1047.87V739.446H1058.95V728.367H1047.87H1036.79V739.446H1025.7V750.52V761.603V772.681Z" fill="#B8C64F"/>
<path d="M937.079 872.377H948.157V883.46V894.548V905.622H959.236V916.705H970.314V927.784H981.393V938.862H992.471H1003.55V927.784H1014.63V938.862H1025.71H1036.79H1047.87V927.784H1036.79V916.705H1025.71H1014.63H1003.55H992.471H981.393V905.622H970.314V894.548V883.46H959.236V872.377V861.303V850.22H948.157V839.142V828.063V816.985H959.236V805.906H970.314V794.828H981.393V783.74V772.662H992.471H1003.55V761.583V750.5H992.471V761.583H981.393H970.314V772.662V783.74H959.236V794.828H948.157V805.906H937.079V816.985H926V828.063V839.142V850.22V861.303H937.079V872.377Z" fill="#B8C64F"/>
<path d="M981.395 839.147V850.226V861.309H992.473V872.383H1003.55H1014.63V883.466H1025.71V872.383V861.309H1014.63H1003.55V850.226H992.473V839.147V828.069H1003.55H1014.63V816.99H1003.55H992.473H981.395V828.069V839.147Z" fill="#B8C64F"/>
<path d="M360.262 730.825V743.436H372.874V756.058H360.262V768.67H372.874H385.486H398.098V781.282H410.71V793.894H423.321V781.282V768.67H410.71V756.058H398.098H385.486V743.436V730.825H374.93H372.874V723.546V718.213H360.262H347.641V730.825H360.262Z" fill="#4CA056"/>
<path d="M284.577 692.979H297.188V705.586H309.8V718.203V730.814H297.188V743.426H284.577V756.048H297.188H309.8V768.66H322.412V781.271H335.024V793.883H322.412V806.495H309.8V819.107H322.412H335.024V831.724V844.33V856.947H322.412V869.569H309.8H297.188H284.577V882.176H297.188H309.8V894.792H322.412V907.404H335.024H347.635V894.792H360.257V882.176H372.869H385.481H398.093V869.569H410.704V856.947V844.33V831.724V819.107H398.093V806.495H385.481H372.869H360.257V819.107H372.869V831.724H385.481V844.33V856.947H372.869V869.569H360.257H347.635V856.947V844.33V831.724V819.107V806.495V793.883V781.271V768.66H335.024V756.048H322.412V743.426V730.814H335.024V718.203H322.412V705.586V692.979H309.8V680.367H297.188H284.577H271.965V692.979H284.577Z" fill="#4CA056"/>
<path d="M208.892 718.179V730.791V743.403V756.025H196.281V768.636H183.669H171.057V781.248H183.669H196.281H208.892H221.504V793.86H234.126V806.472H246.738V819.084V831.7V844.307H234.126H221.504V856.924H208.892V844.307H196.281H183.669V831.7H171.057V844.307H158.445V856.924V869.546H171.057H183.669V882.152H196.281H208.892H221.504H234.126H246.738V869.546V856.924H259.355H271.966H284.578V844.307V831.7V819.084V806.472V793.86V781.248H271.966V768.636H259.355H246.738V756.025H234.126H221.504V743.403V730.791V718.179V705.562H208.892H196.281V718.179H208.892Z" fill="#4CA056"/>
<path d="M410.71 781.288H398.098V768.676H385.486H372.874H360.262H347.641V781.288V793.899V806.511V819.123V831.74V844.346V856.963V869.585H360.262H372.874V856.963H385.486V844.346V831.74H372.874V819.123H360.262V806.511H372.874H385.486H398.098V819.123H410.71V831.74H423.321V819.123V806.511V793.899H410.71V781.288Z" fill="#95C35B"/>
<path d="M372.874 743.44H360.262V730.828H347.641V743.44V756.062H360.262H372.874V743.44Z" fill="#95C35B"/>
<path d="M297.188 793.896H309.8V806.508H322.412V793.896H335.024V781.284H322.412V768.672H309.8V756.061H297.188H284.577V768.672H271.965V781.284H284.577H297.188V793.896Z" fill="#95C35B"/>
<path d="M297.194 856.938V869.56H309.806H322.417V856.938H335.029V844.322V831.715V819.098H322.417H309.806V806.486H297.194H284.582V819.098V831.715V844.322H297.194V856.938Z" fill="#95C35B"/>
<path d="M246.741 692.979V705.586H234.129V718.203H246.741H259.357V730.814V743.426V756.048H271.969H284.581V743.426H297.193V730.814H309.805V718.203V705.586H297.193V692.979H284.581H271.969V680.367H259.357V692.979H246.741Z" fill="#95C35B"/>
<path d="M196.276 793.868H183.664V806.479V819.091H196.276V831.708H208.888H221.499V844.315H234.121H246.733V831.708V819.091V806.479H234.121V793.868H221.499V781.256H208.888V793.868H196.276Z" fill="#95C35B"/>
<path d="M171.058 844.341V831.734V819.117V806.505V793.894V781.282V768.67H183.67H196.282V756.058H208.893V743.436V730.825V718.213H196.282V730.825H183.67H171.058V743.436V756.058H158.446V768.67H145.834V781.282H133.223V793.894V806.505V819.117H145.834V831.734V844.341V856.957H158.446V844.341H171.058Z" fill="#95C35B"/>
<path d="M410.71 844.324V856.94V869.562H398.098V882.169H385.486H372.874H360.262V894.786V907.397H347.641V920.009H360.262H372.874V907.397H385.486V894.786H398.098H410.71V882.169H423.321V869.562H435.933V856.94V844.324V831.717H423.321H410.71V844.324Z" fill="#B8C64F"/>
<path d="M322.418 730.825V743.436V756.058H335.03V768.67H347.642H360.263V756.058H347.642V743.436V730.825V718.213H335.03V730.825H322.418Z" fill="#B8C64F"/>
<path d="M271.971 907.406V894.794H259.359V882.177V869.571H271.971H284.583H297.194V856.949V844.332H284.583V856.949H271.971H259.359H246.742V869.571V882.177V894.794V907.406H259.359H271.971Z" fill="#B8C64F"/>
<path d="M309.806 806.479V793.868H297.194V781.256H284.582V793.868V806.479H297.194H309.806Z" fill="#B8C64F"/>
<path d="M221.504 730.814V743.426V756.048H234.126H246.737V768.66H259.354H271.966H284.578V756.048H271.966H259.354V743.426V730.814V718.203H246.737H234.126V705.586H246.737V692.979H259.354V680.367H246.737H234.126V692.979H221.504V705.586V718.203V730.814Z" fill="#B8C64F"/>
<path d="M120.612 844.307H133.224V856.924V869.546V882.152H145.835V894.769H158.447V907.381H171.059V919.993H183.671H196.282V907.381H208.894V919.993H221.506H234.128H246.74V907.381H234.128V894.769H221.506H208.894H196.282H183.671H171.059V882.152H158.447V869.546V856.924H145.835V844.307V831.7V819.084H133.224V806.472V793.86V781.248H145.835V768.636H158.447V756.025H171.059V743.403V730.791H183.671H196.282V718.179V705.562H183.671V718.179H171.059H158.447V730.791V743.403H145.835V756.025H133.224V768.636H120.612V781.248H108V793.86V806.472V819.084V831.7H120.612V844.307Z" fill="#B8C64F"/>
<path d="M171.059 806.479V819.091V831.708H183.67V844.315H196.282H208.894V856.932H221.506V844.315V831.708H208.894H196.282V819.091H183.67V806.479V793.868H196.282H208.894V781.256H196.282H183.67H171.059V793.868V806.479Z" fill="#B8C64F"/>
<defs>
<linearGradient id="paint0_linear_802_191995" x1="719.54" y1="290.196" x2="719.54" y2="901.343" gradientUnits="userSpaceOnUse">
<stop stop-color="#E4FAFF"/>
<stop offset="1" stop-color="#C7DFE9"/>
</linearGradient>
</defs>
</svg>
