<svg width="1364" height="279" viewBox="0 0 1364 279" fill="none" xmlns="http://www.w3.org/2000/svg">
<path d="M237.659 137.57V133.17H232.492V128.772H227.327V124.371V119.968H222.16V115.57V111.17V106.769V102.371V97.9709V93.5676V89.1725H216.992V93.5676H211.828V97.9709H206.66H201.493H196.325H191.163H185.996H180.829V93.5676H175.661V89.1725H170.497V84.7692H165.329V89.1725H160.162V93.5676V97.9709H154.994V102.371H149.83V106.769H144.662V111.17H139.495H134.33V115.57H129.166H123.998H118.831H113.666H108.499H103.331H98.164H92.9994V111.17H87.832H82.6646V106.769H77.4972V102.371H72.3325V97.9709H67.1652H61.9978V102.371H56.8331V106.769H51.6657H46.4983H41.3309H36.1663H30.9989H25.8315V102.371H20.6641V97.9709H15.4994V93.5676V89.1725H10.3321V84.7692V80.3687V75.9709V71.5703H5.16468V75.9709V80.3687V84.7692H0V89.1725V93.5676V97.9709V102.371V106.769V111.17H5.16468V115.57V119.968V124.371H10.3321V128.772V133.17H15.4994V137.57H20.6641V141.971H25.8315H30.9989V146.369H36.1663H41.3309H46.4983H51.6657H56.8331H61.9978H67.1652H72.3325H77.4972H82.6646H87.832H92.9994H98.164H103.331H108.499H113.666H118.831H123.998H129.166H134.33H139.495H144.662H149.83H154.994H160.162H165.329H170.497H175.661H180.829H185.996H191.163H196.325H201.493H206.66H211.828H216.992H222.16H227.327H232.492H237.659V141.971H242.826V137.57H237.659Z" fill="#C0E4F4"/>
<path d="M253.155 97.9694V93.5661V89.171H247.99V84.7677H242.823V80.3672H237.655V75.9694H232.488H227.323H222.156V71.5688V67.1683V62.7704H216.988V58.3699V53.9666V49.5661H211.824V45.1683H206.656V40.7677H201.489V36.3645H196.321V31.9694H191.16H185.992H180.825H175.657H170.493H165.325H160.158H154.991V36.3645H149.826V31.9694V27.5661H144.658V23.1656H139.491H134.326V18.7677H129.162V14.3672H123.994H118.827H113.662H108.495H103.328H98.1601V18.7677H92.9955H87.8281V23.1656H82.6607V27.5661H77.4933V31.9694H72.3286V36.3645H67.1612V40.7677V45.1683V49.5661H61.9938H56.8292H51.6618H46.4944H41.327H36.1623H30.995V53.9666H25.8276H20.6602V58.3699H15.4955V62.7704H10.3281V67.1683V71.5688V75.9694V80.3672V84.7677V89.171H15.4955V93.5661V97.9694H20.6602V102.37H25.8276V106.768H30.995H36.1623H41.327H46.4944H51.6618H56.8292V102.37H61.9938V97.9694H67.1612H72.3286V102.37H77.4933V106.768H82.6607V111.168H87.8281H92.9955V115.569H98.1601H103.328H108.495H113.662H118.827H123.994H129.162H134.326V111.168H139.491H144.658V106.768H149.826V102.37H154.991V97.9694H160.158V93.5661V89.171H165.325V84.7677H170.493V89.171H175.657V93.5661H180.825V97.9694H185.992H191.16H196.321H201.489H206.656H211.824V93.5661H216.988V89.171H222.156V93.5661V97.9694V102.37V106.768V111.168V115.569V119.967H227.323V124.37V128.77H232.488V133.168H237.655V137.569H242.823V141.969H247.99V137.569V133.168H253.155V128.77H258.322V124.37V119.967V115.569V111.168V106.768V102.37V97.9694H253.155Z" fill="white"/>
<path d="M569.596 271.831V268.562H565.757V265.294H561.919V262.024V258.752H558.079V255.484V252.214V248.944V245.676V242.406V239.135V235.869H554.24V239.135H550.402V242.406H546.562H542.722H538.883H535.047H531.207H527.368V239.135H523.528V235.869H519.69V232.597H515.85V235.869H512.011V239.135V242.406H508.171V245.676H504.333V248.944H500.494V252.214H496.654H492.816V255.484H488.979H485.139H481.299H477.461H473.622H469.782H465.942H462.105V252.214H458.265H454.425V248.944H450.586V245.676H446.748V242.406H442.908H439.068V245.676H435.231V248.944H431.391H427.551H423.712H419.874H416.034H412.195V245.676H408.355V242.406H404.517V239.135V235.869H400.677V232.597V229.327V226.059V222.789H396.838V226.059V229.327V232.597H393V235.869V239.135V242.406V245.676V248.944V252.214H396.838V255.484V258.752V262.024H400.677V265.294V268.562H404.517V271.831H408.355V275.101H412.195H416.034V278.369H419.874H423.712H427.551H431.391H435.231H439.068H442.908H446.748H450.586H454.425H458.265H462.105H465.942H469.782H473.622H477.461H481.299H485.139H488.979H492.816H496.654H500.494H504.333H508.171H512.011H515.85H519.69H523.528H527.368H531.207H535.047H538.883H542.722H546.562H550.402H554.24H558.079H561.919H565.757H569.596V275.101H573.436V271.831H569.596Z" fill="#C0E4F4"/>
<path d="M581.112 242.405V239.133V235.867H577.274V232.595H573.434V229.326H569.595V226.058H565.755H561.917H558.078V222.788V219.518V216.25H554.238V212.98V209.708V206.438H550.4V203.17H546.561V199.901H542.721V196.629H538.881V193.363H535.045H531.206H527.366H523.526H519.689H515.849H512.009H508.169V196.629H504.332V193.363V190.091H500.492V186.821H496.652H492.815V183.553H488.977V180.283H485.137H481.298H477.46H473.62H469.78H465.941V183.553H462.103H458.263V186.821H454.424V190.091H450.584V193.363H446.746V196.629H442.907V199.901V203.17V206.438H439.067H435.229H431.389H427.55H423.71H419.872H416.033V209.708H412.193H408.353V212.98H404.515V216.25H400.676V219.518V222.788V226.058V229.326V232.595V235.867H404.515V239.133V242.405H408.353V245.675H412.193V248.943H416.033H419.872H423.71H427.55H431.389H435.229V245.675H439.067V242.405H442.907H446.746V245.675H450.584V248.943H454.424V252.213H458.263H462.103V255.483H465.941H469.78H473.62H477.46H481.298H485.137H488.977H492.815V252.213H496.652H500.492V248.943H504.332V245.675H508.169V242.405H512.009V239.133V235.867H515.849V232.595H519.689V235.867H523.526V239.133H527.366V242.405H531.206H535.045H538.881H542.721H546.561H550.4V239.133H554.238V235.867H558.078V239.133V242.405V245.675V248.943V252.213V255.483V258.751H561.917V262.022V265.292H565.755V268.56H569.595V271.83H573.434V275.1H577.274V271.83V268.56H581.112V265.292H584.952V262.022V258.751V255.483V252.213V248.943V245.675V242.405H581.112Z" fill="white"/>
<path d="M1023.66 123.57V119.17H1018.49V114.772H1013.33V110.371V105.968H1008.16V101.57V97.1698V92.7692V88.3714V83.9709V79.5676V75.1725H1002.99V79.5676H997.828V83.9709H992.66H987.493H982.325H977.163H971.996H966.829V79.5676H961.661V75.1725H956.497V70.7692H951.329V75.1725H946.162V79.5676V83.9709H940.994V88.3714H935.83V92.7692H930.662V97.1698H925.495H920.33V101.57H915.166H909.998H904.831H899.666H894.499H889.331H884.164H878.999V97.1698H873.832H868.665V92.7692H863.497V88.3714H858.333V83.9709H853.165H847.998V88.3714H842.833V92.7692H837.666H832.498H827.331H822.166H816.999H811.832V88.3714H806.664V83.9709H801.499V79.5676V75.1725H796.332V70.7692V66.3687V61.9709V57.5703H791.165V61.9709V66.3687V70.7692H786V75.1725V79.5676V83.9709V88.3714V92.7692V97.1698H791.165V101.57V105.968V110.371H796.332V114.772V119.17H801.499V123.57H806.664V127.971H811.832H816.999V132.369H822.166H827.331H832.498H837.666H842.833H847.998H853.165H858.333H863.497H868.665H873.832H878.999H884.164H889.331H894.499H899.666H904.831H909.998H915.166H920.33H925.495H930.662H935.83H940.994H946.162H951.329H956.497H961.661H966.829H971.996H977.163H982.325H987.493H992.66H997.828H1002.99H1008.16H1013.33H1018.49H1023.66V127.971H1028.83V123.57H1023.66Z" fill="#C0E4F4"/>
<path d="M1039.15 83.9694V79.5661V75.171H1033.99V70.7677H1028.82V66.3672H1023.66V61.9694H1018.49H1013.32H1008.16V57.5688V53.1683V48.7704H1002.99V44.3699V39.9666V35.5661H997.824V31.1683H992.656V26.7677H987.489V22.3645H982.321V17.9694H977.16H971.992H966.825H961.657H956.493H951.325H946.158H940.991V22.3645H935.826V17.9694V13.5661H930.658V9.16556H925.491H920.326V4.76774H915.162V0.367188H909.994H904.827H899.662H894.495H889.328H884.16V4.76774H878.995H873.828V9.16556H868.661V13.5661H863.493V17.9694H858.329V22.3645H853.161V26.7677V31.1683V35.5661H847.994H842.829H837.662H832.494H827.327H822.162H816.995V39.9666H811.828H806.66V44.3699H801.496V48.7704H796.328V53.1683V57.5688V61.9694V66.3672V70.7677V75.171H801.496V79.5661V83.9694H806.66V88.3699H811.828V92.7677H816.995H822.162H827.327H832.494H837.662H842.829V88.3699H847.994V83.9694H853.161H858.329V88.3699H863.493V92.7677H868.661V97.1683H873.828H878.995V101.569H884.16H889.328H894.495H899.662H904.827H909.994H915.162H920.326V97.1683H925.491H930.658V92.7677H935.826V88.3699H940.991V83.9694H946.158V79.5661V75.171H951.325V70.7677H956.493V75.171H961.657V79.5661H966.825V83.9694H971.992H977.16H982.321H987.489H992.656H997.824V79.5661H1002.99V75.171H1008.16V79.5661V83.9694V88.3699V92.7677V97.1683V101.569V105.967H1013.32V110.37V114.77H1018.49V119.168H1023.66V123.569H1028.82V127.969H1033.99V123.569V119.168H1039.15V114.77H1044.32V110.37V105.967V101.569V97.1683V92.7677V88.3699V83.9694H1039.15Z" fill="white"/>
<path d="M1397.6 264.915V261.646H1393.76V258.378H1389.92V255.108V251.836H1386.08V248.568V245.298V242.028V238.76V235.49V232.218V228.953H1382.24V232.218H1378.4V235.49H1374.56H1370.72H1366.88H1363.05H1359.21H1355.37V232.218H1351.53V228.953H1347.69V225.681H1343.85V228.953H1340.01V232.218V235.49H1336.17V238.76H1332.33V242.028H1328.49V245.298H1324.65H1320.82V248.568H1316.98H1313.14H1309.3H1305.46H1301.62H1297.78H1293.94H1290.1V245.298H1286.26H1282.43V242.028H1278.59V238.76H1274.75V235.49H1270.91H1267.07V238.76H1263.23V242.028H1259.39H1255.55H1251.71H1247.87H1244.03H1240.19V238.76H1236.35V235.49H1232.52V232.218V228.953H1228.68V225.681V222.411V219.143V215.873H1224.84V219.143V222.411V225.681H1221V228.953V232.218V235.49V238.76V242.028V245.298H1224.84V248.568V251.836V255.108H1228.68V258.378V261.646H1232.52V264.915H1236.35V268.185H1240.19H1244.03V271.453H1247.87H1251.71H1255.55H1259.39H1263.23H1267.07H1270.91H1274.75H1278.59H1282.43H1286.26H1290.1H1293.94H1297.78H1301.62H1305.46H1309.3H1313.14H1316.98H1320.82H1324.65H1328.49H1332.33H1336.17H1340.01H1343.85H1347.69H1351.53H1355.37H1359.21H1363.05H1366.88H1370.72H1374.56H1378.4H1382.24H1386.08H1389.92H1393.76H1397.6V268.185H1401.44V264.915H1397.6Z" fill="#C0E4F4"/>
<path d="M1409.11 235.489V232.217V228.951H1405.27V225.679H1401.43V222.41H1397.59V219.142H1393.76H1389.92H1386.08V215.872V212.602V209.334H1382.24V206.064V202.792V199.522H1378.4V196.254H1374.56V192.985H1370.72V189.713H1366.88V186.447H1363.05H1359.21H1355.37H1351.53H1347.69H1343.85H1340.01H1336.17V189.713H1332.33V186.447V183.175H1328.49V179.905H1324.65H1320.81V176.637H1316.98V173.367H1313.14H1309.3H1305.46H1301.62H1297.78H1293.94V176.637H1290.1H1286.26V179.905H1282.42V183.175H1278.58V186.447H1274.75V189.713H1270.91V192.985V196.254V199.522H1267.07H1263.23H1259.39H1255.55H1251.71H1247.87H1244.03V202.792H1240.19H1236.35V206.064H1232.52V209.334H1228.68V212.602V215.872V219.142V222.41V225.679V228.951H1232.52V232.217V235.489H1236.35V238.759H1240.19V242.027H1244.03H1247.87H1251.71H1255.55H1259.39H1263.23V238.759H1267.07V235.489H1270.91H1274.75V238.759H1278.58V242.027H1282.42V245.297H1286.26H1290.1V248.567H1293.94H1297.78H1301.62H1305.46H1309.3H1313.14H1316.98H1320.81V245.297H1324.65H1328.49V242.027H1332.33V238.759H1336.17V235.489H1340.01V232.217V228.951H1343.85V225.679H1347.69V228.951H1351.53V232.217H1355.37V235.489H1359.21H1363.05H1366.88H1370.72H1374.56H1378.4V232.217H1382.24V228.951H1386.08V232.217V235.489V238.759V242.027V245.297V248.567V251.835H1389.92V255.106V258.376H1393.76V261.644H1397.59V264.914H1401.43V268.184H1405.27V264.914V261.644H1409.11V258.376H1412.95V255.106V251.835V248.567V245.297V242.027V238.759V235.489H1409.11Z" fill="white"/>
</svg>
