<svg width="69" height="50" viewBox="0 0 69 50" fill="none" xmlns="http://www.w3.org/2000/svg">
<path d="M60.6173 45.9399V44.299H58.6905V42.6592H56.7647V41.0183V39.3765H54.8379V37.7366V36.0957V34.4549V32.8151V31.1742V29.5323V27.8935H52.9111V29.5323H50.9853V31.1742H49.0585H47.1317H45.2049H43.2802H41.3534H39.4266V29.5323H37.4998V27.8935H35.574V26.2516H33.6472V27.8935H31.7204V29.5323V31.1742H29.7937V32.8151H27.8679V34.4549H25.9411V36.0957H24.0143H22.0885V37.7366H20.1627H18.2359H16.3091H14.3834H12.4566H10.5298H8.60298H6.6772V36.0957H4.75041H2.82362V34.4549H0.896826V32.8151H-1.02896V31.1742H-2.95575H-4.88254V32.8151H-6.80832V34.4549H-8.73511H-10.6619H-12.5887H-14.5145H-16.4413H-18.3681V32.8151H-20.2949V31.1742H-22.2206V29.5323V27.8935H-24.1474V26.2516V24.6108V22.9709V21.3301H-26.0742V22.9709V24.6108V26.2516H-28V27.8935V29.5323V31.1742V32.8151V34.4549V36.0957H-26.0742V37.7366V39.3765V41.0183H-24.1474V42.6592V44.299H-22.2206V45.9399H-20.2949V47.5807H-18.3681H-16.4413V49.2206H-14.5145H-12.5887H-10.6619H-8.73511H-6.80832H-4.88254H-2.95575H-1.02896H0.896826H2.82362H4.75041H6.6772H8.60298H10.5298H12.4566H14.3834H16.3091H18.2359H20.1627H22.0885H24.0143H25.9411H27.8679H29.7937H31.7204H33.6472H35.574H37.4998H39.4266H41.3534H43.2802H45.2049H47.1317H49.0585H50.9853H52.9111H54.8379H56.7647H58.6905H60.6173V47.5807H62.5441V45.9399H60.6173Z" fill="#9ECEE3"/>
<path d="M66.3956 31.1732V29.5313V27.8925H64.4698V26.2506H62.5431V24.6098H60.6163V22.9699H58.6895H56.7637H54.8369V21.3291V19.6882V18.0484H52.9101V16.4075V14.7657V13.1248H50.9843V11.485H49.0575V9.84412H47.1307V8.20225H45.2039V6.56342H43.2792H41.3524H39.4256H37.4988H35.573H33.6462H31.7194H29.7926V8.20225H27.8669V6.56342V4.92156H25.9401V3.2807H24.0133H22.0875V1.64086H20.1617V0H18.2349H16.3081H14.3823H12.4556H10.5288H8.60197V1.64086H6.67619H4.7494V3.2807H2.82261V4.92156H0.895817V6.56342H-1.02996V8.20225H-2.95676V9.84412V11.485V13.1248H-4.88355H-6.80933H-8.73612H-10.6629H-12.5897H-14.5155H-16.4423V14.7657H-18.3691H-20.2959V16.4075H-22.2216V18.0484H-24.1484V19.6882V21.3291V22.9699V24.6098V26.2506V27.8925H-22.2216V29.5313V31.1732H-20.2959V32.8141H-18.3691V34.4539H-16.4423H-14.5155H-12.5897H-10.6629H-8.73612H-6.80933V32.8141H-4.88355V31.1732H-2.95676H-1.02996V32.8141H0.895817V34.4539H2.82261V36.0948H4.7494H6.67619V37.7356H8.60197H10.5288H12.4556H14.3823H16.3081H18.2349H20.1617H22.0875V36.0948H24.0133H25.9401V34.4539H27.8669V32.8141H29.7926V31.1732H31.7194V29.5313V27.8925H33.6462V26.2506H35.573V27.8925H37.4988V29.5313H39.4256V31.1732H41.3524H43.2792H45.2039H47.1307H49.0575H50.9843V29.5313H52.9101V27.8925H54.8369V29.5313V31.1732V32.8141V34.4539V36.0948V37.7356V39.3755H56.7637V41.0173V42.6582H58.6895V44.298H60.6163V45.9389H62.5431V47.5797H64.4698V45.9389V44.298H66.3956V42.6582H68.3224V41.0173V39.3755V37.7356V36.0948V34.4539V32.8141V31.1732H66.3956Z" fill="white"/>
</svg>
