<svg width="116" height="99" viewBox="0 0 116 99" fill="none" xmlns="http://www.w3.org/2000/svg">
<path d="M176.596 91.5482V88.2783H172.757V85.0104H168.919V81.7405V78.4686H165.079V75.2008V71.9309V68.661V65.3931V62.1232V58.8513V55.5854H161.24V58.8513H157.402V62.1232H153.562H149.722H145.883H142.047H138.207H134.368V58.8513H130.528V55.5854H126.69V52.3135H122.85V55.5854H119.011V58.8513V62.1232H115.171V65.3931H111.333V68.661H107.494V71.9309H103.654H99.8163V75.2008H95.9786H92.1389H88.2992H84.4615H80.6218H76.7821H72.9424H69.1047V71.9309H65.2649H61.4252V68.661H57.5855V65.3931H53.7478V62.1232H49.9081H46.0684V65.3931H42.2307V68.661H38.391H34.5513H30.7116H26.8739H23.0342H19.1945V65.3931H15.3548V62.1232H11.5171V58.8513V55.5854H7.6774V52.3135V49.0436V45.7758V42.5059H3.83769V45.7758V49.0436V52.3135H0V55.5854V58.8513V62.1232V65.3931V68.661V71.9309H3.83769V75.2008V78.4686V81.7405H7.6774V85.0104V88.2783H11.5171V91.5482H15.3548V94.8181H19.1945H23.0342V98.086H26.8739H30.7116H34.5513H38.391H42.2307H46.0684H49.9081H53.7478H57.5855H61.4252H65.2649H69.1047H72.9424H76.7821H80.6218H84.4615H88.2992H92.1389H95.9786H99.8163H103.654H107.494H111.333H115.171H119.011H122.85H126.69H130.528H134.368H138.207H142.047H145.883H149.722H153.562H157.402H161.24H165.079H168.919H172.757H176.596V94.8181H180.436V91.5482H176.596Z" fill="#9ECEE3"/>
<path d="M188.108 62.1219V58.85V55.5841H184.27V52.3122H180.431V49.0423H176.591V45.7745H172.751H168.913H165.074V42.5046V39.2347V35.9668H161.234V32.6969V29.425V26.1551H157.396V22.8872H153.557V19.6173H149.717V16.3454H145.877V13.0796H142.041H138.202H134.362H130.522H126.685H122.845H119.005H115.166V16.3454H111.328V13.0796V9.80767H107.488V6.53777H103.648H99.8108V3.2699H95.9731V0H92.1334H88.2936H84.4559H80.6162H76.7765H72.9368V3.2699H69.0991H65.2594V6.53777H61.4197V9.80767H57.58V13.0796H53.7423V16.3454H49.9026V19.6173V22.8872V26.1551H46.0629H42.2252H38.3855H34.5458H30.7061H26.8684H23.0287V29.425H19.189H15.3493V32.6969H11.5116V35.9668H7.67188V39.2347V42.5046V45.7745V49.0423V52.3122V55.5841H11.5116V58.85V62.1219H15.3493V65.3918H19.189V68.6597H23.0287H26.8684H30.7061H34.5458H38.3855H42.2252V65.3918H46.0629V62.1219H49.9026H53.7423V65.3918H57.58V68.6597H61.4197V71.9296H65.2594H69.0991V75.1995H72.9368H76.7765H80.6162H84.4559H88.2936H92.1334H95.9731H99.8108V71.9296H103.648H107.488V68.6597H111.328V65.3918H115.166V62.1219H119.005V58.85V55.5841H122.845V52.3122H126.685V55.5841H130.522V58.85H134.362V62.1219H138.202H142.041H145.877H149.717H153.557H157.396V58.85H161.234V55.5841H165.074V58.85V62.1219V65.3918V68.6597V71.9296V75.1995V78.4673H168.913V81.7393V85.0091H172.751V88.277H176.591V91.5469H180.431V94.8168H184.27V91.5469V88.277H188.108V85.0091H191.948V81.7393V78.4673V75.1995V71.9296V68.6597V65.3918V62.1219H188.108Z" fill="white"/>
</svg>
