<svg width="76" height="80" viewBox="0 0 76 80" fill="none" xmlns="http://www.w3.org/2000/svg">
<g filter="url(#filter0_d_862_59321)">
<mask id="path-1-inside-1_862_59321" fill="white">
<path fill-rule="evenodd" clip-rule="evenodd" d="M70.0914 11.8013V23.458H5.98242V11.8013H11.8138V5.9699H23.4705V0.144531H52.6093V5.9699H64.2601V11.8013H70.0914ZM70.0907 40.943V29.2803H75.9161V52.5997H70.0907V64.2505H64.2593V70.0819H52.6086V75.9072H23.4697V70.0819H11.813V64.2505H5.98166V52.5997H0.15625V29.2803H5.98166V40.943H11.813V46.7684H29.2891V40.943H35.1205V35.1116H40.9518V40.943H46.7772V46.7684H64.2593V40.943H70.0907Z"/>
</mask>
<path fill-rule="evenodd" clip-rule="evenodd" d="M70.0914 11.8013V23.458H5.98242V11.8013H11.8138V5.9699H23.4705V0.144531H52.6093V5.9699H64.2601V11.8013H70.0914ZM70.0907 40.943V29.2803H75.9161V52.5997H70.0907V64.2505H64.2593V70.0819H52.6086V75.9072H23.4697V70.0819H11.813V64.2505H5.98166V52.5997H0.15625V29.2803H5.98166V40.943H11.813V46.7684H29.2891V40.943H35.1205V35.1116H40.9518V40.943H46.7772V46.7684H64.2593V40.943H70.0907Z" fill="#FFDB4B"/>
<path d="M70.0914 23.458V26.1161H72.7496V23.458H70.0914ZM70.0914 11.8013H72.7496V9.1431H70.0914V11.8013ZM5.98242 23.458H3.32426V26.1161H5.98242V23.458ZM5.98242 11.8013V9.1431H3.32426V11.8013H5.98242ZM11.8138 11.8013V14.4594H14.4719V11.8013H11.8138ZM11.8138 5.9699V3.31174H9.15562V5.9699H11.8138ZM23.4705 5.9699V8.62806H26.1287V5.9699H23.4705ZM23.4705 0.144531V-2.51363H20.8124V0.144531H23.4705ZM52.6093 0.144531H55.2675V-2.51363H52.6093V0.144531ZM52.6093 5.9699H49.9512V8.62806H52.6093V5.9699ZM64.2601 5.9699H66.9183V3.31174H64.2601V5.9699ZM64.2601 11.8013H61.6019V14.4594H64.2601V11.8013ZM70.0907 29.2803V26.6221H67.4325V29.2803H70.0907ZM70.0907 40.943V43.6011H72.7488V40.943H70.0907ZM75.9161 29.2803H78.5742V26.6221H75.9161V29.2803ZM75.9161 52.5997V55.2579H78.5742V52.5997H75.9161ZM70.0907 52.5997V49.9416H67.4325V52.5997H70.0907ZM70.0907 64.2505V66.9087H72.7488V64.2505H70.0907ZM64.2593 64.2505V61.5923H61.6012V64.2505H64.2593ZM64.2593 70.0819V72.74H66.9175V70.0819H64.2593ZM52.6086 70.0819V67.4237H49.9504V70.0819H52.6086ZM52.6086 75.9072V78.5654H55.2667V75.9072H52.6086ZM23.4697 75.9072H20.8116V78.5654H23.4697V75.9072ZM23.4697 70.0819H26.1279V67.4237H23.4697V70.0819ZM11.813 70.0819H9.15486V72.74H11.813V70.0819ZM11.813 64.2505H14.4712V61.5923H11.813V64.2505ZM5.98166 64.2505H3.3235V66.9087H5.98166V64.2505ZM5.98166 52.5997H8.63982V49.9416H5.98166V52.5997ZM0.15625 52.5997H-2.50191V55.2579H0.15625V52.5997ZM0.15625 29.2803V26.6221H-2.50191V29.2803H0.15625ZM5.98166 29.2803H8.63982V26.6221H5.98166V29.2803ZM5.98166 40.943H3.3235V43.6011H5.98166V40.943ZM11.813 40.943H14.4712V38.2848H11.813V40.943ZM11.813 46.7684H9.15486V49.4265H11.813V46.7684ZM29.2891 46.7684V49.4265H31.9473V46.7684H29.2891ZM29.2891 40.943V38.2848H26.631V40.943H29.2891ZM35.1205 40.943V43.6011H37.7786V40.943H35.1205ZM35.1205 35.1116V32.4535H32.4623V35.1116H35.1205ZM40.9518 35.1116H43.61V32.4535H40.9518V35.1116ZM40.9518 40.943H38.2937V43.6011H40.9518V40.943ZM46.7772 40.943H49.4354V38.2848H46.7772V40.943ZM46.7772 46.7684H44.1191V49.4265H46.7772V46.7684ZM64.2593 46.7684V49.4265H66.9175V46.7684H64.2593ZM64.2593 40.943V38.2848H61.6012V40.943H64.2593ZM72.7496 23.458V11.8013H67.4333V23.458H72.7496ZM5.98242 26.1161H70.0914V20.7998H5.98242V26.1161ZM3.32426 11.8013V23.458H8.64058V11.8013H3.32426ZM11.8138 9.1431H5.98242V14.4594H11.8138V9.1431ZM9.15562 5.9699V11.8013H14.4719V5.9699H9.15562ZM23.4705 3.31174H11.8138V8.62806H23.4705V3.31174ZM20.8124 0.144531V5.9699H26.1287V0.144531H20.8124ZM52.6093 -2.51363H23.4705V2.80269H52.6093V-2.51363ZM55.2675 5.9699V0.144531H49.9512V5.9699H55.2675ZM64.2601 3.31174H52.6093V8.62806H64.2601V3.31174ZM66.9183 11.8013V5.9699H61.6019V11.8013H66.9183ZM70.0914 9.1431H64.2601V14.4594H70.0914V9.1431ZM67.4325 29.2803V40.943H72.7488V29.2803H67.4325ZM75.9161 26.6221H70.0907V31.9384H75.9161V26.6221ZM78.5742 52.5997V29.2803H73.2579V52.5997H78.5742ZM70.0907 55.2579H75.9161V49.9416H70.0907V55.2579ZM72.7488 64.2505V52.5997H67.4325V64.2505H72.7488ZM64.2593 66.9087H70.0907V61.5923H64.2593V66.9087ZM66.9175 70.0819V64.2505H61.6012V70.0819H66.9175ZM52.6086 72.74H64.2593V67.4237H52.6086V72.74ZM55.2667 75.9072V70.0819H49.9504V75.9072H55.2667ZM23.4697 78.5654H52.6086V73.2491H23.4697V78.5654ZM20.8116 70.0819V75.9072H26.1279V70.0819H20.8116ZM11.813 72.74H23.4697V67.4237H11.813V72.74ZM9.15486 64.2505V70.0819H14.4712V64.2505H9.15486ZM5.98166 66.9087H11.813V61.5923H5.98166V66.9087ZM3.3235 52.5997V64.2505H8.63982V52.5997H3.3235ZM0.15625 55.2579H5.98166V49.9416H0.15625V55.2579ZM-2.50191 29.2803V52.5997H2.81441V29.2803H-2.50191ZM5.98166 26.6221H0.15625V31.9384H5.98166V26.6221ZM8.63982 40.943V29.2803H3.3235V40.943H8.63982ZM11.813 38.2848H5.98166V43.6011H11.813V38.2848ZM14.4712 46.7684V40.943H9.15486V46.7684H14.4712ZM29.2891 44.1102H11.813V49.4265H29.2891V44.1102ZM26.631 40.943V46.7684H31.9473V40.943H26.631ZM35.1205 38.2848H29.2891V43.6011H35.1205V38.2848ZM32.4623 35.1116V40.943H37.7786V35.1116H32.4623ZM40.9518 32.4535H35.1205V37.7698H40.9518V32.4535ZM43.61 40.943V35.1116H38.2937V40.943H43.61ZM46.7772 38.2848H40.9518V43.6011H46.7772V38.2848ZM49.4354 46.7684V40.943H44.1191V46.7684H49.4354ZM64.2593 44.1102H46.7772V49.4265H64.2593V44.1102ZM61.6012 40.943V46.7684H66.9175V40.943H61.6012ZM70.0907 38.2848H64.2593V43.6011H70.0907V38.2848Z" fill="#242A53" mask="url(#path-1-inside-1_862_59321)"/>
</g>
<path d="M58.4387 52.5977H52.6133V58.4231H58.4387V52.5977Z" fill="#502A1B"/>
<path d="M52.6076 58.418H23.4688V64.2493H52.6076V58.418Z" fill="#502A1B"/>
<path d="M23.472 52.5977H17.6406V58.4231H23.472V52.5977Z" fill="#502A1B"/>
<path d="M0.15625 23.4531V29.2725H5.98166V40.9352H11.813V29.2725H23.4697V35.1039H17.6384V40.9352H11.813V46.7606H29.2891V40.9352H35.1205V35.1039H40.9518V40.9352H46.7772V29.2725H58.428V35.1039H52.6086V40.9352H46.7772V46.7606H64.2593V40.9352H70.0907V29.2725H75.9161V23.4531H0.15625Z" fill="#242A53"/>
<path d="M46.7812 29.2891V40.9518H52.6126V35.1204H58.432V29.2891H46.7812Z" fill="#0091EA"/>
<path d="M11.8125 29.2891V40.9518H17.6379V35.1204H23.4692V29.2891H11.8125Z" fill="#0091EA"/>
<defs>
<filter id="filter0_d_862_59321" x="0.15625" y="0.144531" width="75.7617" height="79.749" filterUnits="userSpaceOnUse" color-interpolation-filters="sRGB">
<feFlood flood-opacity="0" result="BackgroundImageFix"/>
<feColorMatrix in="SourceAlpha" type="matrix" values="0 0 0 0 0 0 0 0 0 0 0 0 0 0 0 0 0 0 127 0" result="hardAlpha"/>
<feOffset dy="3.98724"/>
<feComposite in2="hardAlpha" operator="out"/>
<feColorMatrix type="matrix" values="0 0 0 0 0.141176 0 0 0 0 0.164706 0 0 0 0 0.32549 0 0 0 1 0"/>
<feBlend mode="normal" in2="BackgroundImageFix" result="effect1_dropShadow_862_59321"/>
<feBlend mode="normal" in="SourceGraphic" in2="effect1_dropShadow_862_59321" result="shape"/>
</filter>
</defs>
</svg>
