<svg width="345" height="613" viewBox="0 0 345 613" fill="none" xmlns="http://www.w3.org/2000/svg">
<path d="M1246.08 612.053V0.90625H1235.69V50.331H1216.32V0.90625H1185.01V33.2925H1134.34V82.7173H1089.63V0.90625H1053.85V48.6316H1004.67V0.90625H970.387V45.2239H928.658V0.90625H879.477V21.3612H810.914V0.90625H769.184V60.5542H728.937V0.90625H697.64V33.2925H639.509V72.4855H584.366V17.9535H547.108V46.9234H514.312V12.8376H468.112V53.7388H399.549V0.90625H344.406V26.4771H298.198V0.90625H256.468V24.7689H193.866V67.3783H153.627V0.90625H117.859V36.7002H67.1796V0.90625H41.8441V23.0607H-35.6616V77.6014H-71.4295V0.90625H-125.081V31.5843H-193V612.053H1246.08Z" fill="#D1F6FF"/>
</svg>
