<svg width="345" height="587" viewBox="0 0 345 587" fill="none" xmlns="http://www.w3.org/2000/svg">
<path d="M1246.08 611.975V0.828125H1235.69V50.2529H1216.32V0.828125H1185.01V33.2057H1134.34V82.6305H1089.63V0.828125H1053.85V48.5534H1004.67V0.828125H970.387V45.137H928.658V0.828125H879.477V21.283H810.913V0.828125H769.184V60.476H728.937V0.828125H697.64V33.2057H639.509V72.4074H584.366V17.8754H547.108V46.8452H514.312V12.7595H468.112V53.6606H399.549V0.828125H344.406V26.3903H298.198V0.828125H256.468V24.6821H193.866V67.2915H153.627V0.828125H117.859V36.6134H67.1796V0.828125H41.8441V22.9826H-35.6616V77.5233H-71.4295V0.828125H-125.081V31.5062H-193V611.975H1246.08Z" fill="url(#paint0_linear_862_75256)"/>
<defs>
<linearGradient id="paint0_linear_862_75256" x1="526.54" y1="0.828125" x2="526.54" y2="611.975" gradientUnits="userSpaceOnUse">
<stop stop-color="#E4FAFF"/>
<stop offset="1" stop-color="#C7DFE9"/>
</linearGradient>
</defs>
</svg>
