<svg width="345" height="281" viewBox="0 0 345 281" fill="none" xmlns="http://www.w3.org/2000/svg">
<g opacity="0.5">
<path d="M44.2344 283.557V298.479H59.1565V283.557H74.0787V268.635H59.1565H44.2344V283.557Z" fill="#1A1732"/>
<path d="M89.0003 268.633H74.0781V283.555H89.0003V268.633Z" fill="#AF6E41"/>
<path d="M103.934 59.6995V74.6217H118.856V89.5558H103.934V104.478H118.856H133.778H148.701V119.4H163.623V134.322H178.545V119.4V104.478H163.623V89.5558H148.701H133.778V74.6217V59.6995H121.289H118.856V51.0876V44.7773H103.934H89V59.6995H103.934Z" fill="#4CA056"/>
<path d="M14.3831 14.9222H29.3053V29.8384H44.2275V44.7665V59.6887H29.3053V74.6109H14.3831V89.545H29.3053H44.2275V104.467H59.1496V119.389H74.0718V134.311H59.1496V149.234H44.2275V164.156H59.1496H74.0718V179.084V194V208.928H59.1496V223.862H44.2275H29.3053H14.3831V238.779H29.3053H44.2275V253.707H59.1496V268.629H74.0718H88.994V253.707H103.928V238.779H118.85H133.772H148.695V223.862H163.617V208.928V194V179.084V164.156H148.695V149.234H133.772H118.85H103.928V164.156H118.85V179.084H133.772V194V208.928H118.85V223.862H103.928H88.994V208.928V194V179.084V164.156V149.234V134.311V119.389V104.467H74.0718V89.545H59.1496V74.6109V59.6887H74.0718V44.7665H59.1496V29.8384V14.9222H44.2275V0H29.3053H14.3831H-0.539062V14.9222H14.3831Z" fill="#4CA056"/>
<path d="M-0.528606 283.557H14.3936H29.3157V268.635H14.3936H-0.528606H-15.4508H-30.3789V283.557H-15.4508H-0.528606Z" fill="#4CA056"/>
<path d="M-75.1629 44.7367V59.6589V74.5811V89.5151H-90.085V104.437H-105.007H-119.929V119.359H-105.007H-90.085H-75.1629H-60.2407V134.282H-45.3066V149.204H-30.3845V164.126V179.054V193.97H-45.3066H-60.2407V208.898H-75.1629V193.97H-90.085H-105.007V179.054H-119.929V193.97H-134.852V208.898V223.833H-119.929H-105.007V238.749H-90.085H-75.1629H-60.2407H-45.3066H-30.3845V223.833V208.898H-15.4563H-0.534149H14.388V193.97V179.054V164.126V149.204V134.282V119.359H-0.534149V104.437H-15.4563H-30.3845V89.5151H-45.3066H-60.2407V74.5811V59.6589V44.7367V29.8086H-75.1629H-90.085V44.7367H-75.1629Z" fill="#4CA056"/>
<path d="M163.623 119.409H148.701V104.486H133.778H118.856H103.934H89V119.409V134.331V149.253V164.175V179.103V194.019V208.948V223.882H103.934H118.856V208.948H133.778V194.019V179.103H118.856V164.175H103.934V149.253H118.856H133.778H148.701V164.175H163.623V179.103H178.545V164.175V149.253V134.331H163.623V119.409Z" fill="#95C35B"/>
<path d="M118.856 74.6273H103.934V59.7051H89V74.6273V89.5613H103.934H118.856V74.6273Z" fill="#95C35B"/>
<path d="M103.934 253.709H89V268.631H103.934V253.709Z" fill="#95C35B"/>
<path d="M29.3053 134.327H44.2275V149.249H59.1496V134.327H74.0718V119.405H59.1496V104.483H44.2275V89.5605H29.3053H14.3831V104.483H-0.539062V119.405H14.3831H29.3053V134.327Z" fill="#95C35B"/>
<path d="M-15.4531 223.855V238.772V253.7H-0.530949V268.622H14.3912H29.3134V283.544H44.2356V268.622H59.1578V253.7H44.2356V238.772H29.3134H14.3912V223.855H-0.530949H-15.4531Z" fill="#95C35B"/>
<path d="M29.3128 208.919V223.853H44.235H59.1571V208.919H74.0793V193.991V179.075V164.147H59.1571H44.235V149.225H29.3128H14.3906V164.147V179.075V193.991H29.3128V208.919Z" fill="#95C35B"/>
<path d="M-30.3825 14.9222V29.8384H-45.3047V44.7665H-30.3825H-15.4544V59.6887V74.6109V89.545H-0.532211H14.39V74.6109H29.3121V59.6887H44.2343V44.7665V29.8384H29.3121V14.9222H14.39H-0.532211V0H-15.4544V14.9222H-30.3825Z" fill="#95C35B"/>
<path d="M163.623 193.994V208.922V223.857H148.701V238.773H133.778H118.856H103.934V253.701V268.623H89V283.545H103.934H118.856V268.623H133.778V253.701H148.701H163.623V238.773H178.545V223.857H193.467V208.922V193.994V179.078H178.545H163.623V193.994Z" fill="#B8C64F"/>
<path d="M59.1562 59.6995V74.6217V89.5558H74.0784V104.478H89.0006H103.935V89.5558H89.0006V74.6217V59.6995V44.7773H74.0784V59.6995H59.1562Z" fill="#B8C64F"/>
<path d="M-0.528606 268.633V253.71H-15.4508V238.782V223.866H-0.528606H14.3936H29.3157V208.932V194.004H14.3936V208.932H-0.528606H-15.4508H-30.3789V223.866V238.782V253.71V268.633H-15.4508H-0.528606Z" fill="#B8C64F"/>
<path d="M44.235 149.214V134.291H29.3128V119.369H14.3906V134.291V149.214H29.3128H44.235Z" fill="#B8C64F"/>
<path d="M-60.2422 59.6887V74.6109V89.5449H-45.3081H-30.386V104.467H-15.4578H-0.535648H14.3865V89.5449H-0.535648H-15.4578V74.6109V59.6887V44.7665H-30.386H-45.3081V29.8384H-30.386V14.9222H-15.4578V0H-30.386H-45.3081V14.9222H-60.2422V29.8384V44.7665V59.6887Z" fill="#B8C64F"/>
</g>
<g opacity="0.5">
<path d="M299.96 77.5804V91.4677V105.355V119.253H286.072V133.141H272.185H258.297V147.028H272.185H286.072H299.96H313.847V160.915H327.745V174.803H341.633V188.69V202.583V216.465H327.745H313.847V230.358H299.96V216.465H286.072H272.185V202.583H258.297V216.465H244.41V230.358V244.256H258.297H272.185V258.138H286.072H299.96H313.847H327.745H341.633V244.256V230.358H355.525H369.413H383.3V216.465V202.583V188.69V174.803V160.915V147.028H369.413V133.141H355.525H341.633V119.253H327.745H313.847V105.355V91.4677V77.5804V63.6875H299.96H286.072V77.5804H299.96Z" fill="#4CA056"/>
<path d="M341.633 49.8307V63.7125H327.746V77.6054H341.633H355.526V91.4927V105.38V119.278H369.414H383.301V105.38H397.188V91.4927H411.076V77.6054V63.7125H397.188V49.8307H383.301H369.414V35.9434H355.526V49.8307H341.633Z" fill="#95C35B"/>
<path d="M341.633 258.155H327.745H313.847H299.96H286.072H272.185V244.273H258.297H244.41V258.155H258.297V272.048H272.185H286.072H299.96H313.847H327.745V285.935H341.633V272.048V258.155Z" fill="#95C35B"/>
<path d="M286.067 160.923H272.18V174.81V188.697H286.067V202.59H299.954H313.842V216.472H327.74H341.627V202.59V188.697V174.81H327.74V160.923H313.842V147.035H299.954V160.923H286.067Z" fill="#95C35B"/>
<path d="M258.299 216.502V202.62V188.727V174.84V160.952V147.065V133.178H272.186H286.073V119.29H299.961V105.392V91.5045V77.6172H286.073V91.5045H272.186H258.299V105.392V119.29H244.411V133.178H230.524V147.065H216.637V160.952V174.84V188.727H230.524V202.62V216.502V230.395H244.411V216.502H258.299Z" fill="#95C35B"/>
<path d="M369.421 285.946V272.058H355.534V258.165V244.283H369.421H383.308H397.196V230.385V216.492H383.308V230.385H369.421H355.534H341.641V244.283V258.165V272.058V285.946H355.534H369.421Z" fill="#B8C64F"/>
<path d="M313.844 91.4927V105.38V119.278H327.742H341.629V133.166H355.522H369.41H383.297V119.278H369.41H355.522V105.38V91.4927V77.6054H341.629H327.742V63.7125H341.629V49.8307H355.522V35.9434H341.629H327.742V49.8307H313.844V63.7125V77.6054V91.4927Z" fill="#B8C64F"/>
<path d="M202.751 216.465H216.638V230.358V244.256V258.138H230.525V272.031H244.413V285.918H258.3V299.805H272.187H286.075V285.918H299.962V299.805H313.849H327.748H341.635V285.918H327.748V272.031H313.849H299.962H286.075H272.187H258.3V258.138H244.413V244.256V230.358H230.525V216.465V202.583V188.69H216.638V174.803V160.915V147.028H230.525V133.141H244.413V119.253H258.3V105.355V91.4677H272.187H286.075V77.5804V63.6875H272.187V77.5804H258.3H244.413V91.4677V105.355H230.525V119.253H216.638V133.141H202.751V147.028H188.863V160.915V174.803V188.69V202.583H202.751V216.465Z" fill="#B8C64F"/>
<path d="M258.301 174.81V188.697V202.59H272.188V216.472H286.075H299.963V230.365H313.85V216.472V202.59H299.963H286.075V188.697H272.188V174.81V160.923H286.075H299.963V147.035H286.075H272.188H258.301V160.923V174.81Z" fill="#B8C64F"/>
</g>
<path d="M-29.6352 249.179V264.311V279.449H-44.7612V294.569H-59.8872H-75.0132H-90.1392V309.701V324.827H-105.277V339.953H-90.1392H-75.0132V324.827H-59.8872V309.701H-44.7612H-29.6352V294.569H-14.5091V279.449H0.61689V264.311V249.179V234.059H-14.5091H-29.6352V249.179Z" fill="#B8C64F"/>
<path d="M347.012 164.347V174.558H357.222V184.776H347.012V194.986H357.222H367.432H377.643V205.197H387.853V215.407H398.064V205.197V194.986H387.853V184.776H377.643H367.432V174.558V164.347H358.886H357.222V158.454V154.137H347.012H336.793V164.347H347.012Z" fill="#4CA056"/>
<path d="M285.738 133.708H295.948V143.915H306.159V154.129V164.34H295.948V174.55H285.738V184.769H295.948H306.159V194.979H316.369V205.189H326.579V215.4H316.369V225.61H306.159V235.821H316.369H326.579V246.035V256.241V266.456H316.369V276.674H306.159H295.948H285.738V286.881H295.948H306.159V297.095H316.369V307.306H326.579H336.79V297.095H347.008V286.881H357.219H367.429H377.64V276.674H387.85V266.456V256.241V246.035V235.821H377.64V225.61H367.429H357.219H347.008V235.821H357.219V246.035H367.429V256.241V266.456H357.219V276.674H347.008H336.79V266.456V256.241V246.035V235.821V225.61V215.4V205.189V194.979H326.579V184.769H316.369V174.55V164.34H326.579V154.129H316.369V143.915V133.708H306.159V123.498H295.948H285.738H275.527V133.708H285.738Z" fill="#4CA056"/>
<path d="M224.459 154.109V164.319V174.53V184.748H214.248V194.959H204.038H193.828V205.169H204.038H214.248H224.459H234.669V215.38H244.888V225.59H255.098V235.8V246.015V256.221H244.888H234.669V266.436H224.459V256.221H214.248H204.038V246.015H193.828V256.221H183.617V266.436V276.654H193.828H204.038V286.861H214.248H224.459H234.669H244.888H255.098V276.654V266.436H265.313H275.523H285.733V256.221V246.015V235.8V225.59V215.38V205.169H275.523V194.959H265.313H255.098V184.748H244.888H234.669V174.53V164.319V154.109V143.895H224.459H214.248V154.109H224.459Z" fill="#4CA056"/>
<path d="M387.853 205.203H377.643V194.992H367.432H357.222H347.012H336.793V205.203V215.413V225.623V235.834V246.048V256.255V266.469V276.688H347.012H357.222V266.469H367.432V256.255V246.048H357.222V235.834H347.012V225.623H357.222H367.432H377.643V235.834H387.853V246.048H398.064V235.834V225.623V215.413H387.853V205.203Z" fill="#95C35B"/>
<path d="M357.222 174.562H347.012V164.352H336.793V174.562V184.781H347.012H357.222V174.562Z" fill="#95C35B"/>
<path d="M295.944 215.411H306.155V225.621H316.365V215.411H326.575V205.2H316.365V194.99H306.155V184.779H295.944H285.734V194.99H275.523V205.2H285.734H295.944V215.411Z" fill="#95C35B"/>
<path d="M265.32 276.67V286.876V297.091H275.531V307.301H285.741H295.952V317.512H306.162V307.301H316.372V297.091H306.162V286.876H295.952H285.741V276.67H275.531H265.32Z" fill="#95C35B"/>
<path d="M295.953 266.451V276.67H306.163H316.373V266.451H326.584V256.237V246.03V235.816H316.373H306.163V225.605H295.953H285.742V235.816V246.03V256.237H295.953V266.451Z" fill="#95C35B"/>
<path d="M255.101 133.708V143.915H244.891V154.129H255.101H265.316V164.34V174.55V184.769H275.526H285.736V174.55H295.947V164.34H306.157V154.129V143.915H295.947V133.708H285.736H275.526V123.498H265.316V133.708H255.101Z" fill="#95C35B"/>
<path d="M255.102 286.876H244.892H234.673H224.463H214.252H204.042V276.67H193.832H183.621V286.876H193.832V297.091H204.042H214.252H224.463H234.673H244.892V307.301H255.102V297.091V286.876Z" fill="#95C35B"/>
<path d="M214.249 215.386H204.039V225.597V235.807H214.249V246.021H224.46H234.67V256.228H244.889H255.099V246.021V235.807V225.597H244.889V215.386H234.67V205.176H224.46V215.386H214.249Z" fill="#95C35B"/>
<path d="M193.834 256.249V246.043V235.828V225.618V215.407V205.197V194.986H204.045H214.255V184.776H224.466V174.558V164.347V154.137H214.255V164.347H204.045H193.834V174.558V184.776H183.624V194.986H173.414V205.197H163.203V215.407V225.618V235.828H173.414V246.043V256.249V266.463H183.624V256.249H193.834Z" fill="#95C35B"/>
<path d="M387.853 256.238V266.452V276.671H377.643V286.877H367.432H357.222H347.012V297.091V307.302H336.793V317.512H347.012H357.222V307.302H367.432V297.091H377.643H387.853V286.877H398.064V276.671H408.274V266.452V256.238V246.031H398.064H387.853V256.238Z" fill="#B8C64F"/>
<path d="M316.375 164.347V174.558V184.776H326.585V194.986H336.796H347.014V184.776H336.796V174.558V164.347V154.137H326.585V164.347H316.375Z" fill="#B8C64F"/>
<path d="M275.534 307.308V297.098H265.324V286.884V276.677H275.534H285.745H295.955V266.459V256.244H285.745V266.459H275.534H265.324H255.109V276.677V286.884V297.098V307.308H265.324H275.534Z" fill="#B8C64F"/>
<path d="M306.163 225.597V215.386H295.953V205.176H285.742V215.386V225.597H295.953H306.163Z" fill="#B8C64F"/>
<path d="M234.672 164.34V174.55V184.769H244.89H255.101V194.979H265.315H275.526H285.736V184.769H275.526H265.315V174.55V164.34V154.129H255.101H244.89V143.915H255.101V133.708H265.315V123.498H255.101H244.89V133.708H234.672V143.915V154.129V164.34Z" fill="#B8C64F"/>
<path d="M152.992 256.221H163.202V266.436V276.654V286.861H173.412V297.075H183.623V307.285H193.833V317.496H204.044H214.254V307.285H224.465V317.496H234.675H244.893H255.104V307.285H244.893V297.075H234.675H224.465H214.254H204.044H193.833V286.861H183.623V276.654V266.436H173.412V256.221V246.015V235.8H163.202V225.59V215.38V205.169H173.412V194.959H183.623V184.748H193.833V174.53V164.319H204.044H214.254V154.109V143.895H204.044V154.109H193.833H183.623V164.319V174.53H173.412V184.748H163.202V194.959H152.992V205.169H142.781V215.38V225.59V235.8V246.015H152.992V256.221Z" fill="#B8C64F"/>
<path d="M193.832 225.597V235.807V246.021H204.042V256.228H214.253H224.463V266.442H234.674V256.228V246.021H224.463H214.253V235.807H204.042V225.597V215.386H214.253H224.463V205.176H214.253H204.042H193.832V215.386V225.597Z" fill="#B8C64F"/>
<path d="M352.062 236.868H362.272V247.082V257.301V267.507H372.483V277.722H382.693V287.932H392.904V298.142H403.114H413.324V287.932H423.535V298.142H433.745H443.964H454.174V287.932H443.964V277.722H433.745H423.535H413.324H403.114H392.904V267.507H382.693V257.301V247.082H372.483V236.868V226.661V216.447H362.272V206.236V196.026V185.816H372.483V175.605H382.693V165.395H392.904V155.176V144.966H403.114H413.324V134.755V124.541H403.114V134.755H392.904H382.693V144.966V155.176H372.483V165.395H362.272V175.605H352.062V185.816H341.852V196.026V206.236V216.447V226.661H352.062V236.868Z" fill="#B8C64F"/>
<path d="M155 134.979V146.602H166.623V158.235H155V169.859H166.623H178.247H189.87V181.482H201.494V193.106H213.117V181.482V169.859H201.494V158.235H189.87H178.247V146.602V134.979H168.518H166.623V128.271V123.355H155H143.367V134.979H155Z" fill="#4CA056"/>
<path d="M85.2485 100.1H96.8719V111.719H108.495V123.347V134.97H96.8719V146.594H85.2485V158.227H96.8719H108.495V169.85H120.119V181.474H131.742V193.097H120.119V204.72H108.495V216.344H120.119H131.742V227.972V239.591V251.219H120.119V262.852H108.495H96.8719H85.2485V274.471H96.8719H108.495V286.099H120.119V297.722H131.742H143.366V286.099H154.999V274.471H166.622H178.245H189.869V262.852H201.492V251.219V239.591V227.972V216.344H189.869V204.72H178.245H166.622H154.999V216.344H166.622V227.972H178.245V239.591V251.219H166.622V262.852H154.999H143.366V251.219V239.591V227.972V216.344V204.72V193.097V181.474V169.85H131.742V158.227H120.119V146.594V134.97H131.742V123.347H120.119V111.719V100.1H108.495V88.4766H96.8719H85.2485H73.625V100.1H85.2485Z" fill="#4CA056"/>
<path d="M15.4939 123.327V134.951V146.574V158.207H3.87038V169.83H-7.75308H-19.3765V181.454H-7.75308H3.87038H15.4939H27.1173V193.077H38.75V204.701H50.3735V216.324V227.952V239.571H38.75H27.1173V251.199H15.4939V239.571H3.87038H-7.75308V227.952H-19.3765V239.571H-31V251.199V262.832H-19.3765H-7.75308V274.451H3.87038H15.4939H27.1173H38.75H50.3735V262.832V251.199H62.0016H73.6251H85.2485V239.571V227.952V216.324V204.701V193.077V181.454H73.6251V169.83H62.0016H50.3735V158.207H38.75H27.1173V146.574V134.951V123.327V111.699H15.4939H3.87038V123.327H15.4939Z" fill="#4CA056"/>
<path d="M201.494 181.489H189.87V169.865H178.247H166.623H155H143.367V181.489V193.112V204.736V216.359V227.987V239.606V251.234V262.867H155H166.623V251.234H178.247V239.606V227.987H166.623V216.359H155V204.736H166.623H178.247H189.87V216.359H201.494V227.987H213.117V216.359V204.736V193.112H201.494V181.489Z" fill="#95C35B"/>
<path d="M166.623 146.606H155V134.982H143.367V146.606V158.239H155H166.623V146.606Z" fill="#95C35B"/>
<path d="M96.8719 193.109H108.495V204.732H120.119V193.109H131.742V181.485H120.119V169.862H108.495V158.238H96.8719H85.2485V169.862H73.625V181.485H85.2485H96.8719V193.109Z" fill="#95C35B"/>
<path d="M62.0039 262.846V274.465V286.093H73.6274V297.716H85.2508H96.8743V309.34H108.498V297.716H120.121V286.093H108.498V274.465H96.8743H85.2508V262.846H73.6274H62.0039Z" fill="#95C35B"/>
<path d="M96.8734 251.211V262.844H108.497H120.12V251.211H131.744V239.583V227.964V216.336H120.12H108.497V204.713H96.8734H85.25V216.336V227.964V239.583H96.8734V251.211Z" fill="#95C35B"/>
<path d="M50.3735 100.1V111.719H38.75V123.347H50.3735H62.0016V134.97V146.594V158.227H73.625H85.2485V146.594H96.872V134.97H108.495V123.347V111.719H96.872V100.1H85.2485H73.625V88.4766H62.0016V100.1H50.3735Z" fill="#95C35B"/>
<path d="M50.3735 274.465H38.75H27.1173H15.4939H3.87039H-7.75307V262.846H-19.3765H-31V274.465H-19.3765V286.093H-7.75307H3.87039H15.4939H27.1173H38.75V297.716H50.3735V286.093V274.465Z" fill="#95C35B"/>
<path d="M3.86565 193.081H-7.75781V204.704V216.327H3.86565V227.956H15.4891H27.1126V239.574H38.7453H50.3688V227.956V216.327V204.704H38.7453V193.081H27.1126V181.457H15.4891V193.081H3.86565Z" fill="#95C35B"/>
<path d="M-19.3757 239.599V227.981V216.352V204.729V193.106V181.482V169.859H-7.75225H3.87121V158.235H15.4947V146.602V134.979V123.355H3.87121V134.979H-7.75225H-19.3757V146.602V158.235H-30.9992V169.859H-42.6226V181.482H-54.2461V193.106V204.729V216.352H-42.6226V227.981V239.599V251.227H-30.9992V239.599H-19.3757Z" fill="#95C35B"/>
<path d="M201.494 239.586V251.214V262.846H189.87V274.465H178.247H166.623H155V286.093V297.717H143.367V309.34H155H166.623V297.717H178.247V286.093H189.87H201.494V274.465H213.117V262.846H224.741V251.214V239.586V227.967H213.117H201.494V239.586Z" fill="#B8C64F"/>
<path d="M120.121 134.979V146.602V158.235H131.745V169.859H143.368H155.001V158.235H143.368V146.602V134.979V123.355H131.745V134.979H120.121Z" fill="#B8C64F"/>
<path d="M73.6305 297.725V286.102H62.007V274.473V262.855H73.6305H85.2539H96.8774V251.222V239.594H85.2539V251.222H73.6305H62.007H50.3789V262.855V274.473V286.102V297.725H62.007H73.6305Z" fill="#B8C64F"/>
<path d="M108.497 204.704V193.081H96.8734V181.457H85.25V193.081V204.704H96.8734H108.497Z" fill="#B8C64F"/>
<path d="M27.1172 134.97V146.594V158.227H38.7499H50.3734V169.85H62.0015H73.6249H85.2484V158.227H73.6249H62.0015V146.594V134.97V123.347H50.3734H38.7499V111.719H50.3734V100.1H62.0015V88.4766H50.3734H38.7499V100.1H27.1172V111.719V123.347V134.97Z" fill="#B8C64F"/>
<path d="M-65.8687 239.571H-54.2453V251.199V262.832V274.451H-42.6218V286.079H-30.9983V297.702H-19.3749V309.326H-7.7514H3.87206V297.702H15.4955V309.326H27.119H38.7517H50.3752V297.702H38.7517V286.079H27.119H15.4955H3.87206H-7.7514H-19.3749V274.451H-30.9983V262.832V251.199H-42.6218V239.571V227.952V216.324H-54.2453V204.701V193.077V181.454H-42.6218V169.83H-30.9983V158.207H-19.3749V146.574V134.951H-7.7514H3.87206V123.327V111.699H-7.7514V123.327H-19.3749H-30.9983V134.951V146.574H-42.6218V158.207H-54.2453V169.83H-65.8687V181.454H-77.4922V193.077V204.701V216.324V227.952H-65.8687V239.571Z" fill="#B8C64F"/>
<path d="M-19.375 204.704V216.327V227.956H-7.75154V239.574H3.87193H15.4954V251.202H27.1189V239.574V227.956H15.4954H3.87193V216.327H-7.75154V204.704V193.081H3.87193H15.4954V181.457H3.87193H-7.75154H-19.375V193.081V204.704Z" fill="#B8C64F"/>
</svg>
