<svg width="22" height="22" viewBox="0 0 22 22" fill="none" xmlns="http://www.w3.org/2000/svg">
<path d="M11.1199 17.0625L10.0722 16.0149L14.2182 11.8614L5.17578 11.8614L5.17578 10.3754L14.2182 10.3754L10.0722 6.22196L11.1199 5.17432L17.064 11.1184L11.1199 17.0625Z" fill="#16114F"/>
<rect width="2.66667" height="16.6667" transform="matrix(-1.19249e-08 1 1 1.19249e-08 2.66406 0)" fill="#16114F"/>
<rect width="2.66667" height="16.6667" transform="matrix(-1.19249e-08 1 1 1.19249e-08 2.66797 19.3281)" fill="#16114F"/>
<rect width="2.66667" height="2.66667" transform="matrix(-1.19249e-08 1 1 1.19249e-08 1.33203 1.33594)" fill="#16114F"/>
<rect width="2.66667" height="2.66667" transform="matrix(-1.19249e-08 1 1 1.19249e-08 1.33594 18)" fill="#16114F"/>
<rect width="2.66667" height="2.66667" transform="matrix(-1.19249e-08 1 1 1.19249e-08 18 18)" fill="#16114F"/>
<rect width="2.66667" height="2.66667" transform="matrix(-1.19249e-08 1 1 1.19249e-08 18 1.33594)" fill="#16114F"/>
<rect width="2.66667" height="16.6667" transform="matrix(1 -3.17865e-08 -3.17865e-08 -1 19.332 19.3281)" fill="#16114F"/>
<rect width="2.66667" height="16.6667" transform="matrix(1 -3.17865e-08 -3.17865e-08 -1 0 19.3281)" fill="#16114F"/>
</svg>
