<svg width="80" height="81" viewBox="0 0 80 81" fill="none" xmlns="http://www.w3.org/2000/svg">
<rect x="5" y="6.90625" width="69.3179" height="69.3179" fill="#C7EBF3"/>
<mask id="path-2-inside-1_862_47988" fill="white">
<path fill-rule="evenodd" clip-rule="evenodd" d="M43.457 22.6719H53.8904V26.0469H60.6421V28.4219H64.018V31.7974H60.6425V34.9458H57.2627V37.7739H53.8886V40.1484H57.2641V43.5234H57.2655V46.8984H57.2687V50.2739H53.8913V53.4224H50.82V56.2427H43.4599V58.6255H25.9688V56.2427H18.9062V53.4224H15.2266V50.0469H25.9688V46.8989H22.2832V43.5239H18.9062V41.1411V40.1484V37.7739H15.2266V34.9458V34.3984V32.7974V31.5703V29.4219H18.9082V26.0469H22.2837V29.4219H25.9668V31.5703H29.3422V34.3984H36.4001V37.7656H39.7715V34.9458H36.4004V31.7974V31.5703V28.4219H39.7754V26.0469H43.457V22.6719ZM60.6445 22.6719H64.02V26.0474H60.6445V22.6719Z"/>
</mask>
<path fill-rule="evenodd" clip-rule="evenodd" d="M43.457 22.6719H53.8904V26.0469H60.6421V28.4219H64.018V31.7974H60.6425V34.9458H57.2627V37.7739H53.8886V40.1484H57.2641V43.5234H57.2655V46.8984H57.2687V50.2739H53.8913V53.4224H50.82V56.2427H43.4599V58.6255H25.9688V56.2427H18.9062V53.4224H15.2266V50.0469H25.9688V46.8989H22.2832V43.5239H18.9062V41.1411V40.1484V37.7739H15.2266V34.9458V34.3984V32.7974V31.5703V29.4219H18.9082V26.0469H22.2837V29.4219H25.9668V31.5703H29.3422V34.3984H36.4001V37.7656H39.7715V34.9458H36.4004V31.7974V31.5703V28.4219H39.7754V26.0469H43.457V22.6719ZM60.6445 22.6719H64.02V26.0474H60.6445V22.6719Z" fill="#16114F"/>
<path d="M53.8904 22.6719H54.4421V22.1202H53.8904V22.6719ZM43.457 22.6719V22.1202H42.9053V22.6719H43.457ZM53.8904 26.0469H53.3386V26.5986H53.8904V26.0469ZM60.6421 26.0469H61.1938V25.4952H60.6421V26.0469ZM60.6421 28.4219H60.0903V28.9736H60.6421V28.4219ZM64.018 28.4219H64.5698V27.8702H64.018V28.4219ZM64.018 31.7974V32.3491H64.5698V31.7974H64.018ZM60.6425 31.7974V31.2456H60.0908V31.7974H60.6425ZM60.6425 34.9458V35.4975H61.1943V34.9458H60.6425ZM57.2627 34.9458V34.3941H56.7109V34.9458H57.2627ZM57.2627 37.7739V38.3256H57.8144V37.7739H57.2627ZM53.8886 37.7739V37.2222H53.3369V37.7739H53.8886ZM53.8886 40.1484H53.3369V40.7002H53.8886V40.1484ZM57.2641 40.1484H57.8158V39.5967H57.2641V40.1484ZM57.2641 43.5234H56.7124V44.0752H57.2641V43.5234ZM57.2655 43.5234H57.8173V42.9717H57.2655V43.5234ZM57.2655 46.8984H56.7138V47.4502H57.2655V46.8984ZM57.2687 46.8984H57.8205V46.3467H57.2687V46.8984ZM57.2687 50.2739V50.8256H57.8205V50.2739H57.2687ZM53.8913 50.2739V49.7222H53.3395V50.2739H53.8913ZM53.8913 53.4224V53.9741H54.443V53.4224H53.8913ZM50.82 53.4224V52.8706H50.2682V53.4224H50.82ZM50.82 56.2427V56.7944H51.3717V56.2427H50.82ZM43.4599 56.2427V55.691H42.9082V56.2427H43.4599ZM43.4599 58.6255V59.1772H44.0116V58.6255H43.4599ZM25.9688 58.6255H25.417V59.1772H25.9688V58.6255ZM25.9688 56.2427H26.5205V55.691H25.9688V56.2427ZM18.9062 56.2427H18.3545V56.7944H18.9062V56.2427ZM18.9062 53.4224H19.458V52.8706H18.9062V53.4224ZM15.2266 53.4224H14.6748V53.9741H15.2266V53.4224ZM15.2266 50.0469V49.4952H14.6748V50.0469H15.2266ZM25.9688 50.0469V50.5986H26.5205V50.0469H25.9688ZM25.9688 46.8989H26.5205V46.3472H25.9688V46.8989ZM22.2832 46.8989H21.7315V47.4506H22.2832V46.8989ZM22.2832 43.5239H22.8349V42.9722H22.2832V43.5239ZM18.9062 43.5239H18.3545V44.0756H18.9062V43.5239ZM18.9062 37.7739H19.458V37.2222H18.9062V37.7739ZM15.2266 37.7739H14.6748V38.3256H15.2266V37.7739ZM15.2266 29.4219V28.8702H14.6748V29.4219H15.2266ZM18.9082 29.4219V29.9736H19.4599V29.4219H18.9082ZM18.9082 26.0469V25.4952H18.3565V26.0469H18.9082ZM22.2837 26.0469H22.8354V25.4952H22.2837V26.0469ZM22.2837 29.4219H21.732V29.9736H22.2837V29.4219ZM25.9668 29.4219H26.5185V28.8702H25.9668V29.4219ZM25.9668 31.5703H25.415V32.122H25.9668V31.5703ZM29.3422 31.5703H29.894V31.0186H29.3422V31.5703ZM29.3422 34.3984H28.7905V34.9502H29.3422V34.3984ZM36.4001 34.3984H36.9518V33.8467H36.4001V34.3984ZM36.4001 37.7656H35.8484V38.3173H36.4001V37.7656ZM39.7715 37.7656V38.3173H40.3232V37.7656H39.7715ZM39.7715 34.9458H40.3232V34.3941H39.7715V34.9458ZM36.4004 34.9458H35.8487V35.4975H36.4004V34.9458ZM36.4004 28.4219V27.8702H35.8487V28.4219H36.4004ZM39.7754 28.4219V28.9736H40.3271V28.4219H39.7754ZM39.7754 26.0469V25.4952H39.2237V26.0469H39.7754ZM43.457 26.0469V26.5986H44.0088V26.0469H43.457ZM64.02 22.6719H64.5717V22.1202H64.02V22.6719ZM60.6445 22.6719V22.1202H60.0928V22.6719H60.6445ZM64.02 26.0474V26.5991H64.5717V26.0474H64.02ZM60.6445 26.0474H60.0928V26.5991H60.6445V26.0474ZM53.8904 22.1202H43.457V23.2236H53.8904V22.1202ZM54.4421 26.0469V22.6719H53.3386V26.0469H54.4421ZM60.6421 25.4952H53.8904V26.5986H60.6421V25.4952ZM61.1938 28.4219V26.0469H60.0903V28.4219H61.1938ZM64.018 27.8702H60.6421V28.9736H64.018V27.8702ZM64.5698 31.7974V28.4219H63.4663V31.7974H64.5698ZM60.6425 32.3491H64.018V31.2456H60.6425V32.3491ZM61.1943 34.9458V31.7974H60.0908V34.9458H61.1943ZM57.2627 35.4975H60.6425V34.3941H57.2627V35.4975ZM57.8144 37.7739V34.9458H56.7109V37.7739H57.8144ZM53.8886 38.3256H57.2627V37.2222H53.8886V38.3256ZM54.4403 40.1484V37.7739H53.3369V40.1484H54.4403ZM57.2641 39.5967H53.8886V40.7002H57.2641V39.5967ZM57.8158 43.5234V40.1484H56.7124V43.5234H57.8158ZM57.2655 42.9717H57.2641V44.0752H57.2655V42.9717ZM57.8173 46.8984V43.5234H56.7138V46.8984H57.8173ZM57.2687 46.3467H57.2655V47.4502H57.2687V46.3467ZM57.8205 50.2739V46.8984H56.717V50.2739H57.8205ZM53.8913 50.8256H57.2687V49.7222H53.8913V50.8256ZM54.443 53.4224V50.2739H53.3395V53.4224H54.443ZM50.82 53.9741H53.8913V52.8706H50.82V53.9741ZM51.3717 56.2427V53.4224H50.2682V56.2427H51.3717ZM43.4599 56.7944H50.82V55.691H43.4599V56.7944ZM42.9082 56.2427V58.6255H44.0116V56.2427H42.9082ZM43.4599 58.0738H25.9688V59.1772H43.4599V58.0738ZM26.5205 58.6255V56.2427H25.417V58.6255H26.5205ZM18.9062 56.7944H25.9688V55.691H18.9062V56.7944ZM18.3545 53.4224V56.2427H19.458V53.4224H18.3545ZM15.2266 53.9741H18.9062V52.8706H15.2266V53.9741ZM14.6748 50.0469V53.4224H15.7783V50.0469H14.6748ZM25.9688 49.4952H15.2266V50.5986H25.9688V49.4952ZM25.417 46.8989V50.0469H26.5205V46.8989H25.417ZM22.2832 47.4506H25.9688V46.3472H22.2832V47.4506ZM21.7315 43.5239V46.8989H22.8349V43.5239H21.7315ZM18.9062 44.0756H22.2832V42.9722H18.9062V44.0756ZM18.3545 41.1411V43.5239H19.458V41.1411H18.3545ZM18.3545 40.1484V41.1411H19.458V40.1484H18.3545ZM18.3545 37.7739V40.1484H19.458V37.7739H18.3545ZM15.2266 38.3256H18.9062V37.2222H15.2266V38.3256ZM14.6748 34.9458V37.7739H15.7783V34.9458H14.6748ZM14.6748 34.3984V34.9458H15.7783V34.3984H14.6748ZM14.6748 32.7974V34.3984H15.7783V32.7974H14.6748ZM14.6748 31.5703V32.7974H15.7783V31.5703H14.6748ZM14.6748 29.4219V31.5703H15.7783V29.4219H14.6748ZM18.9082 28.8702H15.2266V29.9736H18.9082V28.8702ZM18.3565 26.0469V29.4219H19.4599V26.0469H18.3565ZM22.2837 25.4952H18.9082V26.5986H22.2837V25.4952ZM22.8354 29.4219V26.0469H21.732V29.4219H22.8354ZM25.9668 28.8702H22.2837V29.9736H25.9668V28.8702ZM26.5185 31.5703V29.4219H25.415V31.5703H26.5185ZM29.3422 31.0186H25.9668V32.122H29.3422V31.0186ZM29.894 34.3984V31.5703H28.7905V34.3984H29.894ZM36.4001 33.8467H29.3422V34.9502H36.4001V33.8467ZM36.9518 37.7656V34.3984H35.8484V37.7656H36.9518ZM39.7715 37.2139H36.4001V38.3173H39.7715V37.2139ZM39.2198 34.9458V37.7656H40.3232V34.9458H39.2198ZM36.4004 35.4975H39.7715V34.3941H36.4004V35.4975ZM35.8487 31.7974V34.9458H36.9521V31.7974H35.8487ZM35.8487 31.5703V31.7974H36.9521V31.5703H35.8487ZM35.8487 28.4219V31.5703H36.9521V28.4219H35.8487ZM39.7754 27.8702H36.4004V28.9736H39.7754V27.8702ZM39.2237 26.0469V28.4219H40.3271V26.0469H39.2237ZM43.457 25.4952H39.7754V26.5986H43.457V25.4952ZM42.9053 22.6719V26.0469H44.0088V22.6719H42.9053ZM64.02 22.1202H60.6445V23.2236H64.02V22.1202ZM64.5717 26.0474V22.6719H63.4683V26.0474H64.5717ZM60.6445 26.5991H64.02V25.4956H60.6445V26.5991ZM60.0928 22.6719V26.0474H61.1963V22.6719H60.0928Z" fill="#16114F" mask="url(#path-2-inside-1_862_47988)"/>
<mask id="path-4-inside-2_862_47988" fill="white">
<path fill-rule="evenodd" clip-rule="evenodd" d="M43.457 21.6719H53.8904V25.0469H60.6421V27.4219H64.018V30.7974H60.6425V33.9458H57.2627V36.7739H53.8886V39.1484H57.2641V42.5234H57.2655V45.8984H57.2687V49.2739H53.8913V52.4224H50.82V55.2427H43.4599V57.6255H25.9688V55.2427H18.9062V52.4224H15.2266V49.0469H25.9688V45.8989H22.2832V42.5239H18.9062V40.1411V39.1484V36.7739H15.2266V33.9458V33.3984V31.7974V30.5703V28.4219H18.9082V25.0469H22.2837V28.4219H25.9668V30.5703H29.3422V33.3984H36.4001V36.7656H39.7715V33.9458H36.4004V30.7974V30.5703V27.4219H39.7754V25.0469H43.457V21.6719ZM60.6445 21.6719H64.02V25.0474H60.6445V21.6719Z"/>
</mask>
<path fill-rule="evenodd" clip-rule="evenodd" d="M43.457 21.6719H53.8904V25.0469H60.6421V27.4219H64.018V30.7974H60.6425V33.9458H57.2627V36.7739H53.8886V39.1484H57.2641V42.5234H57.2655V45.8984H57.2687V49.2739H53.8913V52.4224H50.82V55.2427H43.4599V57.6255H25.9688V55.2427H18.9062V52.4224H15.2266V49.0469H25.9688V45.8989H22.2832V42.5239H18.9062V40.1411V39.1484V36.7739H15.2266V33.9458V33.3984V31.7974V30.5703V28.4219H18.9082V25.0469H22.2837V28.4219H25.9668V30.5703H29.3422V33.3984H36.4001V36.7656H39.7715V33.9458H36.4004V30.7974V30.5703V27.4219H39.7754V25.0469H43.457V21.6719ZM60.6445 21.6719H64.02V25.0474H60.6445V21.6719Z" fill="#D9FF69"/>
<path d="M53.8904 21.6719H54.4421V21.1202H53.8904V21.6719ZM43.457 21.6719V21.1202H42.9053V21.6719H43.457ZM53.8904 25.0469H53.3386V25.5986H53.8904V25.0469ZM60.6421 25.0469H61.1938V24.4952H60.6421V25.0469ZM60.6421 27.4219H60.0903V27.9736H60.6421V27.4219ZM64.018 27.4219H64.5698V26.8702H64.018V27.4219ZM64.018 30.7974V31.3491H64.5698V30.7974H64.018ZM60.6425 30.7974V30.2456H60.0908V30.7974H60.6425ZM60.6425 33.9458V34.4975H61.1943V33.9458H60.6425ZM57.2627 33.9458V33.3941H56.7109V33.9458H57.2627ZM57.2627 36.7739V37.3256H57.8144V36.7739H57.2627ZM53.8886 36.7739V36.2222H53.3369V36.7739H53.8886ZM53.8886 39.1484H53.3369V39.7002H53.8886V39.1484ZM57.2641 39.1484H57.8158V38.5967H57.2641V39.1484ZM57.2641 42.5234H56.7124V43.0752H57.2641V42.5234ZM57.2655 42.5234H57.8173V41.9717H57.2655V42.5234ZM57.2655 45.8984H56.7138V46.4502H57.2655V45.8984ZM57.2687 45.8984H57.8205V45.3467H57.2687V45.8984ZM57.2687 49.2739V49.8256H57.8205V49.2739H57.2687ZM53.8913 49.2739V48.7222H53.3395V49.2739H53.8913ZM53.8913 52.4224V52.9741H54.443V52.4224H53.8913ZM50.82 52.4224V51.8706H50.2682V52.4224H50.82ZM50.82 55.2427V55.7944H51.3717V55.2427H50.82ZM43.4599 55.2427V54.691H42.9082V55.2427H43.4599ZM43.4599 57.6255V58.1772H44.0116V57.6255H43.4599ZM25.9688 57.6255H25.417V58.1772H25.9688V57.6255ZM25.9688 55.2427H26.5205V54.691H25.9688V55.2427ZM18.9062 55.2427H18.3545V55.7944H18.9062V55.2427ZM18.9062 52.4224H19.458V51.8706H18.9062V52.4224ZM15.2266 52.4224H14.6748V52.9741H15.2266V52.4224ZM15.2266 49.0469V48.4952H14.6748V49.0469H15.2266ZM25.9688 49.0469V49.5986H26.5205V49.0469H25.9688ZM25.9688 45.8989H26.5205V45.3472H25.9688V45.8989ZM22.2832 45.8989H21.7315V46.4506H22.2832V45.8989ZM22.2832 42.5239H22.8349V41.9722H22.2832V42.5239ZM18.9062 42.5239H18.3545V43.0756H18.9062V42.5239ZM18.9062 36.7739H19.458V36.2222H18.9062V36.7739ZM15.2266 36.7739H14.6748V37.3256H15.2266V36.7739ZM15.2266 28.4219V27.8702H14.6748V28.4219H15.2266ZM18.9082 28.4219V28.9736H19.4599V28.4219H18.9082ZM18.9082 25.0469V24.4952H18.3565V25.0469H18.9082ZM22.2837 25.0469H22.8354V24.4952H22.2837V25.0469ZM22.2837 28.4219H21.732V28.9736H22.2837V28.4219ZM25.9668 28.4219H26.5185V27.8702H25.9668V28.4219ZM25.9668 30.5703H25.415V31.122H25.9668V30.5703ZM29.3422 30.5703H29.894V30.0186H29.3422V30.5703ZM29.3422 33.3984H28.7905V33.9502H29.3422V33.3984ZM36.4001 33.3984H36.9518V32.8467H36.4001V33.3984ZM36.4001 36.7656H35.8484V37.3173H36.4001V36.7656ZM39.7715 36.7656V37.3173H40.3232V36.7656H39.7715ZM39.7715 33.9458H40.3232V33.3941H39.7715V33.9458ZM36.4004 33.9458H35.8487V34.4975H36.4004V33.9458ZM36.4004 27.4219V26.8702H35.8487V27.4219H36.4004ZM39.7754 27.4219V27.9736H40.3271V27.4219H39.7754ZM39.7754 25.0469V24.4952H39.2237V25.0469H39.7754ZM43.457 25.0469V25.5986H44.0088V25.0469H43.457ZM64.02 21.6719H64.5717V21.1202H64.02V21.6719ZM60.6445 21.6719V21.1202H60.0928V21.6719H60.6445ZM64.02 25.0474V25.5991H64.5717V25.0474H64.02ZM60.6445 25.0474H60.0928V25.5991H60.6445V25.0474ZM53.8904 21.1202H43.457V22.2236H53.8904V21.1202ZM54.4421 25.0469V21.6719H53.3386V25.0469H54.4421ZM60.6421 24.4952H53.8904V25.5986H60.6421V24.4952ZM61.1938 27.4219V25.0469H60.0903V27.4219H61.1938ZM64.018 26.8702H60.6421V27.9736H64.018V26.8702ZM64.5698 30.7974V27.4219H63.4663V30.7974H64.5698ZM60.6425 31.3491H64.018V30.2456H60.6425V31.3491ZM61.1943 33.9458V30.7974H60.0908V33.9458H61.1943ZM57.2627 34.4975H60.6425V33.3941H57.2627V34.4975ZM57.8144 36.7739V33.9458H56.7109V36.7739H57.8144ZM53.8886 37.3256H57.2627V36.2222H53.8886V37.3256ZM54.4403 39.1484V36.7739H53.3369V39.1484H54.4403ZM57.2641 38.5967H53.8886V39.7002H57.2641V38.5967ZM57.8158 42.5234V39.1484H56.7124V42.5234H57.8158ZM57.2655 41.9717H57.2641V43.0752H57.2655V41.9717ZM57.8173 45.8984V42.5234H56.7138V45.8984H57.8173ZM57.2687 45.3467H57.2655V46.4502H57.2687V45.3467ZM57.8205 49.2739V45.8984H56.717V49.2739H57.8205ZM53.8913 49.8256H57.2687V48.7222H53.8913V49.8256ZM54.443 52.4224V49.2739H53.3395V52.4224H54.443ZM50.82 52.9741H53.8913V51.8706H50.82V52.9741ZM51.3717 55.2427V52.4224H50.2682V55.2427H51.3717ZM43.4599 55.7944H50.82V54.691H43.4599V55.7944ZM42.9082 55.2427V57.6255H44.0116V55.2427H42.9082ZM43.4599 57.0738H25.9688V58.1772H43.4599V57.0738ZM26.5205 57.6255V55.2427H25.417V57.6255H26.5205ZM18.9062 55.7944H25.9688V54.691H18.9062V55.7944ZM18.3545 52.4224V55.2427H19.458V52.4224H18.3545ZM15.2266 52.9741H18.9062V51.8706H15.2266V52.9741ZM14.6748 49.0469V52.4224H15.7783V49.0469H14.6748ZM25.9688 48.4952H15.2266V49.5986H25.9688V48.4952ZM25.417 45.8989V49.0469H26.5205V45.8989H25.417ZM22.2832 46.4506H25.9688V45.3472H22.2832V46.4506ZM21.7315 42.5239V45.8989H22.8349V42.5239H21.7315ZM18.9062 43.0756H22.2832V41.9722H18.9062V43.0756ZM18.3545 40.1411V42.5239H19.458V40.1411H18.3545ZM18.3545 39.1484V40.1411H19.458V39.1484H18.3545ZM18.3545 36.7739V39.1484H19.458V36.7739H18.3545ZM15.2266 37.3256H18.9062V36.2222H15.2266V37.3256ZM14.6748 33.9458V36.7739H15.7783V33.9458H14.6748ZM14.6748 33.3984V33.9458H15.7783V33.3984H14.6748ZM14.6748 31.7974V33.3984H15.7783V31.7974H14.6748ZM14.6748 30.5703V31.7974H15.7783V30.5703H14.6748ZM14.6748 28.4219V30.5703H15.7783V28.4219H14.6748ZM18.9082 27.8702H15.2266V28.9736H18.9082V27.8702ZM18.3565 25.0469V28.4219H19.4599V25.0469H18.3565ZM22.2837 24.4952H18.9082V25.5986H22.2837V24.4952ZM22.8354 28.4219V25.0469H21.732V28.4219H22.8354ZM25.9668 27.8702H22.2837V28.9736H25.9668V27.8702ZM26.5185 30.5703V28.4219H25.415V30.5703H26.5185ZM29.3422 30.0186H25.9668V31.122H29.3422V30.0186ZM29.894 33.3984V30.5703H28.7905V33.3984H29.894ZM36.4001 32.8467H29.3422V33.9502H36.4001V32.8467ZM36.9518 36.7656V33.3984H35.8484V36.7656H36.9518ZM39.7715 36.2139H36.4001V37.3173H39.7715V36.2139ZM39.2198 33.9458V36.7656H40.3232V33.9458H39.2198ZM36.4004 34.4975H39.7715V33.3941H36.4004V34.4975ZM35.8487 30.7974V33.9458H36.9521V30.7974H35.8487ZM35.8487 30.5703V30.7974H36.9521V30.5703H35.8487ZM35.8487 27.4219V30.5703H36.9521V27.4219H35.8487ZM39.7754 26.8702H36.4004V27.9736H39.7754V26.8702ZM39.2237 25.0469V27.4219H40.3271V25.0469H39.2237ZM43.457 24.4952H39.7754V25.5986H43.457V24.4952ZM42.9053 21.6719V25.0469H44.0088V21.6719H42.9053ZM64.02 21.1202H60.6445V22.2236H64.02V21.1202ZM64.5717 25.0474V21.6719H63.4683V25.0474H64.5717ZM60.6445 25.5991H64.02V24.4956H60.6445V25.5991ZM60.0928 21.6719V25.0474H61.1963V21.6719H60.0928Z" fill="#16114F" mask="url(#path-4-inside-2_862_47988)"/>
<rect width="6.81816" height="62.9543" transform="matrix(-1.19249e-08 1 1 1.19249e-08 8.17969 0.539062)" fill="#16114F"/>
<rect x="8.17969" y="80.5391" width="6.81816" height="62.9543" transform="rotate(-90 8.17969 80.5391)" fill="#16114F"/>
<rect width="6.81816" height="6.81816" transform="matrix(-1.19249e-08 1 1 1.19249e-08 4.08984 4.85938)" fill="#16114F"/>
<rect x="4.08984" y="76.2188" width="6.81816" height="6.81816" transform="rotate(-90 4.08984 76.2188)" fill="#16114F"/>
<rect x="75.4531" y="4.85938" width="6.81816" height="6.81816" transform="rotate(90 75.4531 4.85938)" fill="#16114F"/>
<rect width="6.81816" height="6.81816" transform="matrix(1.19249e-08 -1 -1 -1.19249e-08 75.4531 76.2188)" fill="#16114F"/>
<rect width="6.81816" height="62.8441" transform="matrix(1 -3.17865e-08 -3.17865e-08 -1 0 72.0156)" fill="#16114F"/>
<rect x="79.543" y="72.0156" width="6.81816" height="62.8441" transform="rotate(-180 79.543 72.0156)" fill="#16114F"/>
</svg>
