<svg width="80" height="81" viewBox="0 0 80 81" fill="none" xmlns="http://www.w3.org/2000/svg">
<g clip-path="url(#clip0_862_47962)">
<path d="M74.7453 6.39844H5.03125V76.1944H74.7453V6.39844Z" fill="#C7EBF3"/>
<path d="M8.22656 6.86518L8.22656 0L71.5406 7.55901e-07L71.5406 6.86518L8.22656 6.86518Z" fill="#16114F"/>
<path d="M8.22656 73.6895V80.5547H71.5406V73.6895H8.22656Z" fill="#16114F"/>
<path d="M4.11719 11.2089L4.11719 4.34375L10.9743 4.34375L10.9743 11.2089L4.11719 11.2089Z" fill="#16114F"/>
<path d="M4.11719 69.3301V76.1953H10.9743V69.3301H4.11719Z" fill="#16114F"/>
<path d="M75.8828 11.2089V4.34375H69.0257V11.2089H75.8828Z" fill="#16114F"/>
<path d="M75.8828 69.3301L75.8828 76.1953L69.0257 76.1953L69.0257 69.3301L75.8828 69.3301Z" fill="#16114F"/>
<path d="M6.85712 71.9687L0 71.9688L-2.00901e-06 8.69123L6.85712 8.69123L6.85712 71.9687Z" fill="#16114F"/>
<path d="M73.1429 71.9688H80L80 8.69123H73.1429L73.1429 71.9688Z" fill="#16114F"/>
<mask id="mask0_862_47962" style="mask-type:alpha" maskUnits="userSpaceOnUse" x="15" y="21" width="49" height="41">
<path fill-rule="evenodd" clip-rule="evenodd" d="M26.5073 21.4453H37.0748V23.3225H38.9498V25.1994H28.2118V27.0766H26.5073V28.9535H24.6326V30.8307H28.2118V28.9535H31.7912V27.0766H47.6423V28.9535H51.2215V30.8307H54.9715V28.9535H53.0965V27.0766H51.392V25.1994H40.6542V23.3225H42.529V21.4453H53.0965V23.3225H54.9715V25.1994H56.6759V27.0766H58.3801V28.9535H60.2551V30.8307V32.7079H61.9595V39.3627H63.8343V48.4069V50.2841V53.8675H62.1301V57.4511H60.4256V59.1574H56.6759V61.0345H54.9715H51.392H49.6876V59.1574H51.392V57.4511H54.9715V55.574H56.6759V53.8675H58.5506V50.2841H56.6759V48.4069H54.9715V50.2841H53.0965V52.161H49.6876V54.0382H44.5745V55.7447H34.8591V54.0382H29.9162V52.161H26.5073V50.2841H24.6326V48.4069H22.9281V50.2841H21.0533V53.8675H22.9281V55.574H24.6326V57.4511H28.2118V59.1574H29.9162V61.0345H28.2118H24.6326H22.9281V59.1574H19.1784V57.4511H17.474V53.8675H15.7695V50.2841V48.4069V39.3627H17.474V32.7079H19.1784V30.8307H19.3488V28.9535H21.2237V27.0766H22.9281V25.1994H24.6326V23.3225H26.5073V21.4453Z" fill="white"/>
</mask>
<g mask="url(#mask0_862_47962)">
<path fill-rule="evenodd" clip-rule="evenodd" d="M26.5112 21.4531H37.0787V23.3303H38.9537V25.2072H28.2157V27.0844H26.5112V28.9613H24.6365V30.8385H28.2157V28.9613H31.7951V27.0844H47.6462V28.9613H51.2254V30.8385H54.9754V28.9613H53.1004V27.0844H51.3959V25.2072H40.6582V23.3303H42.5329V21.4531H53.1004V23.3303H54.9754V25.2072H56.6798V27.0844H58.384V28.9613H60.259V30.8385V32.7157H61.9635V39.3706H63.8382V48.4148V50.2919V53.8753H62.134V57.4589H60.4295V59.1652H56.6798V61.0423H54.9754H51.3959H49.6915V59.1652H51.3959V57.4589H54.9754V55.5818H56.6798V53.8753H58.5546V50.2919H56.6798V48.4148H54.9754V50.2919H53.1004V52.1689H49.6915V54.046H44.5784V55.7525H34.863V54.046H29.9201V52.1689H26.5112V50.2919H24.6365V48.4148H22.932V50.2919H21.0572V53.8753H22.932V55.5818H24.6365V57.4589H28.2157V59.1652H29.9201V61.0423H28.2157H24.6365H22.932V59.1652H19.1823V57.4589H17.4779V53.8753H15.7734V50.2919V48.4148V39.3706H17.4779V32.7157H19.1823V30.8385H19.3527V28.9613H21.2276V27.0844H22.932V25.2072H24.6365V23.3303H26.5112V21.4531Z" fill="#16114F"/>
<path d="M37.0749 21.4577H37.5321V21H37.0749V21.4577ZM26.5074 21.4577V21H26.0503V21.4577H26.5074ZM37.0749 23.3348H36.6178V23.7925H37.0749V23.3348ZM38.9499 23.3348H39.407V22.8772H38.9499V23.3348ZM38.9499 25.2118V25.6695H39.407V25.2118H38.9499ZM28.2119 25.2118V24.7541H27.7547V25.2118H28.2119ZM28.2119 27.089V27.5466H28.669V27.089H28.2119ZM26.5074 27.089V26.6313H26.0503V27.089H26.5074ZM26.5074 28.9659V29.4236H26.9646V28.9659H26.5074ZM24.6327 28.9659V28.5082H24.1756V28.9659H24.6327ZM24.6327 30.8431H24.1756V31.3007H24.6327V30.8431ZM28.2119 30.8431V31.3007H28.669V30.8431H28.2119ZM28.2119 28.9659V28.5082H27.7547V28.9659H28.2119ZM31.7913 28.9659V29.4236H32.2484V28.9659H31.7913ZM31.7913 27.089V26.6313H31.3342V27.089H31.7913ZM47.6424 27.089H48.0996V26.6313H47.6424V27.089ZM47.6424 28.9659H47.1853V29.4236H47.6424V28.9659ZM51.2216 28.9659H51.6788V28.5082H51.2216V28.9659ZM51.2216 30.8431H50.7645V31.3007H51.2216V30.8431ZM54.9716 30.8431V31.3007H55.4287V30.8431H54.9716ZM54.9716 28.9659H55.4287V28.5082H54.9716V28.9659ZM53.0966 28.9659H52.6395V29.4236H53.0966V28.9659ZM53.0966 27.089H53.5537V26.6313H53.0966V27.089ZM51.3921 27.089H50.935V27.5466H51.3921V27.089ZM51.3921 25.2118H51.8493V24.7541H51.3921V25.2118ZM40.6544 25.2118H40.1972V25.6695H40.6544V25.2118ZM40.6544 23.3348V22.8772H40.1972V23.3348H40.6544ZM42.5291 23.3348V23.7925H42.9862V23.3348H42.5291ZM42.5291 21.4577V21H42.072V21.4577H42.5291ZM53.0966 21.4577H53.5537V21H53.0966V21.4577ZM53.0966 23.3348H52.6395V23.7925H53.0966V23.3348ZM54.9716 23.3348H55.4287V22.8772H54.9716V23.3348ZM54.9716 25.2118H54.5144V25.6695H54.9716V25.2118ZM56.676 25.2118H57.1332V24.7541H56.676V25.2118ZM56.676 27.089H56.2189V27.5466H56.676V27.089ZM58.3802 27.089H58.8374V26.6313H58.3802V27.089ZM58.3802 28.9659H57.9231V29.4236H58.3802V28.9659ZM60.2552 28.9659H60.7123V28.5082H60.2552V28.9659ZM60.2552 32.7202H59.7981V33.1779H60.2552V32.7202ZM61.9597 32.7202H62.4168V32.2626H61.9597V32.7202ZM61.9597 39.3751H61.5025V39.8328H61.9597V39.3751ZM63.8344 39.3751H64.2915V38.9174H63.8344V39.3751ZM63.8344 53.8799V54.3375H64.2915V53.8799H63.8344ZM62.1302 53.8799V53.4222H61.673V53.8799H62.1302ZM62.1302 57.4635V57.9212H62.5873V57.4635H62.1302ZM60.4257 57.4635V57.0058H59.9686V57.4635H60.4257ZM60.4257 59.1697V59.6274H60.8829V59.1697H60.4257ZM56.676 59.1697V58.712H56.2189V59.1697H56.676ZM56.676 61.0469V61.5046H57.1332V61.0469H56.676ZM49.6877 61.0469H49.2306V61.5046H49.6877V61.0469ZM49.6877 59.1697V58.712H49.2306V59.1697H49.6877ZM51.3921 59.1697V59.6274H51.8493V59.1697H51.3921ZM51.3921 57.4635V57.0058H50.935V57.4635H51.3921ZM54.9716 57.4635V57.9212H55.4287V57.4635H54.9716ZM54.9716 55.5863V55.1286H54.5144V55.5863H54.9716ZM56.676 55.5863V56.044H57.1332V55.5863H56.676ZM56.676 53.8799V53.4222H56.2189V53.8799H56.676ZM58.5508 53.8799V54.3375H59.0079V53.8799H58.5508ZM58.5508 50.2965H59.0079V49.8388H58.5508V50.2965ZM56.676 50.2965H56.2189V50.7541H56.676V50.2965ZM56.676 48.4193H57.1332V47.9616H56.676V48.4193ZM54.9716 48.4193V47.9616H54.5144V48.4193H54.9716ZM54.9716 50.2965V50.7541H55.4287V50.2965H54.9716ZM53.0966 50.2965V49.8388H52.6395V50.2965H53.0966ZM53.0966 52.1734V52.6311H53.5537V52.1734H53.0966ZM49.6877 52.1734V51.7157H49.2306V52.1734H49.6877ZM49.6877 54.0506V54.5083H50.1448V54.0506H49.6877ZM44.5746 54.0506V53.5929H44.1174V54.0506H44.5746ZM44.5746 55.757V56.2147H45.0317V55.757H44.5746ZM34.8592 55.757H34.402V56.2147H34.8592V55.757ZM34.8592 54.0506H35.3163V53.5929H34.8592V54.0506ZM29.9163 54.0506H29.4592V54.5083H29.9163V54.0506ZM29.9163 52.1734H30.3735V51.7157H29.9163V52.1734ZM26.5074 52.1734H26.0503V52.6311H26.5074V52.1734ZM26.5074 50.2965H26.9646V49.8388H26.5074V50.2965ZM24.6327 50.2965H24.1756V50.7541H24.6327V50.2965ZM24.6327 48.4193H25.0898V47.9616H24.6327V48.4193ZM22.9282 48.4193V47.9616H22.4711V48.4193H22.9282ZM22.9282 50.2965V50.7541H23.3854V50.2965H22.9282ZM21.0534 50.2965V49.8388H20.5962V50.2965H21.0534ZM21.0534 53.8799H20.5962V54.3375H21.0534V53.8799ZM22.9282 53.8799H23.3854V53.4222H22.9282V53.8799ZM22.9282 55.5863H22.4711V56.044H22.9282V55.5863ZM24.6327 55.5863H25.0898V55.1286H24.6327V55.5863ZM24.6327 57.4635H24.1756V57.9212H24.6327V57.4635ZM28.2119 57.4635H28.669V57.0058H28.2119V57.4635ZM28.2119 59.1697H27.7547V59.6274H28.2119V59.1697ZM29.9163 59.1697H30.3735V58.712H29.9163V59.1697ZM29.9163 61.0469V61.5046H30.3735V61.0469H29.9163ZM22.9282 61.0469H22.4711V61.5046H22.9282V61.0469ZM22.9282 59.1697H23.3854V58.712H22.9282V59.1697ZM19.1785 59.1697H18.7214V59.6274H19.1785V59.1697ZM19.1785 57.4635H19.6356V57.0058H19.1785V57.4635ZM17.4741 57.4635H17.0169V57.9212H17.4741V57.4635ZM17.4741 53.8799H17.9312V53.4222H17.4741V53.8799ZM15.7696 53.8799H15.3125V54.3375H15.7696V53.8799ZM15.7696 39.3751V38.9174H15.3125V39.3751H15.7696ZM17.4741 39.3751V39.8328H17.9312V39.3751H17.4741ZM17.4741 32.7202V32.2626H17.0169V32.7202H17.4741ZM19.1785 32.7202V33.1779H19.6356V32.7202H19.1785ZM19.1785 30.8431V30.3854H18.7214V30.8431H19.1785ZM19.3489 30.8431V31.3007H19.8061V30.8431H19.3489ZM19.3489 28.9659V28.5082H18.8918V28.9659H19.3489ZM21.2238 28.9659V29.4236H21.681V28.9659H21.2238ZM21.2238 27.089V26.6313H20.7667V27.089H21.2238ZM22.9282 27.089V27.5466H23.3854V27.089H22.9282ZM22.9282 25.2118V24.7541H22.4711V25.2118H22.9282ZM24.6327 25.2118V25.6695H25.0898V25.2118H24.6327ZM24.6327 23.3348V22.8772H24.1756V23.3348H24.6327ZM26.5074 23.3348V23.7925H26.9646V23.3348H26.5074ZM37.0749 21H26.5074V21.9154H37.0749V21ZM37.5321 23.3348V21.4577H36.6178V23.3348H37.5321ZM38.9499 22.8772H37.0749V23.7925H38.9499V22.8772ZM39.407 25.2118V23.3348H38.4928V25.2118H39.407ZM28.2119 25.6695H38.9499V24.7541H28.2119V25.6695ZM28.669 27.089V25.2118H27.7547V27.089H28.669ZM26.5074 27.5466H28.2119V26.6313H26.5074V27.5466ZM26.9646 28.9659V27.089H26.0503V28.9659H26.9646ZM24.6327 29.4236H26.5074V28.5082H24.6327V29.4236ZM25.0898 30.8431V28.9659H24.1756V30.8431H25.0898ZM28.2119 30.3854H24.6327V31.3007H28.2119V30.3854ZM27.7547 28.9659V30.8431H28.669V28.9659H27.7547ZM31.7913 28.5082H28.2119V29.4236H31.7913V28.5082ZM31.3342 27.089V28.9659H32.2484V27.089H31.3342ZM47.6424 26.6313H31.7913V27.5466H47.6424V26.6313ZM48.0996 28.9659V27.089H47.1853V28.9659H48.0996ZM51.2216 28.5082H47.6424V29.4236H51.2216V28.5082ZM51.6788 30.8431V28.9659H50.7645V30.8431H51.6788ZM54.9716 30.3854H51.2216V31.3007H54.9716V30.3854ZM54.5144 28.9659V30.8431H55.4287V28.9659H54.5144ZM53.0966 29.4236H54.9716V28.5082H53.0966V29.4236ZM52.6395 27.089V28.9659H53.5537V27.089H52.6395ZM51.3921 27.5466H53.0966V26.6313H51.3921V27.5466ZM50.935 25.2118V27.089H51.8493V25.2118H50.935ZM40.6544 25.6695H51.3921V24.7541H40.6544V25.6695ZM40.1972 23.3348V25.2118H41.1115V23.3348H40.1972ZM42.5291 22.8772H40.6544V23.7925H42.5291V22.8772ZM42.072 21.4577V23.3348H42.9862V21.4577H42.072ZM53.0966 21H42.5291V21.9154H53.0966V21ZM53.5537 23.3348V21.4577H52.6395V23.3348H53.5537ZM54.9716 22.8772H53.0966V23.7925H54.9716V22.8772ZM55.4287 25.2118V23.3348H54.5144V25.2118H55.4287ZM56.676 24.7541H54.9716V25.6695H56.676V24.7541ZM57.1332 27.089V25.2118H56.2189V27.089H57.1332ZM58.3802 26.6313H56.676V27.5466H58.3802V26.6313ZM58.8374 28.9659V27.089H57.9231V28.9659H58.8374ZM60.2552 28.5082H58.3802V29.4236H60.2552V28.5082ZM60.7123 30.8431V28.9659H59.7981V30.8431H60.7123ZM60.7123 32.7202V30.8431H59.7981V32.7202H60.7123ZM61.9597 32.2626H60.2552V33.1779H61.9597V32.2626ZM62.4168 39.3751V32.7202H61.5025V39.3751H62.4168ZM63.8344 38.9174H61.9597V39.8328H63.8344V38.9174ZM64.2915 48.4193V39.3751H63.3772V48.4193H64.2915ZM64.2915 50.2965V48.4193H63.3772V50.2965H64.2915ZM64.2915 53.8799V50.2965H63.3772V53.8799H64.2915ZM62.1302 54.3375H63.8344V53.4222H62.1302V54.3375ZM62.5873 57.4635V53.8799H61.673V57.4635H62.5873ZM60.4257 57.9212H62.1302V57.0058H60.4257V57.9212ZM60.8829 59.1697V57.4635H59.9686V59.1697H60.8829ZM56.676 59.6274H60.4257V58.712H56.676V59.6274ZM57.1332 61.0469V59.1697H56.2189V61.0469H57.1332ZM54.9716 61.5046H56.676V60.5892H54.9716V61.5046ZM51.3921 61.5046H54.9716V60.5892H51.3921V61.5046ZM49.6877 61.5046H51.3921V60.5892H49.6877V61.5046ZM49.2306 59.1697V61.0469H50.1448V59.1697H49.2306ZM51.3921 58.712H49.6877V59.6274H51.3921V58.712ZM50.935 57.4635V59.1697H51.8493V57.4635H50.935ZM54.9716 57.0058H51.3921V57.9212H54.9716V57.0058ZM54.5144 55.5863V57.4635H55.4287V55.5863H54.5144ZM56.676 55.1286H54.9716V56.044H56.676V55.1286ZM56.2189 53.8799V55.5863H57.1332V53.8799H56.2189ZM58.5508 53.4222H56.676V54.3375H58.5508V53.4222ZM58.0936 50.2965V53.8799H59.0079V50.2965H58.0936ZM56.676 50.7541H58.5508V49.8388H56.676V50.7541ZM56.2189 48.4193V50.2965H57.1332V48.4193H56.2189ZM54.9716 48.877H56.676V47.9616H54.9716V48.877ZM55.4287 50.2965V48.4193H54.5144V50.2965H55.4287ZM53.0966 50.7541H54.9716V49.8388H53.0966V50.7541ZM53.5537 52.1734V50.2965H52.6395V52.1734H53.5537ZM49.6877 52.6311H53.0966V51.7157H49.6877V52.6311ZM50.1448 54.0506V52.1734H49.2306V54.0506H50.1448ZM44.5746 54.5083H49.6877V53.5929H44.5746V54.5083ZM45.0317 55.757V54.0506H44.1174V55.757H45.0317ZM34.8592 56.2147H44.5746V55.2994H34.8592V56.2147ZM34.402 54.0506V55.757H35.3163V54.0506H34.402ZM29.9163 54.5083H34.8592V53.5929H29.9163V54.5083ZM29.4592 52.1734V54.0506H30.3735V52.1734H29.4592ZM26.5074 52.6311H29.9163V51.7157H26.5074V52.6311ZM26.0503 50.2965V52.1734H26.9646V50.2965H26.0503ZM24.6327 50.7541H26.5074V49.8388H24.6327V50.7541ZM24.1756 48.4193V50.2965H25.0898V48.4193H24.1756ZM22.9282 48.877H24.6327V47.9616H22.9282V48.877ZM23.3854 50.2965V48.4193H22.4711V50.2965H23.3854ZM21.0534 50.7541H22.9282V49.8388H21.0534V50.7541ZM21.5105 53.8799V50.2965H20.5962V53.8799H21.5105ZM22.9282 53.4222H21.0534V54.3375H22.9282V53.4222ZM23.3854 55.5863V53.8799H22.4711V55.5863H23.3854ZM24.6327 55.1286H22.9282V56.044H24.6327V55.1286ZM25.0898 57.4635V55.5863H24.1756V57.4635H25.0898ZM28.2119 57.0058H24.6327V57.9212H28.2119V57.0058ZM28.669 59.1697V57.4635H27.7547V59.1697H28.669ZM29.9163 58.712H28.2119V59.6274H29.9163V58.712ZM30.3735 61.0469V59.1697H29.4592V61.0469H30.3735ZM28.2119 61.5046H29.9163V60.5892H28.2119V61.5046ZM24.6327 61.5046H28.2119V60.5892H24.6327V61.5046ZM22.9282 61.5046H24.6327V60.5892H22.9282V61.5046ZM22.4711 59.1697V61.0469H23.3854V59.1697H22.4711ZM19.1785 59.6274H22.9282V58.712H19.1785V59.6274ZM18.7214 57.4635V59.1697H19.6356V57.4635H18.7214ZM17.4741 57.9212H19.1785V57.0058H17.4741V57.9212ZM17.0169 53.8799V57.4635H17.9312V53.8799H17.0169ZM15.7696 54.3375H17.4741V53.4222H15.7696V54.3375ZM15.3125 50.2965V53.8799H16.2268V50.2965H15.3125ZM15.3125 48.4193V50.2965H16.2268V48.4193H15.3125ZM15.3125 39.3751V48.4193H16.2268V39.3751H15.3125ZM17.4741 38.9174H15.7696V39.8328H17.4741V38.9174ZM17.0169 32.7202V39.3751H17.9312V32.7202H17.0169ZM19.1785 32.2626H17.4741V33.1779H19.1785V32.2626ZM18.7214 30.8431V32.7202H19.6356V30.8431H18.7214ZM19.3489 30.3854H19.1785V31.3007H19.3489V30.3854ZM18.8918 28.9659V30.8431H19.8061V28.9659H18.8918ZM21.2238 28.5082H19.3489V29.4236H21.2238V28.5082ZM20.7667 27.089V28.9659H21.681V27.089H20.7667ZM22.9282 26.6313H21.2238V27.5466H22.9282V26.6313ZM22.4711 25.2118V27.089H23.3854V25.2118H22.4711ZM24.6327 24.7541H22.9282V25.6695H24.6327V24.7541ZM24.1756 23.3348V25.2118H25.0898V23.3348H24.1756ZM26.5074 22.8772H24.6327V23.7925H26.5074V22.8772ZM26.0503 21.4577V23.3348H26.9646V21.4577H26.0503Z" fill="#16114F"/>
</g>
<mask id="mask1_862_47962" style="mask-type:alpha" maskUnits="userSpaceOnUse" x="15" y="20" width="49" height="40">
<path fill-rule="evenodd" clip-rule="evenodd" d="M26.5073 20.3047H37.0748V22.1819H38.9498V24.0588H28.2118V25.936H26.5073V27.8129H24.6326V29.6901H28.2118V27.8129H31.7912V25.936H47.6423V27.8129H51.2215V29.6901H54.9715V27.8129H53.0965V25.936H51.392V24.0588H40.6542V22.1819H42.529V20.3047H53.0965V22.1819H54.9715V24.0588H56.6759V25.936H58.3801V27.8129H60.2551V29.6901V31.5672H61.9595V38.2221H63.8343V47.2663V49.1435V52.7269H62.1301V56.3105H60.4256V58.0167H56.6759V59.8939H54.9715H51.392H49.6876V58.0167H51.392V56.3105H54.9715V54.4333H56.6759V52.7269H58.5506V49.1435H56.6759V47.2663H54.9715V49.1435H53.0965V51.0204H49.6876V52.8976H44.5745V54.604H34.8591V52.8976H29.9162V51.0204H26.5073V49.1435H24.6326V47.2663H22.9281V49.1435H21.0533V52.7269H22.9281V54.4333H24.6326V56.3105H28.2118V58.0167H29.9162V59.8939H28.2118H24.6326H22.9281V58.0167H19.1784V56.3105H17.474V52.7269H15.7695V49.1435V47.2663V38.2221H17.474V31.5672H19.1784V29.6901H19.3488V27.8129H21.2237V25.936H22.9281V24.0588H24.6326V22.1819H26.5073V20.3047Z" fill="white"/>
</mask>
<g mask="url(#mask1_862_47962)">
<path fill-rule="evenodd" clip-rule="evenodd" d="M26.5112 20.3125H37.0787V22.1897H38.9537V24.0666H28.2157V25.9438H26.5112V27.8207H24.6365V29.6979H28.2157V27.8207H31.7951V25.9438H47.6462V27.8207H51.2254V29.6979H54.9754V27.8207H53.1004V25.9438H51.3959V24.0666H40.6582V22.1897H42.5329V20.3125H53.1004V22.1897H54.9754V24.0666H56.6798V25.9438H58.384V27.8207H60.259V29.6979V31.5751H61.9635V38.2299H63.8382V47.2741V49.1513V52.7347H62.134V56.3183H60.4295V58.0245H56.6798V59.9017H54.9754H51.3959H49.6915V58.0245H51.3959V56.3183H54.9754V54.4411H56.6798V52.7347H58.5546V49.1513H56.6798V47.2741H54.9754V49.1513H53.1004V51.0282H49.6915V52.9054H44.5784V54.6119H34.863V52.9054H29.9201V51.0282H26.5112V49.1513H24.6365V47.2741H22.932V49.1513H21.0572V52.7347H22.932V54.4411H24.6365V56.3183H28.2157V58.0245H29.9201V59.9017H28.2157H24.6365H22.932V58.0245H19.1823V56.3183H17.4779V52.7347H15.7734V49.1513V47.2741V38.2299H17.4779V31.5751H19.1823V29.6979H19.3527V27.8207H21.2276V25.9438H22.932V24.0666H24.6365V22.1897H26.5112V20.3125Z" fill="#D9FF69"/>
<path d="M37.0749 20.3092H37.5321V19.8516H37.0749V20.3092ZM26.5074 20.3092V19.8516H26.0503V20.3092H26.5074ZM37.0749 22.1864H36.6178V22.6441H37.0749V22.1864ZM38.9499 22.1864H39.407V21.7287H38.9499V22.1864ZM38.9499 24.0634V24.521H39.407V24.0634H38.9499ZM28.2119 24.0634V23.6057H27.7547V24.0634H28.2119ZM28.2119 25.9405V26.3982H28.669V25.9405H28.2119ZM26.5074 25.9405V25.4828H26.0503V25.9405H26.5074ZM26.5074 27.8175V28.2751H26.9646V27.8175H26.5074ZM24.6327 27.8175V27.3598H24.1756V27.8175H24.6327ZM24.6327 29.6946H24.1756V30.1523H24.6327V29.6946ZM28.2119 29.6946V30.1523H28.669V29.6946H28.2119ZM28.2119 27.8175V27.3598H27.7547V27.8175H28.2119ZM31.7913 27.8175V28.2751H32.2484V27.8175H31.7913ZM31.7913 25.9405V25.4828H31.3342V25.9405H31.7913ZM47.6424 25.9405H48.0996V25.4828H47.6424V25.9405ZM47.6424 27.8175H47.1853V28.2751H47.6424V27.8175ZM51.2216 27.8175H51.6788V27.3598H51.2216V27.8175ZM51.2216 29.6946H50.7645V30.1523H51.2216V29.6946ZM54.9716 29.6946V30.1523H55.4287V29.6946H54.9716ZM54.9716 27.8175H55.4287V27.3598H54.9716V27.8175ZM53.0966 27.8175H52.6395V28.2751H53.0966V27.8175ZM53.0966 25.9405H53.5537V25.4828H53.0966V25.9405ZM51.3921 25.9405H50.935V26.3982H51.3921V25.9405ZM51.3921 24.0634H51.8493V23.6057H51.3921V24.0634ZM40.6544 24.0634H40.1972V24.521H40.6544V24.0634ZM40.6544 22.1864V21.7287H40.1972V22.1864H40.6544ZM42.5291 22.1864V22.6441H42.9862V22.1864H42.5291ZM42.5291 20.3092V19.8516H42.072V20.3092H42.5291ZM53.0966 20.3092H53.5537V19.8516H53.0966V20.3092ZM53.0966 22.1864H52.6395V22.6441H53.0966V22.1864ZM54.9716 22.1864H55.4287V21.7287H54.9716V22.1864ZM54.9716 24.0634H54.5144V24.521H54.9716V24.0634ZM56.676 24.0634H57.1332V23.6057H56.676V24.0634ZM56.676 25.9405H56.2189V26.3982H56.676V25.9405ZM58.3802 25.9405H58.8374V25.4828H58.3802V25.9405ZM58.3802 27.8175H57.9231V28.2751H58.3802V27.8175ZM60.2552 27.8175H60.7123V27.3598H60.2552V27.8175ZM60.2552 31.5718H59.7981V32.0295H60.2552V31.5718ZM61.9597 31.5718H62.4168V31.1141H61.9597V31.5718ZM61.9597 38.2267H61.5025V38.6844H61.9597V38.2267ZM63.8344 38.2267H64.2915V37.769H63.8344V38.2267ZM63.8344 52.7314V53.1891H64.2915V52.7314H63.8344ZM62.1302 52.7314V52.2738H61.673V52.7314H62.1302ZM62.1302 56.3151V56.7727H62.5873V56.3151H62.1302ZM60.4257 56.3151V55.8574H59.9686V56.3151H60.4257ZM60.4257 58.0213V58.479H60.8829V58.0213H60.4257ZM56.676 58.0213V57.5636H56.2189V58.0213H56.676ZM56.676 59.8984V60.3561H57.1332V59.8984H56.676ZM49.6877 59.8984H49.2306V60.3561H49.6877V59.8984ZM49.6877 58.0213V57.5636H49.2306V58.0213H49.6877ZM51.3921 58.0213V58.479H51.8493V58.0213H51.3921ZM51.3921 56.3151V55.8574H50.935V56.3151H51.3921ZM54.9716 56.3151V56.7727H55.4287V56.3151H54.9716ZM54.9716 54.4379V53.9802H54.5144V54.4379H54.9716ZM56.676 54.4379V54.8956H57.1332V54.4379H56.676ZM56.676 52.7314V52.2738H56.2189V52.7314H56.676ZM58.5508 52.7314V53.1891H59.0079V52.7314H58.5508ZM58.5508 49.148H59.0079V48.6904H58.5508V49.148ZM56.676 49.148H56.2189V49.6057H56.676V49.148ZM56.676 47.2709H57.1332V46.8132H56.676V47.2709ZM54.9716 47.2709V46.8132H54.5144V47.2709H54.9716ZM54.9716 49.148V49.6057H55.4287V49.148H54.9716ZM53.0966 49.148V48.6904H52.6395V49.148H53.0966ZM53.0966 51.025V51.4827H53.5537V51.025H53.0966ZM49.6877 51.025V50.5673H49.2306V51.025H49.6877ZM49.6877 52.9021V53.3598H50.1448V52.9021H49.6877ZM44.5746 52.9021V52.4445H44.1174V52.9021H44.5746ZM44.5746 54.6086V55.0663H45.0317V54.6086H44.5746ZM34.8592 54.6086H34.402V55.0663H34.8592V54.6086ZM34.8592 52.9021H35.3163V52.4445H34.8592V52.9021ZM29.9163 52.9021H29.4592V53.3598H29.9163V52.9021ZM29.9163 51.025H30.3735V50.5673H29.9163V51.025ZM26.5074 51.025H26.0503V51.4827H26.5074V51.025ZM26.5074 49.148H26.9646V48.6904H26.5074V49.148ZM24.6327 49.148H24.1756V49.6057H24.6327V49.148ZM24.6327 47.2709H25.0898V46.8132H24.6327V47.2709ZM22.9282 47.2709V46.8132H22.4711V47.2709H22.9282ZM22.9282 49.148V49.6057H23.3854V49.148H22.9282ZM21.0534 49.148V48.6904H20.5962V49.148H21.0534ZM21.0534 52.7314H20.5962V53.1891H21.0534V52.7314ZM22.9282 52.7314H23.3854V52.2738H22.9282V52.7314ZM22.9282 54.4379H22.4711V54.8956H22.9282V54.4379ZM24.6327 54.4379H25.0898V53.9802H24.6327V54.4379ZM24.6327 56.3151H24.1756V56.7727H24.6327V56.3151ZM28.2119 56.3151H28.669V55.8574H28.2119V56.3151ZM28.2119 58.0213H27.7547V58.479H28.2119V58.0213ZM29.9163 58.0213H30.3735V57.5636H29.9163V58.0213ZM29.9163 59.8984V60.3561H30.3735V59.8984H29.9163ZM22.9282 59.8984H22.4711V60.3561H22.9282V59.8984ZM22.9282 58.0213H23.3854V57.5636H22.9282V58.0213ZM19.1785 58.0213H18.7214V58.479H19.1785V58.0213ZM19.1785 56.3151H19.6356V55.8574H19.1785V56.3151ZM17.4741 56.3151H17.0169V56.7727H17.4741V56.3151ZM17.4741 52.7314H17.9312V52.2738H17.4741V52.7314ZM15.7696 52.7314H15.3125V53.1891H15.7696V52.7314ZM15.7696 38.2267V37.769H15.3125V38.2267H15.7696ZM17.4741 38.2267V38.6844H17.9312V38.2267H17.4741ZM17.4741 31.5718V31.1141H17.0169V31.5718H17.4741ZM19.1785 31.5718V32.0295H19.6356V31.5718H19.1785ZM19.1785 29.6946V29.2369H18.7214V29.6946H19.1785ZM19.3489 29.6946V30.1523H19.8061V29.6946H19.3489ZM19.3489 27.8175V27.3598H18.8918V27.8175H19.3489ZM21.2238 27.8175V28.2751H21.681V27.8175H21.2238ZM21.2238 25.9405V25.4828H20.7667V25.9405H21.2238ZM22.9282 25.9405V26.3982H23.3854V25.9405H22.9282ZM22.9282 24.0634V23.6057H22.4711V24.0634H22.9282ZM24.6327 24.0634V24.521H25.0898V24.0634H24.6327ZM24.6327 22.1864V21.7287H24.1756V22.1864H24.6327ZM26.5074 22.1864V22.6441H26.9646V22.1864H26.5074ZM37.0749 19.8516H26.5074V20.7669H37.0749V19.8516ZM37.5321 22.1864V20.3092H36.6178V22.1864H37.5321ZM38.9499 21.7287H37.0749V22.6441H38.9499V21.7287ZM39.407 24.0634V22.1864H38.4928V24.0634H39.407ZM28.2119 24.521H38.9499V23.6057H28.2119V24.521ZM28.669 25.9405V24.0634H27.7547V25.9405H28.669ZM26.5074 26.3982H28.2119V25.4828H26.5074V26.3982ZM26.9646 27.8175V25.9405H26.0503V27.8175H26.9646ZM24.6327 28.2751H26.5074V27.3598H24.6327V28.2751ZM25.0898 29.6946V27.8175H24.1756V29.6946H25.0898ZM28.2119 29.2369H24.6327V30.1523H28.2119V29.2369ZM27.7547 27.8175V29.6946H28.669V27.8175H27.7547ZM31.7913 27.3598H28.2119V28.2751H31.7913V27.3598ZM31.3342 25.9405V27.8175H32.2484V25.9405H31.3342ZM47.6424 25.4828H31.7913V26.3982H47.6424V25.4828ZM48.0996 27.8175V25.9405H47.1853V27.8175H48.0996ZM51.2216 27.3598H47.6424V28.2751H51.2216V27.3598ZM51.6788 29.6946V27.8175H50.7645V29.6946H51.6788ZM54.9716 29.2369H51.2216V30.1523H54.9716V29.2369ZM54.5144 27.8175V29.6946H55.4287V27.8175H54.5144ZM53.0966 28.2751H54.9716V27.3598H53.0966V28.2751ZM52.6395 25.9405V27.8175H53.5537V25.9405H52.6395ZM51.3921 26.3982H53.0966V25.4828H51.3921V26.3982ZM50.935 24.0634V25.9405H51.8493V24.0634H50.935ZM40.6544 24.521H51.3921V23.6057H40.6544V24.521ZM40.1972 22.1864V24.0634H41.1115V22.1864H40.1972ZM42.5291 21.7287H40.6544V22.6441H42.5291V21.7287ZM42.072 20.3092V22.1864H42.9862V20.3092H42.072ZM53.0966 19.8516H42.5291V20.7669H53.0966V19.8516ZM53.5537 22.1864V20.3092H52.6395V22.1864H53.5537ZM54.9716 21.7287H53.0966V22.6441H54.9716V21.7287ZM55.4287 24.0634V22.1864H54.5144V24.0634H55.4287ZM56.676 23.6057H54.9716V24.521H56.676V23.6057ZM57.1332 25.9405V24.0634H56.2189V25.9405H57.1332ZM58.3802 25.4828H56.676V26.3982H58.3802V25.4828ZM58.8374 27.8175V25.9405H57.9231V27.8175H58.8374ZM60.2552 27.3598H58.3802V28.2751H60.2552V27.3598ZM60.7123 29.6946V27.8175H59.7981V29.6946H60.7123ZM60.7123 31.5718V29.6946H59.7981V31.5718H60.7123ZM61.9597 31.1141H60.2552V32.0295H61.9597V31.1141ZM62.4168 38.2267V31.5718H61.5025V38.2267H62.4168ZM63.8344 37.769H61.9597V38.6844H63.8344V37.769ZM64.2915 47.2709V38.2267H63.3772V47.2709H64.2915ZM64.2915 49.148V47.2709H63.3772V49.148H64.2915ZM64.2915 52.7314V49.148H63.3772V52.7314H64.2915ZM62.1302 53.1891H63.8344V52.2738H62.1302V53.1891ZM62.5873 56.3151V52.7314H61.673V56.3151H62.5873ZM60.4257 56.7727H62.1302V55.8574H60.4257V56.7727ZM60.8829 58.0213V56.3151H59.9686V58.0213H60.8829ZM56.676 58.479H60.4257V57.5636H56.676V58.479ZM57.1332 59.8984V58.0213H56.2189V59.8984H57.1332ZM54.9716 60.3561H56.676V59.4408H54.9716V60.3561ZM51.3921 60.3561H54.9716V59.4408H51.3921V60.3561ZM49.6877 60.3561H51.3921V59.4408H49.6877V60.3561ZM49.2306 58.0213V59.8984H50.1448V58.0213H49.2306ZM51.3921 57.5636H49.6877V58.479H51.3921V57.5636ZM50.935 56.3151V58.0213H51.8493V56.3151H50.935ZM54.9716 55.8574H51.3921V56.7727H54.9716V55.8574ZM54.5144 54.4379V56.3151H55.4287V54.4379H54.5144ZM56.676 53.9802H54.9716V54.8956H56.676V53.9802ZM56.2189 52.7314V54.4379H57.1332V52.7314H56.2189ZM58.5508 52.2738H56.676V53.1891H58.5508V52.2738ZM58.0936 49.148V52.7314H59.0079V49.148H58.0936ZM56.676 49.6057H58.5508V48.6904H56.676V49.6057ZM56.2189 47.2709V49.148H57.1332V47.2709H56.2189ZM54.9716 47.7285H56.676V46.8132H54.9716V47.7285ZM55.4287 49.148V47.2709H54.5144V49.148H55.4287ZM53.0966 49.6057H54.9716V48.6904H53.0966V49.6057ZM53.5537 51.025V49.148H52.6395V51.025H53.5537ZM49.6877 51.4827H53.0966V50.5673H49.6877V51.4827ZM50.1448 52.9021V51.025H49.2306V52.9021H50.1448ZM44.5746 53.3598H49.6877V52.4445H44.5746V53.3598ZM45.0317 54.6086V52.9021H44.1174V54.6086H45.0317ZM34.8592 55.0663H44.5746V54.1509H34.8592V55.0663ZM34.402 52.9021V54.6086H35.3163V52.9021H34.402ZM29.9163 53.3598H34.8592V52.4445H29.9163V53.3598ZM29.4592 51.025V52.9021H30.3735V51.025H29.4592ZM26.5074 51.4827H29.9163V50.5673H26.5074V51.4827ZM26.0503 49.148V51.025H26.9646V49.148H26.0503ZM24.6327 49.6057H26.5074V48.6904H24.6327V49.6057ZM24.1756 47.2709V49.148H25.0898V47.2709H24.1756ZM22.9282 47.7285H24.6327V46.8132H22.9282V47.7285ZM23.3854 49.148V47.2709H22.4711V49.148H23.3854ZM21.0534 49.6057H22.9282V48.6904H21.0534V49.6057ZM21.5105 52.7314V49.148H20.5962V52.7314H21.5105ZM22.9282 52.2738H21.0534V53.1891H22.9282V52.2738ZM23.3854 54.4379V52.7314H22.4711V54.4379H23.3854ZM24.6327 53.9802H22.9282V54.8956H24.6327V53.9802ZM25.0898 56.3151V54.4379H24.1756V56.3151H25.0898ZM28.2119 55.8574H24.6327V56.7727H28.2119V55.8574ZM28.669 58.0213V56.3151H27.7547V58.0213H28.669ZM29.9163 57.5636H28.2119V58.479H29.9163V57.5636ZM30.3735 59.8984V58.0213H29.4592V59.8984H30.3735ZM28.2119 60.3561H29.9163V59.4408H28.2119V60.3561ZM24.6327 60.3561H28.2119V59.4408H24.6327V60.3561ZM22.9282 60.3561H24.6327V59.4408H22.9282V60.3561ZM22.4711 58.0213V59.8984H23.3854V58.0213H22.4711ZM19.1785 58.479H22.9282V57.5636H19.1785V58.479ZM18.7214 56.3151V58.0213H19.6356V56.3151H18.7214ZM17.4741 56.7727H19.1785V55.8574H17.4741V56.7727ZM17.0169 52.7314V56.3151H17.9312V52.7314H17.0169ZM15.7696 53.1891H17.4741V52.2738H15.7696V53.1891ZM15.3125 49.148V52.7314H16.2268V49.148H15.3125ZM15.3125 47.2709V49.148H16.2268V47.2709H15.3125ZM15.3125 38.2267V47.2709H16.2268V38.2267H15.3125ZM17.4741 37.769H15.7696V38.6844H17.4741V37.769ZM17.0169 31.5718V38.2267H17.9312V31.5718H17.0169ZM19.1785 31.1141H17.4741V32.0295H19.1785V31.1141ZM18.7214 29.6946V31.5718H19.6356V29.6946H18.7214ZM19.3489 29.2369H19.1785V30.1523H19.3489V29.2369ZM18.8918 27.8175V29.6946H19.8061V27.8175H18.8918ZM21.2238 27.3598H19.3489V28.2751H21.2238V27.3598ZM20.7667 25.9405V27.8175H21.681V25.9405H20.7667ZM22.9282 25.4828H21.2238V26.3982H22.9282V25.4828ZM22.4711 24.0634V25.9405H23.3854V24.0634H22.4711ZM24.6327 23.6057H22.9282V24.521H24.6327V23.6057ZM24.1756 22.1864V24.0634H25.0898V22.1864H24.1756ZM26.5074 21.7287H24.6327V22.6441H26.5074V21.7287ZM26.0503 20.3092V22.1864H26.9646V20.3092H26.0503Z" fill="#16114F"/>
</g>
<mask id="mask2_862_47962" style="mask-type:alpha" maskUnits="userSpaceOnUse" x="28" y="33" width="10" height="10">
<path fill-rule="evenodd" clip-rule="evenodd" d="M35.5414 33.7891H30.2575V35.6662H28.3828V40.9561H30.2575V42.8333H35.5414V40.9561H37.4162V35.6662H35.5414V33.7891Z" fill="white"/>
</mask>
<g mask="url(#mask2_862_47962)">
<path fill-rule="evenodd" clip-rule="evenodd" d="M35.5414 33.7969H30.2575V35.674H28.3828V40.9639H30.2575V42.8411H35.5414V40.9639H37.4162V35.674H35.5414V33.7969Z" fill="#C7EBF3"/>
<path d="M30.2616 33.7858V33.3281H29.8044V33.7858H30.2616ZM35.5454 33.7858H36.0026V33.3281H35.5454V33.7858ZM30.2616 35.663V36.1207H30.7187V35.663H30.2616ZM28.3868 35.663V35.2053H27.9297V35.663H28.3868ZM28.3868 40.9528H27.9297V41.4105H28.3868V40.9528ZM30.2616 40.9528H30.7187V40.4951H30.2616V40.9528ZM30.2616 42.83H29.8044V43.2877H30.2616V42.83ZM35.5454 42.83V43.2877H36.0026V42.83H35.5454ZM35.5454 40.9528V40.4951H35.0883V40.9528H35.5454ZM37.4202 40.9528V41.4105H37.8773V40.9528H37.4202ZM37.4202 35.663H37.8773V35.2053H37.4202V35.663ZM35.5454 35.663H35.0883V36.1207H35.5454V35.663ZM30.2616 34.2435H35.5454V33.3281H30.2616V34.2435ZM30.7187 35.663V33.7858H29.8044V35.663H30.7187ZM30.2616 35.2053H28.3868V36.1207H30.2616V35.2053ZM27.9297 35.663V40.9528H28.844V35.663H27.9297ZM28.3868 41.4105H30.2616V40.4951H28.3868V41.4105ZM30.7187 42.83V40.9528H29.8044V42.83H30.7187ZM35.5454 42.3723H30.2616V43.2877H35.5454V42.3723ZM35.0883 40.9528V42.83H36.0026V40.9528H35.0883ZM35.5454 41.4105H37.4202V40.4951H35.5454V41.4105ZM37.8773 40.9528V35.663H36.963V40.9528H37.8773ZM37.4202 35.2053H35.5454V36.1207H37.4202V35.2053ZM35.0883 33.7858V35.663H36.0026V33.7858H35.0883Z" fill="#16114F"/>
</g>
<mask id="mask3_862_47962" style="mask-type:alpha" maskUnits="userSpaceOnUse" x="42" y="33" width="10" height="10">
<path fill-rule="evenodd" clip-rule="evenodd" d="M49.3461 33.7891H44.0625V35.6662H42.1875V40.9561H44.0625V42.8333H49.3461V40.9561H51.2211V35.6662H49.3461V33.7891Z" fill="white"/>
</mask>
<g mask="url(#mask3_862_47962)">
<path fill-rule="evenodd" clip-rule="evenodd" d="M49.35 33.7969H44.0664V35.674H42.1914V40.9639H44.0664V42.8411H49.35V40.9639H51.225V35.674H49.35V33.7969Z" fill="#C7EBF3"/>
<path d="M44.0626 33.7858V33.3281H43.6054V33.7858H44.0626ZM49.3462 33.7858H49.8034V33.3281H49.3462V33.7858ZM44.0626 35.663V36.1207H44.5197V35.663H44.0626ZM42.1876 35.663V35.2053H41.7305V35.663H42.1876ZM42.1876 40.9528H41.7305V41.4105H42.1876V40.9528ZM44.0626 40.9528H44.5197V40.4951H44.0626V40.9528ZM44.0626 42.83H43.6054V43.2877H44.0626V42.83ZM49.3462 42.83V43.2877H49.8034V42.83H49.3462ZM49.3462 40.9528V40.4951H48.8891V40.9528H49.3462ZM51.2212 40.9528V41.4105H51.6783V40.9528H51.2212ZM51.2212 35.663H51.6783V35.2053H51.2212V35.663ZM49.3462 35.663H48.8891V36.1207H49.3462V35.663ZM44.0626 34.2435H49.3462V33.3281H44.0626V34.2435ZM44.5197 35.663V33.7858H43.6054V35.663H44.5197ZM44.0626 35.2053H42.1876V36.1207H44.0626V35.2053ZM41.7305 35.663V40.9528H42.6448V35.663H41.7305ZM42.1876 41.4105H44.0626V40.4951H42.1876V41.4105ZM44.5197 42.83V40.9528H43.6054V42.83H44.5197ZM49.3462 42.3723H44.0626V43.2877H49.3462V42.3723ZM48.8891 40.9528V42.83H49.8034V40.9528H48.8891ZM49.3462 41.4105H51.2212V40.4951H49.3462V41.4105ZM51.6783 40.9528V35.663H50.764V40.9528H51.6783ZM51.2212 35.2053H49.3462V36.1207H51.2212V35.2053ZM48.8891 33.7858V35.663H49.8034V33.7858H48.8891Z" fill="#16114F"/>
</g>
</g>
<defs>
<clipPath id="clip0_862_47962">
<rect width="79.9997" height="80.5514" fill="white"/>
</clipPath>
</defs>
</svg>
