<svg width="141" height="72" viewBox="0 0 141 72" fill="none" xmlns="http://www.w3.org/2000/svg">
<path d="M129.632 67.2012V64.8009H126.814V62.4021H123.997V60.0018V57.6H121.178V55.2012V52.8009V50.4006V48.0018V45.6015V43.1997V40.8024H118.36V43.1997H115.542V45.6015H112.724H109.905H107.087H104.271H101.452H98.6339V43.1997H95.8153V40.8024H92.9982V38.4006H90.1797V40.8024H87.3611V43.1997V45.6015H84.5425V48.0018H81.7254V50.4006H78.9068V52.8009H76.0882H73.2712V55.2012H70.4541H67.6355H64.8169H61.9998H59.1812H56.3627H53.5441H50.727V52.8009H47.9084H45.0898V50.4006H42.2713V48.0018H39.4542V45.6015H36.6356H33.817V48.0018H30.9999V50.4006H28.1813H25.3628H22.5442H19.7271H16.9085H14.0899V48.0018H11.2713V45.6015H8.45425V43.1997V40.8024H5.63567V38.4006V36.0003V33.6015V31.2012H2.8171V33.6015V36.0003V38.4006H0V40.8024V43.1997V45.6015V48.0018V50.4006V52.8009H2.8171V55.2012V57.6V60.0018H5.63567V62.4021V64.8009H8.45425V67.2012H11.2713V69.6015H14.0899H16.9085V72.0003H19.7271H22.5442H25.3628H28.1813H30.9999H33.817H36.6356H39.4542H42.2713H45.0898H47.9084H50.727H53.5441H56.3627H59.1812H61.9998H64.8169H67.6355H70.4541H73.2712H76.0882H78.9068H81.7254H84.5425H87.3611H90.1797H92.9982H95.8153H98.6339H101.452H104.271H107.087H109.905H112.724H115.542H118.36H121.178H123.997H126.814H129.632V69.6015H132.451V67.2012H129.632Z" fill="#A3CEE0"/>
<path d="M138.084 45.6012V43.1995V40.8021H135.267V38.4003H132.448V36H129.629V33.6012H126.811H123.994H121.175V31.2009V28.8006V26.4018H118.357V24.0015V21.5997V19.1994H115.54V16.8006H112.721V14.4003H109.902V11.9985H107.084V9.60119H104.268H101.45H98.631H95.8125H92.9954H90.1768H87.3582H84.5396V11.9985H81.7226V9.60119V7.19942H78.904V4.79912H76.0854H73.2683V2.4003H70.4512V0H67.6326H64.814H61.9969H59.1784H56.3598H53.5412V2.4003H50.7241H47.9055V4.79912H45.087V7.19942H42.2684V9.60119H39.4513V11.9985H36.6327V14.4003V16.8006V19.1994H33.8141H30.997H28.1785H25.3599H22.5413H19.7242H16.9056V21.5997H14.0871H11.2685V24.0015H8.45139V26.4018H5.63281V28.8006V31.2009V33.6012V36V38.4003V40.8021H8.45139V43.1995V45.6012H11.2685V48.0015H14.0871V50.4003H16.9056H19.7242H22.5413H25.3599H28.1785H30.997V48.0015H33.8141V45.6012H36.6327H39.4513V48.0015H42.2684V50.4003H45.087V52.8006H47.9055H50.7241V55.2009H53.5412H56.3598H59.1784H61.9969H64.814H67.6326H70.4512H73.2683V52.8006H76.0854H78.904V50.4003H81.7226V48.0015H84.5396V45.6012H87.3582V43.1995V40.8021H90.1768V38.4003H92.9954V40.8021H95.8125V43.1995H98.631V45.6012H101.45H104.268H107.084H109.902H112.721H115.54V43.1995H118.357V40.8021H121.175V43.1995V45.6012V48.0015V50.4003V52.8006V55.2009V57.5998H123.994V60.0015V62.4018H126.811V64.8007H129.629V67.2009H132.448V69.6013H135.267V67.2009V64.8007H138.084V62.4018H140.902V60.0015V57.5998V55.2009V52.8006V50.4003V48.0015V45.6012H138.084Z" fill="white"/>
</svg>
