<svg width="71" height="88" viewBox="0 0 71 88" fill="none" xmlns="http://www.w3.org/2000/svg">
<path d="M24.5304 54.5226V57.2484H27.2584V54.5226V51.7969H24.5304H21.8047V54.5226H24.5304Z" fill="#1A1732"/>
<path d="M43.6172 51.7961V54.5218H46.3429V51.7961H49.0687V49.0703H46.3429H43.6172V51.7961Z" fill="#1A1732"/>
<path d="M57.6904 9.32812H57.2461V10.9012H57.6904V9.32812Z" fill="#232144"/>
<path d="M51.7922 51.7969H49.0664V54.5226H51.7922V51.7969Z" fill="#875631"/>
<path d="M40.8882 65.4211H38.1625V68.149V70.8758V73.6005H35.4367H32.7109V76.3274V79.0531V81.7778V84.5046H35.4367V81.7778V79.0531H38.1625H40.8882V81.7778H43.614V84.5046H46.3397V87.2293H49.0655V84.5046V81.7778H46.3397V79.0531H43.614V76.3274V73.6005V70.8758V68.149V65.4211V62.6953H40.8882V65.4211Z" fill="#875631"/>
<path d="M43.6172 59.9758V62.7015H46.3429V59.9758V57.25H43.6172V59.9758Z" fill="#875631"/>
<path d="M40.8898 84.5078H38.1641V87.2336H40.8898V84.5078Z" fill="#875631"/>
<path d="M40.8882 51.7969H38.1625H35.4367H32.7109V54.5226H35.4367H38.1625H40.8882H43.614V51.7969H40.8882Z" fill="#875631"/>
<path d="M35.4367 65.4219H32.7109V68.1498H35.4367V65.4219Z" fill="#875631"/>
<path d="M29.9849 62.7015V59.9758H27.2592V57.25H24.5312V59.9758V62.7015H27.2592H29.9849Z" fill="#875631"/>
<path d="M38.1633 81.7812H35.4375V84.507H38.1633V81.7812Z" fill="#D97C59"/>
<path d="M38.1633 65.4273V62.7015V59.9758V57.25H35.4375V59.9758V62.7015V65.4273V68.1552V70.882H38.1633V68.1552V65.4273Z" fill="#D97C59"/>
<path d="M32.7101 57.25H29.9844V59.9758H32.7101V57.25Z" fill="#D97C59"/>
<path d="M29.9875 81.7772V79.0526V76.3268V73.6V70.8753V68.1484H27.2617V70.8753V73.6V76.3268V79.0526V81.7772H29.9875Z" fill="#D97C59"/>
<path d="M29.9836 54.5234H27.2578V57.2492H29.9836V54.5234Z" fill="#D97C59"/>
<path d="M27.2584 84.5081V81.7812H24.5304H21.8047V84.5081V87.2328H24.5304V84.5081H27.2584Z" fill="#D97C59"/>
<path d="M24.5304 57.25H21.8047V59.9758V62.7015H24.5304V59.9758V57.25Z" fill="#D97C59"/>
<path d="M51.7922 49.0703H49.0664V51.7961H51.7922V49.0703Z" fill="#AF6E41"/>
<path d="M46.3406 51.7969V54.5226H43.6148H40.889H38.1633H35.4375H32.7118V51.7969H29.9849H27.2592V54.5226H29.9849V57.2484H32.7118V59.9741H29.9849V62.6999H27.2592H24.5312V65.4257H27.2592V68.1536H29.9849V70.8804V73.6051V76.3319V79.0577V81.7824H27.2592V84.5092H24.5312V87.2339H27.2592H29.9849H32.7118H35.4375H38.1633V84.5092H35.4375H32.7118V81.7824V79.0577V76.3319V73.6051H35.4375H38.1633V70.8804H35.4375V68.1536H32.7118V65.4257H35.4375V62.6999V59.9741V57.2484H38.1633V59.9741V62.6999V65.4257H40.889V62.6999H43.6148V59.9741V57.2484H46.3406H49.0663V54.5226V51.7969H46.3406Z" fill="#AF6E41"/>
<path d="M43.6148 84.5062V81.7794H40.889V79.0547H38.1633H35.4375V81.7794H38.1633V84.5062H40.889V87.2309H43.6148H46.3405V84.5062H43.6148Z" fill="#AF6E41"/>
<path d="M29.9836 57.25H27.2578V59.9758H29.9836V57.25Z" fill="#AF6E41"/>
<path d="M27.2592 79.0547H24.5312V81.7804H27.2592V79.0547Z" fill="#AF6E41"/>
<path d="M24.5335 54.5218H21.8078V51.7961V49.0703H19.082V51.7961V54.5218V57.2476H21.8078H24.5335V54.5218Z" fill="#AF6E41"/>
<path d="M54.5209 10.9054V13.6312H57.2467V16.3591H54.5209V19.0849H57.2467H59.9724H62.6982V21.8106H65.4239V24.5364H68.1497V21.8106V19.0849H65.4239V16.3591H62.6982H59.9724V13.6312V10.9054H57.691H57.2467V9.33235V8.17969H54.5209H51.793V10.9054H54.5209Z" fill="#4CA056"/>
<path d="M38.1633 2.72576H40.889V5.45043H43.6148V8.17727V10.903H40.889V13.6288H38.1633V16.3567H40.889H43.6148V19.0825H46.3405V21.8082H49.0663V24.534H46.3405V27.2597H43.6148V29.9855H46.3405H49.0663V32.7123V35.437V38.1639H46.3405V40.8918H43.6148H40.889H38.1633V43.6165H40.889H43.6148V46.3433H46.3405V49.0691H49.0663H51.792V46.3433H54.52V43.6165H57.2457H59.9715H62.6972V40.8918H65.423V38.1639V35.437V32.7123V29.9855H62.6972V27.2597H59.9715H57.2457H54.52V29.9855H57.2457V32.7123H59.9715V35.437V38.1639H57.2457V40.8918H54.52H51.792V38.1639V35.437V32.7123V29.9855V27.2597V24.534V21.8082V19.0825H49.0663V16.3567H46.3405V13.6288V10.903H49.0663V8.17727H46.3405V5.45043V2.72576H43.6148V0H40.889H38.1633H35.4375V2.72576H38.1633Z" fill="#4CA056"/>
<path d="M35.437 51.7961H38.1627H40.8885V49.0703H38.1627H35.437H32.7112H29.9844V51.7961H32.7112H35.437Z" fill="#4CA056"/>
<path d="M21.8054 8.17216V10.8979V13.6237V16.3516H19.0796V19.0774H16.3539H13.6281V21.8031H16.3539H19.0796H21.8054H24.5311V24.5289H27.2591V27.2546H29.9848V29.9804V32.7072V35.4319H27.2591H24.5311V38.1587H21.8054V35.4319H19.0796H16.3539V32.7072H13.6281V35.4319H10.9023V38.1587V40.8867H13.6281H16.3539V43.6113H19.0796H21.8054H24.5311H27.2591H29.9848V40.8867V38.1587H32.7117H35.4374H38.1632V35.4319V32.7072V29.9804V27.2546V24.5289V21.8031H35.4374V19.0774H32.7117H29.9848V16.3516H27.2591H24.5311V13.6237V10.8979V8.17216V5.44531H21.8054H19.0796V8.17216H21.8054Z" fill="#4CA056"/>
<path d="M65.4239 21.8117H62.6982V19.0859H59.9724H57.2467H54.5209H51.793V21.8117V24.5375V27.2632V29.989V32.7158V35.4405V38.1673V40.8953H54.5209H57.2467V38.1673H59.9724V35.4405V32.7158H57.2467V29.989H54.5209V27.2632H57.2467H59.9724H62.6982V29.989H65.4239V32.7158H68.1497V29.989V27.2632V24.5375H65.4239V21.8117Z" fill="#95C35B"/>
<path d="M57.2467 13.632H54.5209V10.9062H51.793V13.632V16.3599H54.5209H57.2467V13.632Z" fill="#95C35B"/>
<path d="M54.5209 46.3438H51.793V49.0695H54.5209V46.3438Z" fill="#95C35B"/>
<path d="M40.889 24.5366H43.6148V27.2624H46.3405V24.5366H49.0663V21.8109H46.3405V19.0851H43.6148V16.3594H40.889H38.1633V19.0851H35.4375V21.8109H38.1633H40.889V24.5366Z" fill="#95C35B"/>
<path d="M32.7109 40.8906V43.6153V46.3421H35.4367V49.0679H38.1625H40.8882V51.7936H43.614V49.0679H46.3397V46.3421H43.614V43.6153H40.8882H38.1625V40.8906H35.4367H32.7109Z" fill="#95C35B"/>
<path d="M40.8898 38.1619V40.8899H43.6156H46.3413V38.1619H49.0671V35.4351V32.7104V29.9836H46.3413H43.6156V27.2578H40.8898H38.1641V29.9836V32.7104V35.4351H40.8898V38.1619Z" fill="#95C35B"/>
<path d="M29.9875 2.72576V5.45043H27.2617V8.17727H29.9875H32.7143V10.903V13.6288V16.3567H35.4401H38.1658V13.6288H40.8916V10.903H43.6173V8.17727V5.45043H40.8916V2.72576H38.1658H35.4401V0H32.7143V2.72576H29.9875Z" fill="#95C35B"/>
<path d="M29.9848 43.6153H27.2591H24.5311H21.8054H19.0796H16.3539V40.8906H13.6281H10.9023V43.6153H13.6281V46.3421H16.3539H19.0796H21.8054H24.5311H27.2591V49.0679H29.9848V46.3421V43.6153Z" fill="#95C35B"/>
<path d="M19.0773 24.5304H16.3516V27.2562V29.982H19.0773V32.7088H21.8031H24.5288V35.4335H27.2568H29.9825V32.7088V29.982V27.2562H27.2568V24.5304H24.5288V21.8047H21.8031V24.5304H19.0773Z" fill="#95C35B"/>
<path d="M13.6304 35.4394V32.7148V29.9879V27.2622V24.5364V21.8106V19.0849H16.3562H19.0819V16.3591H21.8077V13.6312V10.9054V8.17969H19.0819V10.9054H16.3562H13.6304V13.6312V16.3591H10.9046V19.0849H8.17888V21.8106H5.45312V24.5364V27.2622V29.9879H8.17888V32.7148V35.4394V38.1663H10.9046V35.4394H13.6304Z" fill="#95C35B"/>
<path d="M65.4239 35.4356V38.1624V40.8904H62.6982V43.6151H59.9724H57.2467H54.5209V46.3419V49.0676H51.793V51.7934H54.5209H57.2467V49.0676H59.9724V46.3419H62.6982H65.4239V43.6151H68.1497V40.8904H70.8754V38.1624V35.4356V32.7109H68.1497H65.4239V35.4356Z" fill="#B8C64F"/>
<path d="M46.3438 10.9054V13.6312V16.3591H49.0695V19.0849H51.7953H54.5232V16.3591H51.7953V13.6312V10.9054V8.17969H49.0695V10.9054H46.3438Z" fill="#B8C64F"/>
<path d="M35.437 49.0695V46.3438H32.7112V43.6169V40.8923H35.437H38.1627H40.8885V38.1643V35.4375H38.1627V38.1643H35.437H32.7112H29.9844V40.8923V43.6169V46.3438V49.0695H32.7112H35.437Z" fill="#B8C64F"/>
<path d="M43.6156 27.2562V24.5304H40.8898V21.8047H38.1641V24.5304V27.2562H40.8898H43.6156Z" fill="#B8C64F"/>
<path d="M24.5312 10.903V13.6288V16.3567H27.2592H29.9849V19.0825H32.7118H35.4375H38.1633V16.3567H35.4375H32.7118V13.6288V10.903V8.17727H29.9849H27.2592V5.45043H29.9849V2.72576H32.7118V0H29.9849H27.2592V2.72576H24.5312V5.45043V8.17727V10.903Z" fill="#B8C64F"/>
<path d="M2.72576 35.4319H5.45151V38.1587V40.8867V43.6113H8.17727V46.3382H10.903V49.0639H13.6288V51.7897H16.3545H19.0803V49.0639H21.8061V51.7897H24.5318H27.2597H29.9855V49.0639H27.2597V46.3382H24.5318H21.8061H19.0803H16.3545H13.6288V43.6113H10.903V40.8867V38.1587H8.17727V35.4319V32.7072V29.9804H5.45151V27.2546V24.5289V21.8031H8.17727V19.0774H10.903V16.3516H13.6288V13.6237V10.8979H16.3545H19.0803V8.17216V5.44531H16.3545V8.17216H13.6288H10.903V10.8979V13.6237H8.17727V16.3516H5.45151V19.0774H2.72576V21.8031H0V24.5289V27.2546V29.9804V32.7072H2.72576V35.4319Z" fill="#B8C64F"/>
<path d="M13.6289 27.2562V29.982V32.7088H16.3547V35.4335H19.0804H21.8062V38.1603H24.5319V35.4335V32.7088H21.8062H19.0804V29.982H16.3547V27.2562V24.5304H19.0804H21.8062V21.8047H19.0804H16.3547H13.6289V24.5304V27.2562Z" fill="#B8C64F"/>
</svg>
